<svg xmlns="http://www.w3.org/2000/svg" xmlns:xlink="http://www.w3.org/1999/xlink" width="40" zoomAndPan="magnify" viewBox="0 0 30 30.000001" height="40" preserveAspectRatio="xMidYMid meet" version="1.0"><defs><filter x="0%" y="0%" width="100%" height="100%" id="a055db78d2"><feColorMatrix values="0 0 0 0 1 0 0 0 0 1 0 0 0 0 1 0 0 0 1 0" color-interpolation-filters="sRGB"/></filter><clipPath id="651aa7186d"><path d="M 3.386719 5.878906 L 26.613281 5.878906 L 26.613281 23.296875 L 3.386719 23.296875 Z M 3.386719 5.878906 " clip-rule="nonzero"/></clipPath><mask id="79b3234f42"><g filter="url(#a055db78d2)"><rect x="-3" width="36" fill="#000000" y="-3" height="36.000001" fill-opacity="0.749"/></g></mask><clipPath id="2c3b93d3bc"><path d="M 0.386719 1 L 23.496094 1 L 23.496094 7 L 0.386719 7 Z M 0.386719 1 " clip-rule="nonzero"/></clipPath><clipPath id="139b8b1dd2"><path d="M 18 3 L 23.496094 3 L 23.496094 4 L 18 4 Z M 18 3 " clip-rule="nonzero"/></clipPath><clipPath id="99fd4d457a"><path d="M 18 2 L 23.496094 2 L 23.496094 4 L 18 4 Z M 18 2 " clip-rule="nonzero"/></clipPath><clipPath id="220421c505"><path d="M 0.386719 3 L 6 3 L 6 4 L 0.386719 4 Z M 0.386719 3 " clip-rule="nonzero"/></clipPath><clipPath id="cb4c8b9af9"><path d="M 0.386719 2 L 6 2 L 6 4 L 0.386719 4 Z M 0.386719 2 " clip-rule="nonzero"/></clipPath><clipPath id="f2b86fbf37"><path d="M 11 11 L 13 11 L 13 18.296875 L 11 18.296875 Z M 11 11 " clip-rule="nonzero"/></clipPath><clipPath id="ee05ec8f6f"><path d="M 10 0.878906 L 14 0.878906 L 14 4 L 10 4 Z M 10 0.878906 " clip-rule="nonzero"/></clipPath><clipPath id="e1226a80c9"><path d="M 11 16 L 13 16 L 13 18.296875 L 11 18.296875 Z M 11 16 " clip-rule="nonzero"/></clipPath><clipPath id="b011344d68"><rect x="0" width="24" y="0" height="19"/></clipPath></defs><g clip-path="url(#651aa7186d)"><g mask="url(#79b3234f42)"><g transform="matrix(1, 0, 0, 1, 3, 5)"><g clip-path="url(#b011344d68)"><path fill="#000000" d="M 17.265625 4.492188 C 17.054688 3.730469 16.847656 2.96875 16.640625 2.203125 C 16.601562 2.066406 16.5625 1.925781 16.523438 1.785156 C 16.496094 1.679688 16.339844 1.667969 16.238281 1.609375 C 15.964844 1.464844 15.585938 1.289062 15.265625 1.289062 C 14.984375 1.289062 14.625 1.652344 14.417969 1.804688 C 14.136719 2.011719 14 2.332031 13.910156 2.640625 C 13.828125 2.9375 14.042969 3.230469 13.890625 3.546875 C 13.746094 3.84375 13.386719 4.066406 13.054688 4.179688 C 12.332031 4.417969 11.566406 4.429688 10.84375 4.171875 C 10.53125 4.058594 10.171875 3.882812 9.988281 3.617188 C 9.789062 3.332031 9.890625 2.996094 9.890625 2.679688 C 9.890625 2.34375 9.710938 2.074219 9.472656 1.824219 C 9.382812 1.726562 9.214844 1.601562 9.101562 1.523438 C 9.027344 1.472656 8.714844 1.257812 8.640625 1.257812 C 8.28125 1.257812 7.941406 1.378906 7.636719 1.542969 C 7.589844 1.566406 7.324219 1.6875 7.316406 1.710938 C 7.285156 1.839844 7.253906 1.96875 7.21875 2.097656 C 7.097656 2.574219 6.976562 3.054688 6.851562 3.535156 C 6.800781 3.734375 6.75 3.933594 6.699219 4.132812 C 6.6875 4.1875 6.609375 4.347656 6.628906 4.40625 C 6.660156 4.476562 6.875 4.574219 6.9375 4.621094 C 7.167969 4.785156 7.402344 4.945312 7.632812 5.109375 C 7.773438 5.210938 8.09375 5.542969 8.285156 5.539062 C 10.132812 5.535156 11.984375 5.527344 13.835938 5.519531 C 14.640625 5.519531 15.445312 5.515625 16.25 5.511719 C 16.464844 5.511719 16.460938 5.527344 16.589844 5.367188 C 16.742188 5.175781 16.894531 4.984375 17.046875 4.792969 C 17.117188 4.707031 17.242188 4.597656 17.265625 4.492188 " fill-opacity="1" fill-rule="nonzero"/><path stroke-linecap="square" transform="matrix(0.0362247, 0, 0, 0.0365339, 0.326597, 0.732913)" fill-opacity="1" fill="#000000" fill-rule="nonzero" stroke-linejoin="miter" d="M 467.610203 102.898292 C 461.78717 82.048642 456.07197 61.198993 450.356771 40.242422 C 449.278431 36.500177 448.200091 32.651011 447.121752 28.801845 C 446.366914 25.91497 442.053556 25.594207 439.249873 23.990387 C 431.701497 20.0343 421.241603 15.222843 412.399219 15.222843 C 404.635174 15.222843 394.71445 25.166522 388.999251 29.336451 C 381.235206 35.003279 377.461018 43.770824 374.980837 52.217605 C 372.716324 60.343622 378.647191 68.362718 374.441667 77.023342 C 370.451811 85.149359 360.531087 91.243872 351.365201 94.344589 C 331.41592 100.866787 310.280465 101.187551 290.331183 94.130747 C 281.704467 91.03003 271.783743 86.218572 266.715548 78.947925 C 261.216016 71.142672 264.019699 61.947442 264.019699 53.286818 C 264.019699 44.091588 259.059337 36.71402 252.481466 29.871058 C 250.001285 27.198026 245.364425 23.776545 242.23724 21.638119 C 240.188395 20.248143 231.561679 14.367472 229.512833 14.367472 C 219.59211 14.367472 210.210556 17.682032 201.799507 22.172726 C 200.5055 22.814253 193.172791 26.128813 192.957123 26.770341 C 192.094452 30.298743 191.23178 33.827145 190.261274 37.355547 C 186.918422 50.399943 183.575569 63.551261 180.124883 76.702578 C 178.723041 82.155563 177.3212 87.608549 175.919359 93.061534 C 175.595857 94.558432 173.439178 98.942204 173.978347 100.546023 C 174.841019 102.470606 180.771886 105.143638 182.49723 106.426694 C 188.859433 110.917388 195.32947 115.30116 201.691673 119.791854 C 205.573696 122.571807 214.41608 131.660116 219.699944 131.553194 C 270.705404 131.446273 321.818698 131.232431 372.931992 131.018588 C 394.930118 131.018588 416.820411 130.911667 438.818538 130.804745 C 443.131896 130.804745 445.072907 131.660116 447.445254 128.66632 C 454.238793 120.32646 460.924498 111.9866 467.610203 103.646741 " stroke="#000000" stroke-width="0.1" stroke-opacity="1" stroke-miterlimit="10"/><g clip-path="url(#2c3b93d3bc)"><path fill="#000000" d="M 11.601562 6.296875 C 11.300781 6.066406 10.773438 6.078125 10.402344 6.121094 C 9.976562 6.167969 9.515625 6.121094 9.085938 6.121094 C 8.652344 6.121094 8.214844 6.113281 7.785156 6.09375 C 7.558594 6.082031 6.554688 6.011719 6.960938 5.65625 C 6.5625 5.832031 5.515625 5.839844 5.578125 5.25 C 5.242188 5.332031 4.902344 5.367188 4.554688 5.308594 C 4.328125 5.265625 3.664062 5.085938 3.929688 4.78125 C 3.601562 4.765625 1.898438 4.636719 2.515625 4.027344 C 2.191406 3.984375 1.832031 3.882812 1.539062 3.753906 C 1.242188 3.625 0.894531 3.523438 0.652344 3.308594 C 0.519531 3.191406 0.394531 3.082031 0.632812 2.996094 C 0.835938 2.925781 1.03125 2.917969 1.25 2.917969 C 1.660156 2.917969 2.058594 2.9375 2.46875 2.921875 C 4 2.867188 5.464844 2.519531 6.828125 1.914062 C 6.992188 1.84375 7.15625 1.769531 7.320312 1.695312 C 7.078125 1.972656 7.5625 2.152344 7.796875 2.1875 C 8.066406 2.226562 8.351562 2.179688 8.605469 2.105469 C 8.605469 2.316406 8.585938 2.496094 8.769531 2.65625 C 8.890625 2.761719 9.171875 2.8125 9.332031 2.746094 C 9.375 3.0625 9.398438 3.402344 9.589844 3.679688 C 9.800781 3.988281 10.054688 4.214844 10.398438 4.40625 C 10.90625 4.683594 11.800781 4.789062 12.328125 4.726562 C 12.921875 4.652344 13.8125 4.425781 14.109375 3.898438 C 14.300781 3.5625 14.398438 3.253906 14.453125 2.882812 C 14.476562 2.730469 14.65625 2.832031 14.796875 2.804688 C 14.9375 2.773438 15.117188 2.671875 15.167969 2.546875 C 15.21875 2.40625 15.21875 2.308594 15.191406 2.164062 C 15.617188 2.226562 16.695312 2.386719 16.507812 1.726562 C 17.207031 2.035156 17.902344 2.320312 18.640625 2.554688 C 19.355469 2.78125 20.148438 2.859375 20.902344 2.921875 C 21.277344 2.953125 21.664062 2.984375 22.039062 2.976562 C 22.40625 2.96875 22.847656 2.902344 23.199219 3.027344 C 23.609375 3.171875 22.882812 3.539062 22.730469 3.617188 C 22.449219 3.765625 22.117188 3.851562 21.808594 3.9375 C 21.640625 3.984375 21.488281 4.023438 21.3125 4.054688 C 21.589844 4.308594 21.289062 4.570312 21.015625 4.660156 C 20.652344 4.78125 20.28125 4.792969 19.898438 4.8125 C 20.164062 5.113281 19.492188 5.304688 19.265625 5.332031 C 18.898438 5.378906 18.578125 5.359375 18.21875 5.277344 C 18.386719 5.554688 17.886719 5.722656 17.6875 5.792969 C 17.445312 5.878906 17.082031 5.78125 16.871094 5.6875 C 17.019531 5.925781 16.886719 5.964844 16.632812 6.054688 C 16.441406 6.125 16.160156 6.109375 15.957031 6.128906 C 15.449219 6.167969 14.925781 6.179688 14.417969 6.179688 C 13.941406 6.179688 13.464844 6.152344 12.988281 6.152344 C 12.769531 6.152344 12.53125 6.160156 12.328125 6.238281 C 12.191406 6.292969 12.214844 6.328125 12.0625 6.320312 C 11.90625 6.3125 11.753906 6.304688 11.601562 6.296875 " fill-opacity="1" fill-rule="nonzero"/><path stroke-linecap="square" transform="matrix(0.0362247, 0, 0, 0.0365339, 0.326597, 0.732913)" fill-opacity="1" fill="#000000" fill-rule="nonzero" stroke-linejoin="miter" d="M 311.25097 152.295923 C 302.947756 145.987567 288.390172 146.308331 278.145947 147.484465 C 266.392046 148.76752 253.667639 147.484465 241.805904 147.484465 C 229.836335 147.484465 217.758933 147.270623 205.897198 146.736016 C 199.642828 146.415252 171.929502 144.490669 183.144233 134.760833 C 172.14517 139.57229 143.245671 139.786133 144.971014 123.64102 C 135.697294 125.886367 126.31574 126.848658 116.718518 125.244839 C 110.464149 124.068705 92.132377 119.150326 99.465085 110.810466 C 90.407033 110.382781 43.39143 106.854379 60.429194 90.174659 C 51.478976 88.998525 41.558252 86.218572 33.470706 82.69017 C 25.275325 79.161768 15.678103 76.381814 8.992398 70.501144 C 5.326044 67.293506 1.875357 64.29971 8.453229 61.947442 C 14.060594 60.022859 19.452292 59.809016 25.490993 59.809016 C 36.813558 59.809016 47.812622 60.343622 59.135187 59.915937 C 101.406097 58.419039 141.843829 48.903046 179.477879 32.330247 C 184.006905 30.405664 188.535931 28.37416 193.064957 26.342656 C 186.379252 33.934066 199.750662 38.852445 206.2207 39.814737 C 213.661242 40.88395 221.533121 39.600894 228.542328 37.56939 C 228.542328 43.343139 228.003158 48.261518 233.071354 52.64529 C 236.414207 55.532165 244.178251 56.922141 248.599443 55.10448 C 249.785617 63.765103 250.432621 73.067255 255.716484 80.658665 C 261.539518 89.105447 268.548725 95.306881 278.038113 100.546023 C 292.056527 108.137434 316.750502 111.024309 331.308086 109.313568 C 347.698847 107.282064 372.284988 101.08063 380.480369 86.646257 C 385.764232 77.451027 388.460081 69.004246 389.969757 58.846725 C 390.61676 54.676795 395.577122 57.456748 399.459144 56.708299 C 403.341167 55.852929 408.301529 53.072975 409.70337 49.651494 C 411.105211 45.802328 411.105211 43.129296 410.350374 39.173209 C 422.104275 40.88395 451.866446 45.267722 446.690416 27.198026 C 465.992694 35.644807 485.187138 43.45006 505.567755 49.865337 C 525.301368 56.066771 547.191661 58.205197 568.003614 59.915937 C 578.355674 60.771308 589.031235 61.626678 599.383294 61.412835 C 609.519686 61.198993 621.704923 59.381331 631.409979 62.802812 C 642.732544 66.758899 622.675428 76.809499 618.469904 78.947925 C 610.70586 83.010934 601.539974 85.363202 593.021091 87.71547 C 588.384231 88.998525 584.178707 90.067738 579.326179 90.923108 C 586.98239 97.872991 578.679175 105.036717 571.130799 107.495907 C 561.102241 110.810466 550.858015 111.13123 540.290288 111.665836 C 547.622997 119.898775 529.075557 125.137918 522.821187 125.886367 C 512.684796 127.169422 503.842412 126.634816 493.921688 124.389469 C 498.558548 131.98088 484.755802 136.578495 479.25627 138.503078 C 472.570565 140.855346 462.542007 138.182314 456.718974 135.616203 C 460.816664 142.138401 457.15031 143.207614 450.141103 145.666803 C 444.857239 147.591386 437.093194 147.163701 431.485829 147.698308 C 417.467415 148.76752 403.017665 149.088284 388.999251 149.088284 C 375.843509 149.088284 362.687766 148.339835 349.532024 148.339835 C 343.493322 148.339835 336.915451 148.553678 331.308086 150.692103 C 327.533897 152.189001 328.180901 153.151293 323.975377 152.93745 C 319.662019 152.723608 315.456495 152.509765 311.25097 152.295923 " stroke="#000000" stroke-width="0.1" stroke-opacity="1" stroke-miterlimit="10"/></g><path fill="#000000" d="M 11.4375 14.101562 C 11.550781 14.113281 11.597656 13.933594 11.667969 13.867188 C 11.785156 13.757812 11.945312 13.675781 12.089844 13.59375 C 12.359375 13.429688 12.644531 13.246094 12.933594 13.121094 C 13.246094 12.980469 13.535156 12.855469 13.773438 12.617188 C 13.84375 12.550781 14.277344 11.859375 14.078125 11.859375 L 13.371094 11.859375 C 13.074219 11.859375 13.183594 11.863281 13.050781 12.054688 C 12.859375 12.335938 12.582031 12.550781 12.261719 12.703125 C 11.625 13.003906 11.058594 13.285156 10.722656 13.878906 C 10.613281 14.074219 10.648438 14.296875 10.648438 14.511719 C 10.921875 14.382812 11.195312 14.257812 11.46875 14.132812 C 11.460938 14.121094 11.449219 14.113281 11.4375 14.101562 " fill-opacity="1" fill-rule="nonzero"/><path stroke-linecap="square" transform="matrix(0.0362247, 0, 0, 0.0365339, 0.326597, 0.732913)" fill-opacity="1" fill="#000000" fill-rule="nonzero" stroke-linejoin="miter" d="M 352.227873 303.803375 C 352.227873 321.017701 326.994728 327.753742 313.084148 334.810546 C 305.751439 338.552791 296.262051 345.609596 291.948693 352.024872 C 285.909991 360.685496 284.939486 367.100773 284.939486 377.151373 " stroke="#000000" stroke-width="0.1" stroke-opacity="1" stroke-miterlimit="10"/><path stroke-linecap="square" transform="matrix(0.0362247, 0, 0, 0.0365339, 0.326597, 0.732913)" fill-opacity="1" fill="#000000" fill-rule="nonzero" stroke-linejoin="miter" d="M 306.721944 365.924639 C 309.849129 366.245403 311.143136 361.327024 313.084148 359.509362 C 316.103498 356.729409 320.309022 354.484062 323.975377 352.345636 C 331.41592 348.282628 338.964296 343.043485 346.728341 339.622004 C 363.550438 332.244436 380.372535 322.942284 380.372535 304.551824 " stroke="#000000" stroke-width="0.1" stroke-opacity="1" stroke-miterlimit="10"/><path fill="#000000" d="M 11.503906 16.023438 C 11.488281 15.753906 11.898438 15.441406 12.097656 15.265625 C 11.910156 15.1875 11.722656 15.109375 11.535156 15.03125 C 11.402344 14.976562 11.289062 15.191406 11.199219 15.273438 C 10.996094 15.453125 10.785156 15.792969 10.8125 16.054688 C 11.042969 16.042969 11.273438 16.035156 11.503906 16.023438 " fill-opacity="1" fill-rule="nonzero"/><path stroke-linecap="square" transform="matrix(0.0362247, 0, 0, 0.0365339, 0.326597, 0.732913)" fill-opacity="1" fill="#000000" fill-rule="nonzero" stroke-linejoin="miter" d="M 308.555122 418.529908 C 308.123786 411.15234 319.446351 402.598638 324.945882 397.78718 C 319.769853 395.648754 314.593823 393.510329 309.417793 391.371903 C 305.751439 389.875005 302.624254 395.755676 300.144073 398.001023 C 294.536708 402.919401 288.713674 412.221553 289.468512 419.385278 " stroke="#000000" stroke-width="0.1" stroke-opacity="1" stroke-miterlimit="10"/><path fill="#000000" d="M 12.097656 16.433594 C 12.441406 16.390625 12.742188 16.144531 12.886719 15.878906 C 12.992188 15.679688 12.957031 15.675781 12.730469 15.617188 C 12.449219 15.546875 12.164062 15.476562 11.878906 15.402344 C 11.761719 15.375 11.6875 15.546875 11.660156 15.648438 C 11.628906 15.757812 11.453125 15.972656 11.46875 16.082031 C 11.488281 16.179688 11.675781 16.25 11.773438 16.277344 C 11.863281 16.304688 12.101562 16.480469 12.097656 16.433594 " fill-opacity="1" fill-rule="nonzero"/><path stroke-linecap="square" transform="matrix(0.0362247, 0, 0, 0.0365339, 0.326597, 0.732913)" fill-opacity="1" fill="#000000" fill-rule="nonzero" stroke-linejoin="miter" d="M 324.945882 429.756642 C 333.788267 428.580508 350.718197 418.209144 348.561518 409.013914 " stroke="#000000" stroke-width="0.1" stroke-opacity="1" stroke-miterlimit="10"/><g clip-path="url(#139b8b1dd2)"><path fill="#000000" d="M 20.0625 3.035156 C 20.703125 3.175781 21.429688 3.253906 22.085938 3.183594 C 22.21875 3.167969 22.9375 3.070312 23.027344 3.152344 C 23.1875 3.300781 22.433594 3.597656 22.320312 3.640625 C 22.09375 3.726562 21.800781 3.851562 21.550781 3.851562 L 20.511719 3.851562 C 20.183594 3.851562 19.824219 3.757812 19.5 3.699219 C 19.261719 3.65625 18.757812 3.621094 18.582031 3.472656 " fill-opacity="1" fill-rule="nonzero"/></g><g clip-path="url(#99fd4d457a)"><path stroke-linecap="square" transform="matrix(0.0362247, 0, 0, 0.0365339, 0.326597, 0.732913)" fill="none" stroke-linejoin="miter" d="M 544.819314 63.016654 C 562.504082 66.86582 582.561198 69.004246 600.677302 67.079663 C 604.343656 66.651978 624.185104 63.978946 626.665285 66.224293 C 631.086477 70.287301 610.274524 78.413319 607.147339 79.589453 C 600.89297 81.941721 592.805423 85.363202 585.90405 85.363202 L 557.220219 85.363202 C 548.162167 85.363202 538.241443 82.797091 529.291225 81.193272 C 522.713353 80.017138 508.802773 79.054846 503.950246 74.991838 " stroke="#000000" stroke-width="0.1" stroke-opacity="1" stroke-miterlimit="10"/></g><path stroke-linecap="square" transform="matrix(0.0362247, 0, 0, 0.0365339, 0.326597, 0.732913)" fill-opacity="1" fill="#000000" fill-rule="nonzero" stroke-linejoin="miter" d="M 479.471938 87.71547 C 488.098654 94.772274 504.597249 97.872991 515.380645 101.508315 C 527.673715 105.571324 542.015631 106.10593 555.06354 106.10593 C 560.670905 106.10593 567.680112 103.646741 572.316972 100.866787 C 579.218345 96.803779 573.287478 91.778479 567.033108 91.778479 C 552.799027 91.778479 539.751118 88.998525 525.732704 86.967021 " stroke="#000000" stroke-width="0.1" stroke-opacity="1" stroke-miterlimit="10"/><path stroke-linecap="square" transform="matrix(0.0362247, 0, 0, 0.0365339, 0.326597, 0.732913)" fill-opacity="1" fill="#000000" fill-rule="nonzero" stroke-linejoin="miter" d="M 475.805584 96.483015 C 483.785296 100.759866 492.519846 103.219055 501.362231 105.892087 C 505.891257 107.175143 510.420283 108.458198 514.841475 110.062017 C 518.184327 111.238151 525.0857 111.772758 527.565881 114.018105 C 535.114258 120.754145 513.116132 120.647224 509.449777 120.433381 C 500.607393 119.898775 494.029522 116.798058 485.726307 114.873475 " stroke="#000000" stroke-width="0.1" stroke-opacity="1" stroke-miterlimit="10"/><path stroke-linecap="square" transform="matrix(0.0362247, 0, 0, 0.0365339, 0.326597, 0.732913)" fill-opacity="1" fill="#000000" fill-rule="nonzero" stroke-linejoin="miter" d="M 446.690416 104.502111 C 453.160453 107.388985 492.412012 118.722641 483.030459 129.200926 C 477.746595 135.188518 462.757675 131.232431 456.395472 129.414769 C 447.553088 126.848658 439.573375 123.854862 431.270161 120.433381 " stroke="#000000" stroke-width="0.1" stroke-opacity="1" stroke-miterlimit="10"/><path stroke-linecap="square" transform="matrix(0.0362247, 0, 0, 0.0365339, 0.326597, 0.732913)" fill-opacity="1" fill="#000000" fill-rule="nonzero" stroke-linejoin="miter" d="M 418.545754 122.78565 C 424.260954 126.955579 432.995504 128.131714 439.465541 131.553194 C 443.563231 133.798541 454.130959 141.924559 443.024062 141.924559 C 439.573375 141.924559 436.014855 143.100693 432.132832 142.779929 C 427.495972 142.245322 423.182614 140.641503 418.869256 139.358448 C 409.487702 136.685416 402.047159 131.553194 393.959613 126.848658 " stroke="#000000" stroke-width="0.1" stroke-opacity="1" stroke-miterlimit="10"/><path stroke-linecap="square" transform="matrix(0.0362247, 0, 0, 0.0365339, 0.326597, 0.732913)" fill-opacity="1" fill="#000000" fill-rule="nonzero" stroke-linejoin="miter" d="M 464.914354 39.173209 C 474.942912 43.556982 485.510639 46.336935 495.754865 50.293022 C 502.871906 52.966054 517.752992 60.98515 501.254397 63.016654 C 477.746595 65.903529 452.621284 56.173693 431.270161 48.689203 " stroke="#000000" stroke-width="0.1" stroke-opacity="1" stroke-miterlimit="10"/><path stroke-linecap="square" transform="matrix(0.0362247, 0, 0, 0.0365339, 0.326597, 0.732913)" fill-opacity="1" fill="#000000" fill-rule="nonzero" stroke-linejoin="miter" d="M 445.827745 59.060567 C 453.699623 62.909733 463.189011 64.406631 471.276558 67.828112 C 474.08024 69.004246 481.520783 70.821908 483.030459 73.388018 C 484.863636 76.595657 481.844285 76.167972 478.285765 77.130263 C 468.472875 80.017138 458.552151 74.991838 449.709767 72.425727 C 439.896877 69.538852 430.299655 64.406631 421.241603 59.809016 " stroke="#000000" stroke-width="0.1" stroke-opacity="1" stroke-miterlimit="10"/><path stroke-linecap="square" transform="matrix(0.0362247, 0, 0, 0.0365339, 0.326597, 0.732913)" fill-opacity="1" fill="#000000" fill-rule="nonzero" stroke-linejoin="miter" d="M 409.379868 62.268205 C 418.653588 66.545057 428.897814 69.645774 437.52453 74.671074 C 441.945722 77.237185 460.277494 82.69017 459.414823 88.57084 C 458.336483 95.734566 440.328213 90.923108 436.122689 89.105447 C 426.201965 84.721674 417.575249 78.413319 407.654525 74.243389 " stroke="#000000" stroke-width="0.1" stroke-opacity="1" stroke-miterlimit="10"/><path stroke-linecap="square" transform="matrix(0.0362247, 0, 0, 0.0365339, 0.326597, 0.732913)" fill-opacity="1" fill="#000000" fill-rule="nonzero" stroke-linejoin="miter" d="M 410.350374 83.759383 C 415.095068 88.677761 422.212109 92.633849 427.603806 97.338385 C 430.730991 100.118338 436.98536 105.25056 429.436984 105.25056 C 417.251747 105.25056 401.615824 94.665353 393.959613 86.967021 " stroke="#000000" stroke-width="0.1" stroke-opacity="1" stroke-miterlimit="10"/><path stroke-linecap="square" transform="matrix(0.0362247, 0, 0, 0.0365339, 0.326597, 0.732913)" fill-opacity="1" fill="#000000" fill-rule="nonzero" stroke-linejoin="miter" d="M 385.764232 90.923108 C 388.136579 94.451511 411.644381 109.741253 407.115355 113.697341 C 400.96882 119.150326 387.59741 109.741253 382.205712 106.854379 " stroke="#000000" stroke-width="0.1" stroke-opacity="1" stroke-miterlimit="10"/><path stroke-linecap="square" transform="matrix(0.0362247, 0, 0, 0.0365339, 0.326597, 0.732913)" fill-opacity="1" fill="#000000" fill-rule="nonzero" stroke-linejoin="miter" d="M 368.5108 104.502111 C 370.343977 105.999009 383.931055 121.18183 377.137516 121.18183 C 372.716324 121.18183 363.011268 119.684932 361.285925 116.477294 " stroke="#000000" stroke-width="0.1" stroke-opacity="1" stroke-miterlimit="10"/><path stroke-linecap="square" transform="matrix(0.0362247, 0, 0, 0.0365339, 0.326597, 0.732913)" fill-opacity="1" fill="#000000" fill-rule="nonzero" stroke-linejoin="miter" d="M 345.757836 114.018105 C 348.022349 117.439586 352.120039 119.684932 352.120039 123.64102 C 352.120039 127.917871 347.591013 129.628611 343.061987 129.949375 " stroke="#000000" stroke-width="0.1" stroke-opacity="1" stroke-miterlimit="10"/><path stroke-linecap="square" transform="matrix(0.0362247, 0, 0, 0.0365339, 0.326597, 0.732913)" fill-opacity="1" fill="#000000" fill-rule="nonzero" stroke-linejoin="miter" d="M 359.452748 136.364652 C 357.188235 135.188518 351.904371 134.867754 349.42419 135.936967 C 346.620507 137.220022 343.816824 141.496873 348.561518 142.779929 " stroke="#000000" stroke-width="0.1" stroke-opacity="1" stroke-miterlimit="10"/><path stroke-linecap="square" transform="matrix(0.0362247, 0, 0, 0.0365339, 0.326597, 0.732913)" fill-opacity="1" fill="#000000" fill-rule="nonzero" stroke-linejoin="miter" d="M 372.177154 124.389469 C 369.265637 125.565603 365.167947 124.389469 363.119102 126.848658 C 361.501593 128.66632 362.25643 131.660116 364.952279 132.729329 C 367.324626 133.798541 368.618634 135.509282 371.314483 136.364652 C 375.088671 137.647707 379.186361 137.220022 383.284051 137.220022 C 389.861923 137.220022 401.400156 138.930763 391.263764 131.553194 C 385.44073 127.383265 379.617697 125.244839 372.177154 125.244839 " stroke="#000000" stroke-width="0.1" stroke-opacity="1" stroke-miterlimit="10"/><path fill="#000000" d="M 15.914062 1.667969 C 15.648438 1.679688 15.441406 1.625 15.191406 1.726562 C 14.9375 1.824219 14.761719 2.019531 14.566406 2.191406 C 14.726562 1.980469 14.863281 1.652344 15.125 1.523438 C 15.222656 1.472656 15.425781 1.414062 15.539062 1.472656 C 15.617188 1.515625 15.902344 1.699219 15.914062 1.667969 " fill-opacity="1" fill-rule="nonzero"/><g clip-path="url(#220421c505)"><path fill="#000000" d="M 3.734375 3.007812 C 3.078125 3.171875 2.398438 3.152344 1.726562 3.152344 C 1.527344 3.152344 0.929688 3.011719 0.785156 3.136719 C 0.640625 3.265625 1.421875 3.578125 1.511719 3.613281 C 2.113281 3.839844 2.664062 3.839844 3.316406 3.796875 C 3.660156 3.773438 3.992188 3.730469 4.328125 3.671875 C 4.566406 3.628906 5.070312 3.59375 5.25 3.445312 " fill-opacity="1" fill-rule="nonzero"/></g><g clip-path="url(#cb4c8b9af9)"><path stroke-linecap="square" transform="matrix(0.0362247, 0, 0, 0.0365339, 0.326597, 0.732913)" fill="none" stroke-linejoin="miter" d="M 94.073388 62.268205 C 75.957284 66.758899 57.194176 66.224293 38.646736 66.224293 C 33.147204 66.224293 16.648609 62.375127 12.658753 65.796608 C 8.668896 69.32501 30.235687 77.878712 32.715868 78.841004 C 49.322297 85.042438 64.526884 85.042438 82.535155 83.866304 C 92.024543 83.224776 101.190429 82.048642 110.464149 80.444823 C 117.04202 79.268689 130.9526 78.306397 135.912962 74.243389 " stroke="#000000" stroke-width="0.1" stroke-opacity="1" stroke-miterlimit="10"/></g><path stroke-linecap="square" transform="matrix(0.0362247, 0, 0, 0.0365339, 0.326597, 0.732913)" fill-opacity="1" fill="#000000" fill-rule="nonzero" stroke-linejoin="miter" d="M 159.528598 86.967021 C 138.285309 98.942204 111.218986 105.25056 86.093675 105.25056 C 80.270642 105.25056 72.290929 102.898292 67.438401 100.118338 C 60.105692 95.841487 66.252228 91.564636 72.290929 90.923108 C 86.309343 89.533132 99.896421 88.250076 114.022669 86.111651 " stroke="#000000" stroke-width="0.1" stroke-opacity="1" stroke-miterlimit="10"/><path stroke-linecap="square" transform="matrix(0.0362247, 0, 0, 0.0365339, 0.326597, 0.732913)" fill-opacity="1" fill="#000000" fill-rule="nonzero" stroke-linejoin="miter" d="M 163.087118 95.734566 C 154.568236 99.262968 146.588523 102.363685 137.530471 105.036717 C 133.001445 106.426694 128.580253 107.923592 124.051227 109.313568 C 121.247544 110.062017 113.267831 111.345073 111.32682 113.269656 C 104.641115 120.005696 127.825415 120.219539 131.383936 119.47109 C 134.942456 118.61572 139.902818 119.043405 143.137837 117.653428 C 146.157187 116.263452 150.470545 114.873475 154.029066 114.018105 " stroke="#000000" stroke-width="0.1" stroke-opacity="1" stroke-miterlimit="10"/><path stroke-linecap="square" transform="matrix(0.0362247, 0, 0, 0.0365339, 0.326597, 0.732913)" fill-opacity="1" fill="#000000" fill-rule="nonzero" stroke-linejoin="miter" d="M 192.202286 103.646741 C 184.869577 106.854379 148.637368 116.584215 156.724915 127.597107 C 161.469609 134.012384 176.997698 130.483982 183.467735 128.559399 C 192.202286 125.993288 200.397666 123.213335 208.593046 119.578011 " stroke="#000000" stroke-width="0.1" stroke-opacity="1" stroke-miterlimit="10"/><path stroke-linecap="square" transform="matrix(0.0362247, 0, 0, 0.0365339, 0.326597, 0.732913)" fill-opacity="1" fill="#000000" fill-rule="nonzero" stroke-linejoin="miter" d="M 220.346947 122.037201 C 213.769076 124.817154 206.652035 127.383265 200.397666 130.804745 C 196.40781 133.050092 185.51658 141.17611 196.731312 141.17611 C 205.358028 141.17611 212.582903 141.496873 221.101785 138.503078 C 230.375505 135.295439 237.816048 131.446273 244.933089 125.244839 " stroke="#000000" stroke-width="0.1" stroke-opacity="1" stroke-miterlimit="10"/><path stroke-linecap="square" transform="matrix(0.0362247, 0, 0, 0.0365339, 0.326597, 0.732913)" fill-opacity="1" fill="#000000" fill-rule="nonzero" stroke-linejoin="miter" d="M 174.086181 38.317839 C 170.096325 41.311635 163.626288 42.060084 159.097262 44.412352 C 154.460402 46.871541 148.313866 47.61999 143.461338 49.758416 C 139.579316 51.469156 133.001445 51.896841 131.276102 55.852929 C 129.87426 59.167488 133.864117 62.268205 138.393143 62.268205 C 162.87145 62.268205 185.947916 55.852929 208.593046 47.940754 " stroke="#000000" stroke-width="0.1" stroke-opacity="1" stroke-miterlimit="10"/><path stroke-linecap="square" transform="matrix(0.0362247, 0, 0, 0.0365339, 0.326597, 0.732913)" fill-opacity="1" fill="#000000" fill-rule="nonzero" stroke-linejoin="miter" d="M 193.172791 58.205197 C 188.428097 61.626678 177.968204 63.978946 172.253004 65.262001 C 165.998635 66.545057 159.097262 70.18038 154.891738 74.243389 C 162.116612 78.841004 178.183872 77.237185 185.624414 73.388018 C 195.976474 67.935033 207.946043 64.406631 218.51377 59.060567 " stroke="#000000" stroke-width="0.1" stroke-opacity="1" stroke-miterlimit="10"/><path stroke-linecap="square" transform="matrix(0.0362247, 0, 0, 0.0365339, 0.326597, 0.732913)" fill-opacity="1" fill="#000000" fill-rule="nonzero" stroke-linejoin="miter" d="M 229.512833 61.412835 C 221.748789 66.86582 209.887054 70.073459 200.936836 73.922625 C 196.731312 75.847208 178.076038 83.010934 180.448385 88.57084 C 183.144233 95.199959 200.613334 89.640053 205.034526 87.71547 C 213.445574 83.973225 224.444638 78.947925 231.346011 73.388018 " stroke="#000000" stroke-width="0.1" stroke-opacity="1" stroke-miterlimit="10"/><path stroke-linecap="square" transform="matrix(0.0362247, 0, 0, 0.0365339, 0.326597, 0.732913)" fill-opacity="1" fill="#000000" fill-rule="nonzero" stroke-linejoin="miter" d="M 228.542328 83.010934 C 223.797634 87.822391 217.111929 90.816187 212.151567 95.734566 C 210.426224 97.445306 202.985681 104.502111 209.455718 104.502111 C 223.581966 104.502111 236.737708 93.382298 245.79576 85.363202 " stroke="#000000" stroke-width="0.1" stroke-opacity="1" stroke-miterlimit="10"/><path stroke-linecap="square" transform="matrix(0.0362247, 0, 0, 0.0365339, 0.326597, 0.732913)" fill-opacity="1" fill="#000000" fill-rule="nonzero" stroke-linejoin="miter" d="M 253.128469 90.174659 C 249.030779 98.835283 232.208682 102.577528 232.208682 112.841971 C 232.208682 115.728845 242.560742 113.162734 244.178251 112.628128 C 249.354281 111.13123 253.020635 108.565119 256.68699 105.25056 " stroke="#000000" stroke-width="0.1" stroke-opacity="1" stroke-miterlimit="10"/><path stroke-linecap="square" transform="matrix(0.0362247, 0, 0, 0.0365339, 0.326597, 0.732913)" fill-opacity="1" fill="#000000" fill-rule="nonzero" stroke-linejoin="miter" d="M 270.381902 103.646741 C 268.225223 106.854379 256.794824 117.546507 261.32385 120.433381 C 265.205872 122.892571 275.557932 116.904979 278.577282 115.621924 " stroke="#000000" stroke-width="0.1" stroke-opacity="1" stroke-miterlimit="10"/><path stroke-linecap="square" transform="matrix(0.0362247, 0, 0, 0.0365339, 0.326597, 0.732913)" fill-opacity="1" fill="#000000" fill-rule="nonzero" stroke-linejoin="miter" d="M 293.134866 113.269656 C 291.301689 116.584215 286.772663 118.722641 286.772663 122.78565 C 286.772663 126.848658 292.811364 127.81095 296.693387 129.200926 " stroke="#000000" stroke-width="0.1" stroke-opacity="1" stroke-miterlimit="10"/><path stroke-linecap="square" transform="matrix(0.0362247, 0, 0, 0.0365339, 0.326597, 0.732913)" fill-opacity="1" fill="#000000" fill-rule="nonzero" stroke-linejoin="miter" d="M 279.439954 135.616203 C 282.998475 134.54699 285.909991 133.263935 289.468512 134.760833 C 293.350534 136.364652 294.536708 139.358448 290.331183 141.924559 " stroke="#000000" stroke-width="0.1" stroke-opacity="1" stroke-miterlimit="10"/><path stroke-linecap="square" transform="matrix(0.0362247, 0, 0, 0.0365339, 0.326597, 0.732913)" fill-opacity="1" fill="#000000" fill-rule="nonzero" stroke-linejoin="miter" d="M 266.715548 123.64102 C 275.018762 122.357964 280.41046 127.062501 274.048256 132.408565 C 268.656559 136.792337 262.941359 136.364652 255.824318 136.364652 C 248.707277 136.364652 237.816048 137.326944 248.168107 130.37706 C 254.422477 126.314052 260.029842 124.389469 267.686053 124.389469 " stroke="#000000" stroke-width="0.1" stroke-opacity="1" stroke-miterlimit="10"/><path fill="#000000" d="M 7.882812 1.636719 C 8.136719 1.636719 8.394531 1.566406 8.640625 1.667969 C 8.878906 1.765625 9.070312 1.984375 9.230469 2.164062 C 9.113281 1.949219 8.925781 1.636719 8.703125 1.492188 C 8.421875 1.308594 8.136719 1.507812 7.882812 1.636719 " fill-opacity="1" fill-rule="nonzero"/><path fill="#000000" d="M 9.757812 9.441406 C 9.675781 8.824219 10.84375 8.664062 11.335938 8.644531 C 12.21875 8.601562 13.09375 8.554688 13.976562 8.476562 C 14.699219 8.410156 15.515625 8.1875 16.015625 7.703125 C 16.496094 7.234375 16.054688 6.28125 15.417969 6.070312 C 14.71875 5.839844 14.042969 5.621094 13.339844 5.976562 C 13.21875 6.039062 12.992188 6.105469 12.945312 6.234375 C 12.886719 6.382812 13.125 6.484375 13.269531 6.503906 C 13.652344 6.5625 14.015625 6.566406 14.402344 6.539062 C 14.730469 6.519531 15.246094 6.605469 15.300781 6.953125 C 15.363281 7.332031 15.039062 7.585938 14.667969 7.71875 C 14.351562 7.828125 13.882812 7.824219 13.542969 7.871094 C 13.164062 7.921875 12.789062 7.953125 12.410156 7.984375 C 12.066406 8.015625 11.714844 7.988281 11.371094 8.015625 C 11.003906 8.042969 10.65625 8.0625 10.289062 8.125 C 9.515625 8.261719 8.804688 8.769531 8.804688 9.5 C 9.121094 9.480469 9.441406 9.460938 9.757812 9.441406 " fill-opacity="1" fill-rule="nonzero"/><path stroke-linecap="square" transform="matrix(0.0362247, 0, 0, 0.0365339, 0.326597, 0.732913)" fill-opacity="1" fill="#000000" fill-rule="nonzero" stroke-linejoin="miter" d="M 260.353344 238.367552 C 258.088831 221.47399 290.331183 217.090218 303.918262 216.555612 C 328.288735 215.379477 352.443541 214.096422 376.814014 211.957996 C 396.763296 210.140335 419.300592 204.045822 433.103338 190.787583 C 446.366914 177.95703 434.181678 151.868238 416.604743 146.094488 C 397.302465 139.786133 378.647191 133.798541 359.23708 143.528378 C 355.894227 145.239118 349.639858 147.05678 348.34585 150.585182 C 346.728341 154.648191 353.306212 157.428144 357.296069 157.96275 C 367.863796 159.56657 377.892354 159.673491 388.567915 158.925042 C 397.625967 158.390436 411.860049 160.742704 413.369724 170.258698 C 415.095068 180.630062 406.14485 187.579945 395.900624 191.215268 C 387.166074 194.209064 374.225999 194.102143 364.844445 195.385198 C 354.384552 196.775175 344.032492 197.630545 333.572599 198.485915 C 324.083211 199.341286 314.378155 198.592837 304.888767 199.341286 C 294.752375 200.089734 285.155154 200.624341 275.018762 202.335081 C 253.667639 206.077326 234.04186 219.977092 234.04186 239.971372 " stroke="#000000" stroke-width="0.1" stroke-opacity="1" stroke-miterlimit="10"/><path fill="#000000" d="M 11.339844 9.617188 C 11.285156 7.355469 11.230469 5.09375 11.175781 2.832031 C 11.636719 2.839844 12.097656 2.851562 12.558594 2.859375 C 12.511719 4.203125 12.464844 5.546875 12.417969 6.886719 C 12.394531 7.648438 12.367188 8.410156 12.339844 9.175781 C 12.335938 9.3125 12.332031 9.449219 12.328125 9.585938 C 12.328125 9.601562 11.4375 9.613281 11.339844 9.617188 " fill-opacity="1" fill-rule="nonzero"/><path stroke-linecap="square" transform="matrix(0.0362247, 0, 0, 0.0365339, 0.326597, 0.732913)" fill-opacity="1" fill="#000000" fill-rule="nonzero" stroke-linejoin="miter" d="M 304.026095 243.17901 C 302.51642 181.271589 301.006745 119.364169 299.497069 57.456748 C 312.221476 57.67059 324.945882 57.991354 337.670289 58.205197 C 335.51361 119.578011 333.356931 181.057747 331.308086 242.430561 " stroke="#000000" stroke-width="0.1" stroke-opacity="1" stroke-miterlimit="10"/><g clip-path="url(#f2b86fbf37)"><path fill="#000000" d="M 12.261719 11.859375 C 12.210938 13.421875 12.164062 14.984375 12.117188 16.546875 C 12.097656 17.109375 12.082031 17.671875 12.0625 18.238281 C 12.0625 18.300781 11.640625 18.253906 11.605469 18.246094 C 11.546875 18.230469 11.566406 18.171875 11.566406 18.121094 C 11.558594 17.835938 11.550781 17.554688 11.542969 17.269531 C 11.511719 15.988281 11.476562 14.707031 11.445312 13.421875 C 11.433594 12.972656 11.421875 12.519531 11.410156 12.066406 C 11.410156 12.050781 11.394531 11.890625 11.414062 11.886719 C 11.695312 11.878906 11.976562 11.871094 12.261719 11.859375 " fill-opacity="1" fill-rule="nonzero"/><path stroke-linecap="square" transform="matrix(0.0362247, 0, 0, 0.0365339, 0.326597, 0.732913)" fill-opacity="1" fill="#000000" fill-rule="nonzero" stroke-linejoin="miter" d="M 329.474909 304.551824 C 328.073067 347.320336 326.77906 390.088848 325.485052 432.85736 C 324.945882 448.254024 324.514547 463.650688 323.975377 479.154274 C 323.975377 480.865014 312.32931 479.581959 311.358804 479.368116 C 309.741295 478.940431 310.280465 477.336612 310.280465 475.946635 C 310.064797 468.141382 309.849129 460.44305 309.633461 452.637796 C 308.339454 403.560929 307.15328 354.484062 305.859273 305.407195 " stroke="#000000" stroke-width="0.1" stroke-opacity="1" stroke-miterlimit="10"/></g><path stroke-linecap="square" transform="matrix(0.0362247, 0, 0, 0.0365339, 0.326597, 0.732913)" fill-opacity="1" fill="#000000" fill-rule="nonzero" stroke-linejoin="miter" d="M 299.497069 69.431931 C 310.388299 75.20568 325.377218 76.06105 336.699783 70.18038 " stroke="#000000" stroke-width="0.1" stroke-opacity="1" stroke-miterlimit="10"/><g clip-path="url(#ee05ec8f6f)"><path fill="#000000" d="M 11.867188 3.066406 C 12.550781 3.066406 13.117188 2.609375 13.117188 1.988281 C 13.117188 1.316406 12.523438 0.878906 11.796875 0.878906 C 11.15625 0.878906 10.515625 1.460938 10.625 2.050781 C 10.675781 2.316406 10.746094 2.652344 11.035156 2.804688 C 11.175781 2.878906 11.746094 3.21875 11.867188 3.066406 " fill-opacity="1" fill-rule="nonzero"/><path stroke-linecap="square" transform="matrix(0.0362247, 0, 0, 0.0365339, 0.326597, 0.732913)" fill-opacity="1" fill="#000000" fill-rule="nonzero" stroke-linejoin="miter" d="M 318.583679 63.872025 C 337.454621 63.872025 353.090544 51.362235 353.090544 34.361752 C 353.090544 16.933583 337.562455 3.996108 317.936675 3.996108 C 299.604903 3.996108 283.645478 17.788953 283.96898 34.361752 C 284.400316 52.431448 300.036239 61.947442 318.583679 64.620474 " stroke="#000000" stroke-width="0.1" stroke-opacity="1" stroke-miterlimit="10"/></g><path fill="#000000" d="M 12.6875 14.917969 C 13.074219 14.496094 13.140625 13.847656 12.753906 13.402344 C 12.304688 12.882812 11.515625 12.796875 11.035156 12.308594 C 10.761719 12.035156 10.550781 11.746094 10.976562 11.480469 C 11.316406 11.269531 11.757812 11.222656 12.148438 11.152344 C 12.863281 11.019531 13.617188 10.894531 14.214844 10.5 C 14.539062 10.285156 14.792969 10.050781 14.933594 9.703125 C 15.085938 9.328125 14.957031 9.058594 14.75 8.71875 C 14.433594 8.199219 13.367188 7.988281 12.761719 7.988281 C 12.074219 7.988281 11.3125 7.988281 10.632812 7.890625 C 10.214844 7.835938 9.800781 7.765625 9.378906 7.734375 C 9.035156 7.707031 8.648438 7.496094 8.550781 7.1875 C 8.253906 6.277344 9.765625 6.589844 10.28125 6.511719 C 10.53125 6.476562 11.148438 6.367188 10.777344 6.066406 C 10.566406 5.890625 10.074219 5.746094 9.789062 5.746094 C 9.042969 5.746094 8.316406 5.960938 7.851562 6.488281 C 7.632812 6.742188 7.527344 7.074219 7.640625 7.375 C 7.78125 7.746094 8.074219 7.914062 8.453125 8.089844 C 9.859375 8.742188 11.613281 8.355469 13.101562 8.699219 C 13.375 8.765625 13.960938 8.882812 14.007812 9.199219 C 14.066406 9.605469 13.804688 9.816406 13.460938 10.050781 C 12.867188 10.457031 11.929688 10.496094 11.222656 10.628906 C 10.765625 10.714844 10.054688 10.972656 9.851562 11.378906 C 9.59375 11.886719 9.738281 12.453125 10.292969 12.769531 C 10.75 13.027344 11.210938 13.265625 11.667969 13.519531 C 11.894531 13.644531 12 13.785156 12.179688 13.941406 C 12.289062 14.039062 12.167969 14.542969 12.160156 14.683594 C 12.296875 14.695312 12.671875 14.929688 12.6875 14.917969 " fill-opacity="1" fill-rule="nonzero"/><path stroke-linecap="square" transform="matrix(0.0362247, 0, 0, 0.0365339, 0.326597, 0.732913)" fill-opacity="1" fill="#000000" fill-rule="nonzero" stroke-linejoin="miter" d="M 341.228809 388.271186 C 351.904371 376.723688 353.737548 358.974756 343.061987 346.78573 C 330.661082 332.5652 308.878623 330.212931 295.615047 316.847772 C 288.06667 309.363282 282.243637 301.451107 293.997538 294.18046 C 303.379092 288.406711 315.564329 287.123656 326.347724 285.199073 C 346.081337 281.563749 366.89329 278.142268 383.391885 267.343219 C 392.342104 261.462549 399.35131 255.047272 403.233333 245.531278 C 407.438857 235.266835 403.880337 227.889267 398.165137 218.587116 C 389.430587 204.366586 359.991917 198.592837 343.277655 198.592837 C 324.298879 198.592837 303.271258 198.592837 284.50815 195.919805 C 272.969917 194.422907 261.539518 192.498324 249.893451 191.642953 C 240.404063 190.894504 229.728501 185.120755 227.032653 176.673974 C 218.837272 151.761316 260.569012 160.315019 274.803094 158.176593 C 281.704467 157.214301 298.742232 154.220506 288.498006 145.987567 C 282.674973 141.17611 269.087894 137.220022 261.216016 137.220022 C 240.619731 137.220022 220.562615 143.100693 207.730375 157.535065 C 201.691673 164.484948 198.780157 173.573257 201.907341 181.806196 C 205.789364 191.963717 213.87691 196.561332 224.336804 201.37279 C 263.157027 219.228643 311.574472 208.643437 352.659209 218.052509 C 360.207585 219.870171 376.382678 223.07781 377.676686 231.738433 C 379.294195 242.858246 372.06932 248.631995 362.579932 255.047272 C 346.189171 266.167085 320.309022 267.236298 300.791077 270.871621 C 288.174504 273.22389 268.548725 280.280694 262.941359 291.400507 C 255.824318 305.300273 259.814174 320.803859 275.126596 329.464482 C 287.743168 336.521287 300.467575 343.043485 313.084148 349.993368 C 319.338517 353.414849 322.250034 357.264015 327.210395 361.540866 C 330.229746 364.213898 326.886894 378.006743 326.671226 381.855909 C 331.847256 382.176673 337.454621 385.918918 341.228809 389.019635 " stroke="#000000" stroke-width="0.1" stroke-opacity="1" stroke-miterlimit="10"/><path fill="#000000" d="M 12.097656 17.945312 C 12.269531 18.027344 12.492188 17.84375 12.492188 17.691406 C 12.492188 17.484375 12.457031 17.355469 12.253906 17.234375 C 11.90625 17.027344 11.574219 16.875 11.273438 16.605469 C 11.191406 16.742188 11.074219 16.917969 11.074219 17.070312 C 11.074219 17.289062 11.125 17.34375 11.257812 17.515625 C 11.304688 17.582031 11.578125 17.671875 11.667969 17.714844 C 11.808594 17.777344 11.949219 17.859375 12.097656 17.945312 " fill-opacity="1" fill-rule="nonzero"/><path fill="#000000" d="M 12.097656 17.945312 C 12.269531 18.027344 12.492188 17.84375 12.492188 17.691406 C 12.492188 17.484375 12.457031 17.355469 12.253906 17.234375 C 11.90625 17.027344 11.574219 16.875 11.273438 16.605469 C 11.191406 16.742188 11.074219 16.917969 11.074219 17.070312 C 11.074219 17.289062 11.125 17.34375 11.257812 17.515625 C 11.304688 17.582031 11.578125 17.671875 11.667969 17.714844 C 11.808594 17.777344 11.949219 17.859375 12.097656 17.945312 " fill-opacity="1" fill-rule="nonzero"/><g clip-path="url(#e1226a80c9)"><path stroke-linecap="square" transform="matrix(0.0362247, 0, 0, 0.0365339, 0.326597, 0.732913)" fill="none" stroke-linejoin="miter" d="M 324.945882 471.135178 C 329.690576 473.380524 335.837112 468.355224 335.837112 464.185294 C 335.837112 458.518467 334.866606 454.990064 329.259241 451.675505 C 319.662019 446.008677 310.496133 441.838747 302.192918 434.461179 C 299.928405 438.203424 296.693387 443.014881 296.693387 447.184811 C 296.693387 453.172403 298.095228 454.669301 301.761582 459.373837 C 303.05559 461.191499 310.603967 463.650688 313.084148 464.826822 C 316.96617 466.537563 320.848192 468.782909 324.945882 471.135178 " stroke="#000000" stroke-width="0.1" stroke-opacity="1" stroke-miterlimit="10"/></g><path fill="#000000" d="M 9.859375 6.007812 C 9.871094 6.023438 9.84375 6.046875 9.890625 6.035156 C 10.050781 5.878906 9.636719 5.925781 9.824219 6.035156 C 9.867188 6.042969 9.847656 6.027344 9.859375 6.007812 " fill-opacity="1" fill-rule="nonzero"/><path fill="#000000" d="M 14.070312 6.066406 C 14.203125 6.078125 14.1875 5.984375 14.105469 5.976562 C 14.019531 5.96875 13.949219 6.054688 14.070312 6.066406 " fill-opacity="1" fill-rule="nonzero"/><path fill="#000000" d="M 12.722656 2.015625 C 12.910156 2.296875 12.367188 2.707031 12.128906 2.804688 C 12.386719 2.773438 12.492188 2.65625 12.664062 2.503906 C 12.753906 2.425781 12.859375 2.070312 12.722656 2.015625 " fill-opacity="1" fill-rule="nonzero"/><path fill="#000000" d="M 11.40625 11.890625 C 11.386719 11.308594 11.371094 10.730469 11.355469 10.152344 C 11.351562 10.09375 11.308594 9.617188 11.363281 9.617188 C 11.683594 9.605469 12.003906 9.597656 12.328125 9.589844 C 12.308594 10.148438 12.292969 10.710938 12.277344 11.269531 C 12.273438 11.367188 12.335938 11.785156 12.261719 11.859375 C 12.21875 11.902344 11.894531 11.871094 11.832031 11.875 C 11.691406 11.878906 11.546875 11.882812 11.40625 11.890625 " fill-opacity="1" fill-rule="nonzero"/><path stroke-linecap="square" transform="matrix(0.0362247, 0, 0, 0.0365339, 0.326597, 0.732913)" fill-opacity="1" fill="#000000" fill-rule="nonzero" stroke-linejoin="miter" d="M 331.308086 241.575191 L 329.474909 304.551824 " stroke="#000000" stroke-width="0.1" stroke-opacity="1" stroke-miterlimit="10"/><path stroke-linecap="square" transform="matrix(0.0362247, 0, 0, 0.0365339, 0.326597, 0.732913)" fill-opacity="1" fill="#000000" fill-rule="nonzero" stroke-linejoin="miter" d="M 305.859273 305.407195 L 304.026095 243.17901 " stroke="#000000" stroke-width="0.1" stroke-opacity="1" stroke-miterlimit="10"/><path fill="#000000" d="M 14.105469 11.832031 C 13.871094 10.800781 12.570312 10.613281 11.570312 10.460938 C 11.019531 10.378906 10.605469 10.265625 10.160156 9.953125 C 10.101562 9.914062 9.726562 9.445312 9.753906 9.441406 C 9.4375 9.460938 9.121094 9.480469 8.804688 9.5 C 8.886719 9.75 8.945312 9.953125 9.140625 10.152344 C 9.332031 10.347656 9.535156 10.496094 9.777344 10.636719 C 10.234375 10.90625 10.839844 11.039062 11.371094 11.128906 C 11.835938 11.203125 12.433594 11.238281 12.820312 11.496094 C 12.914062 11.558594 13.019531 11.601562 13.058594 11.707031 C 13.097656 11.8125 13.082031 11.859375 13.210938 11.859375 C 13.347656 11.859375 14.070312 11.917969 14.105469 11.832031 " fill-opacity="1" fill-rule="nonzero"/><path stroke-linecap="square" transform="matrix(0.0362247, 0, 0, 0.0365339, 0.326597, 0.732913)" fill-opacity="1" fill="#000000" fill-rule="nonzero" stroke-linejoin="miter" d="M 234.04186 239.971372 C 237.708214 251.305027 242.992078 259.751808 253.991141 267.129377 C 264.235367 273.865417 277.175441 278.356111 289.468512 281.456828 C 308.662955 286.268286 345.650002 284.878309 353.090544 304.551824 " stroke="#000000" stroke-width="0.1" stroke-opacity="1" stroke-miterlimit="10"/><path stroke-linecap="square" transform="matrix(0.0362247, 0, 0, 0.0365339, 0.326597, 0.732913)" fill-opacity="1" fill="#000000" fill-rule="nonzero" stroke-linejoin="miter" d="M 380.372535 303.803375 C 368.618634 252.37424 280.949629 283.595254 260.353344 238.367552 " stroke="#000000" stroke-width="0.1" stroke-opacity="1" stroke-miterlimit="10"/><path fill="#000000" d="M 12.128906 15.703125 C 12.324219 15.476562 11.507812 15.316406 11.339844 15.238281 C 11.089844 15.121094 10.71875 14.882812 10.667969 14.625 C 10.636719 14.453125 10.765625 14.453125 10.9375 14.375 C 11.113281 14.292969 11.292969 14.214844 11.46875 14.132812 C 11.347656 14.433594 11.625 14.496094 11.890625 14.574219 C 12.175781 14.660156 12.394531 14.789062 12.65625 14.902344 C 12.859375 14.992188 12.996094 15.328125 12.984375 15.527344 C 12.976562 15.726562 12.859375 15.679688 12.660156 15.683594 C 12.484375 15.691406 12.304688 15.703125 12.128906 15.703125 " fill-opacity="1" fill-rule="nonzero"/><path stroke-linecap="square" transform="matrix(0.0362247, 0, 0, 0.0365339, 0.326597, 0.732913)" fill-opacity="1" fill="#000000" fill-rule="nonzero" stroke-linejoin="miter" d="M 348.561518 409.013914 C 355.139389 398.856393 341.228809 388.485029 333.141263 384.315099 C 327.102562 381.10746 321.495196 379.824405 314.917325 377.899822 C 308.555122 375.975239 305.212269 372.553758 307.584616 366.780009 " stroke="#000000" stroke-width="0.1" stroke-opacity="1" stroke-miterlimit="10"/><path stroke-linecap="square" transform="matrix(0.0362247, 0, 0, 0.0365339, 0.326597, 0.732913)" fill-opacity="1" fill="#000000" fill-rule="nonzero" stroke-linejoin="miter" d="M 325.808554 409.762363 C 329.582742 405.378591 317.181838 400.246369 312.652812 400.246369 C 300.791077 400.246369 286.664829 386.132761 284.939486 377.151373 " stroke="#000000" stroke-width="0.1" stroke-opacity="1" stroke-miterlimit="10"/><path fill="#000000" d="M 10.8125 16.054688 C 10.917969 16.65625 11.773438 17.03125 12.328125 17.277344 C 12.375 17.117188 12.492188 17.050781 12.492188 16.863281 C 12.492188 16.644531 12.214844 16.519531 12.03125 16.433594 C 11.839844 16.339844 11.703125 16.1875 11.535156 16.082031 C 11.4375 16.019531 11.417969 16.027344 11.261719 16.035156 C 11.109375 16.039062 10.960938 16.046875 10.8125 16.054688 " fill-opacity="1" fill-rule="nonzero"/><path stroke-linecap="square" transform="matrix(0.0362247, 0, 0, 0.0365339, 0.326597, 0.732913)" fill-opacity="1" fill="#000000" fill-rule="nonzero" stroke-linejoin="miter" d="M 289.468512 419.385278 C 292.380028 435.851155 315.995664 446.115598 331.308086 452.851639 C 332.170757 450.071686 335.837112 448.254024 335.837112 445.046385 C 335.837112 439.700321 334.650938 437.454975 330.33758 433.71273 C 323.867543 427.938981 312.113642 426.869768 308.555122 418.529908 " stroke="#000000" stroke-width="0.1" stroke-opacity="1" stroke-miterlimit="10"/></g></g></g></g></svg>