<svg xmlns="http://www.w3.org/2000/svg" xmlns:xlink="http://www.w3.org/1999/xlink" width="40" zoomAndPan="magnify" viewBox="0 0 30 30.000001" height="40" preserveAspectRatio="xMidYMid meet" version="1.0"><defs><filter x="0%" y="0%" width="100%" height="100%" id="4abe386783"><feColorMatrix values="0 0 0 0 1 0 0 0 0 1 0 0 0 0 1 0 0 0 1 0" color-interpolation-filters="sRGB"/></filter><clipPath id="90c09947cd"><path d="M 3.386719 5.878906 L 26.613281 5.878906 L 26.613281 23.296875 L 3.386719 23.296875 Z M 3.386719 5.878906 " clip-rule="nonzero"/></clipPath><mask id="37711b6fb9"><g filter="url(#4abe386783)"><rect x="-3" width="36" fill="#000000" y="-3" height="36.000001" fill-opacity="0.749"/></g></mask><clipPath id="3ea4dfa1b6"><path d="M 0.386719 1 L 23.496094 1 L 23.496094 7 L 0.386719 7 Z M 0.386719 1 " clip-rule="nonzero"/></clipPath><clipPath id="7d3ff7c67b"><path d="M 18 3 L 23.496094 3 L 23.496094 4 L 18 4 Z M 18 3 " clip-rule="nonzero"/></clipPath><clipPath id="a9b15b367c"><path d="M 18 2 L 23.496094 2 L 23.496094 4 L 18 4 Z M 18 2 " clip-rule="nonzero"/></clipPath><clipPath id="bd54985aa2"><path d="M 0.386719 3 L 6 3 L 6 4 L 0.386719 4 Z M 0.386719 3 " clip-rule="nonzero"/></clipPath><clipPath id="bf6197718d"><path d="M 0.386719 2 L 6 2 L 6 4 L 0.386719 4 Z M 0.386719 2 " clip-rule="nonzero"/></clipPath><clipPath id="460f9e7f3e"><path d="M 11 11 L 13 11 L 13 18.296875 L 11 18.296875 Z M 11 11 " clip-rule="nonzero"/></clipPath><clipPath id="21aa09e1a5"><path d="M 10 0.878906 L 14 0.878906 L 14 4 L 10 4 Z M 10 0.878906 " clip-rule="nonzero"/></clipPath><clipPath id="a02b810bad"><path d="M 11 16 L 13 16 L 13 18.296875 L 11 18.296875 Z M 11 16 " clip-rule="nonzero"/></clipPath><clipPath id="3e85fbc299"><rect x="0" width="24" y="0" height="19"/></clipPath></defs><g clip-path="url(#90c09947cd)"><g mask="url(#37711b6fb9)"><g transform="matrix(1, 0, 0, 1, 3, 5)"><g clip-path="url(#3e85fbc299)"><path fill="#ffffff" d="M 17.265625 4.492188 C 17.054688 3.730469 16.847656 2.96875 16.640625 2.203125 C 16.601562 2.066406 16.5625 1.925781 16.523438 1.785156 C 16.496094 1.679688 16.339844 1.667969 16.238281 1.609375 C 15.964844 1.464844 15.585938 1.289062 15.265625 1.289062 C 14.984375 1.289062 14.625 1.652344 14.417969 1.804688 C 14.136719 2.011719 14 2.332031 13.910156 2.640625 C 13.828125 2.9375 14.042969 3.230469 13.890625 3.546875 C 13.746094 3.84375 13.386719 4.066406 13.054688 4.179688 C 12.332031 4.417969 11.566406 4.429688 10.84375 4.171875 C 10.53125 4.058594 10.171875 3.882812 9.988281 3.617188 C 9.789062 3.332031 9.890625 2.996094 9.890625 2.679688 C 9.890625 2.34375 9.710938 2.074219 9.472656 1.824219 C 9.382812 1.726562 9.214844 1.601562 9.101562 1.523438 C 9.027344 1.472656 8.714844 1.257812 8.640625 1.257812 C 8.28125 1.257812 7.941406 1.378906 7.636719 1.542969 C 7.589844 1.566406 7.324219 1.6875 7.316406 1.710938 C 7.285156 1.839844 7.253906 1.96875 7.21875 2.097656 C 7.097656 2.574219 6.976562 3.054688 6.851562 3.535156 C 6.800781 3.734375 6.75 3.933594 6.699219 4.132812 C 6.6875 4.1875 6.609375 4.347656 6.628906 4.40625 C 6.660156 4.476562 6.875 4.574219 6.9375 4.621094 C 7.167969 4.785156 7.402344 4.945312 7.632812 5.109375 C 7.773438 5.210938 8.09375 5.542969 8.285156 5.539062 C 10.132812 5.535156 11.984375 5.527344 13.835938 5.519531 C 14.640625 5.519531 15.445312 5.515625 16.25 5.511719 C 16.464844 5.511719 16.460938 5.527344 16.589844 5.367188 C 16.742188 5.175781 16.894531 4.984375 17.046875 4.792969 C 17.117188 4.707031 17.242188 4.597656 17.265625 4.492188 " fill-opacity="1" fill-rule="nonzero"/><path stroke-linecap="square" transform="matrix(0.0362247, 0, 0, 0.0365339, 0.326597, 0.732899)" fill-opacity="1" fill="#ffffff" fill-rule="nonzero" stroke-linejoin="miter" d="M 467.610203 102.898699 C 461.78717 82.049046 456.07197 61.199392 450.356771 40.242818 C 449.278431 36.500572 448.200091 32.651405 447.121752 28.802239 C 446.366914 25.915363 442.053556 25.5946 439.249873 23.99078 C 431.701497 20.034692 421.241603 15.223233 412.399219 15.223233 C 404.635174 15.223233 394.71445 25.166914 388.999251 29.336845 C 381.235206 35.003674 377.461018 43.771221 374.980837 52.218003 C 372.716324 60.344022 378.647191 68.363119 374.441667 77.023745 C 370.451811 85.149764 360.531087 91.244278 351.365201 94.344995 C 331.41592 100.867195 310.280465 101.187958 290.331183 94.131153 C 281.704467 91.030435 271.783743 86.218977 266.715548 78.948328 C 261.216016 71.143073 264.019699 61.947841 264.019699 53.287216 C 264.019699 44.091984 259.059337 36.714415 252.481466 29.871452 C 250.001285 27.198419 245.364425 23.776937 242.23724 21.638511 C 240.188395 20.248535 231.561679 14.367863 229.512833 14.367863 C 219.59211 14.367863 210.210556 17.682423 201.799507 22.173118 C 200.5055 22.814646 193.172791 26.129206 192.957123 26.770734 C 192.094452 30.299137 191.23178 33.82754 190.261274 37.355943 C 186.918422 50.400341 183.575569 63.551661 180.124883 76.702981 C 178.723041 82.155967 177.3212 87.608953 175.919359 93.06194 C 175.595857 94.558838 173.439178 98.942611 173.978347 100.546431 C 174.841019 102.471014 180.771886 105.144047 182.49723 106.427102 C 188.859433 110.917797 195.32947 115.30157 201.691673 119.792265 C 205.573696 122.572218 214.41608 131.660529 219.699944 131.553608 C 270.705404 131.446686 321.818698 131.232844 372.931992 131.019001 C 394.930118 131.019001 416.820411 130.91208 438.818538 130.805158 C 443.131896 130.805158 445.072907 131.660529 447.445254 128.666732 C 454.238793 120.326871 460.924498 111.98701 467.610203 103.647148 " stroke="#000000" stroke-width="0.1" stroke-opacity="1" stroke-miterlimit="10"/><g clip-path="url(#3ea4dfa1b6)"><path fill="#ffffff" d="M 11.601562 6.296875 C 11.300781 6.066406 10.773438 6.078125 10.402344 6.121094 C 9.976562 6.167969 9.515625 6.121094 9.085938 6.121094 C 8.652344 6.121094 8.214844 6.113281 7.785156 6.09375 C 7.558594 6.082031 6.554688 6.011719 6.960938 5.65625 C 6.5625 5.832031 5.515625 5.839844 5.578125 5.25 C 5.242188 5.332031 4.902344 5.367188 4.554688 5.308594 C 4.328125 5.265625 3.664062 5.085938 3.929688 4.78125 C 3.601562 4.765625 1.898438 4.636719 2.515625 4.027344 C 2.191406 3.984375 1.832031 3.882812 1.539062 3.753906 C 1.242188 3.625 0.894531 3.523438 0.652344 3.308594 C 0.519531 3.191406 0.394531 3.082031 0.632812 2.996094 C 0.835938 2.925781 1.03125 2.917969 1.25 2.917969 C 1.660156 2.917969 2.058594 2.9375 2.46875 2.921875 C 4 2.867188 5.464844 2.519531 6.828125 1.914062 C 6.992188 1.84375 7.15625 1.769531 7.320312 1.695312 C 7.078125 1.972656 7.5625 2.152344 7.796875 2.1875 C 8.066406 2.226562 8.351562 2.179688 8.605469 2.105469 C 8.605469 2.316406 8.585938 2.496094 8.769531 2.65625 C 8.890625 2.761719 9.171875 2.8125 9.332031 2.746094 C 9.375 3.0625 9.398438 3.402344 9.589844 3.679688 C 9.800781 3.988281 10.054688 4.214844 10.398438 4.40625 C 10.90625 4.683594 11.800781 4.789062 12.328125 4.726562 C 12.921875 4.652344 13.8125 4.425781 14.109375 3.898438 C 14.300781 3.5625 14.398438 3.253906 14.453125 2.882812 C 14.476562 2.730469 14.65625 2.832031 14.796875 2.804688 C 14.9375 2.773438 15.117188 2.671875 15.167969 2.546875 C 15.21875 2.40625 15.21875 2.308594 15.191406 2.164062 C 15.617188 2.226562 16.695312 2.386719 16.507812 1.726562 C 17.207031 2.035156 17.902344 2.320312 18.640625 2.554688 C 19.355469 2.78125 20.148438 2.859375 20.902344 2.921875 C 21.277344 2.953125 21.664062 2.984375 22.039062 2.976562 C 22.40625 2.96875 22.847656 2.902344 23.199219 3.027344 C 23.609375 3.171875 22.882812 3.539062 22.730469 3.617188 C 22.449219 3.765625 22.117188 3.851562 21.808594 3.9375 C 21.640625 3.984375 21.488281 4.023438 21.3125 4.054688 C 21.589844 4.308594 21.289062 4.570312 21.015625 4.660156 C 20.652344 4.78125 20.28125 4.792969 19.898438 4.8125 C 20.164062 5.113281 19.492188 5.304688 19.265625 5.332031 C 18.898438 5.378906 18.578125 5.359375 18.21875 5.277344 C 18.386719 5.554688 17.886719 5.722656 17.6875 5.792969 C 17.445312 5.878906 17.082031 5.78125 16.871094 5.6875 C 17.019531 5.925781 16.886719 5.964844 16.632812 6.054688 C 16.441406 6.125 16.160156 6.109375 15.957031 6.128906 C 15.449219 6.167969 14.925781 6.179688 14.417969 6.179688 C 13.941406 6.179688 13.464844 6.152344 12.988281 6.152344 C 12.769531 6.152344 12.53125 6.160156 12.328125 6.238281 C 12.191406 6.292969 12.214844 6.328125 12.0625 6.320312 C 11.90625 6.3125 11.753906 6.304688 11.601562 6.296875 " fill-opacity="1" fill-rule="nonzero"/><path stroke-linecap="square" transform="matrix(0.0362247, 0, 0, 0.0365339, 0.326597, 0.732899)" fill-opacity="1" fill="#ffffff" fill-rule="nonzero" stroke-linejoin="miter" d="M 311.25097 152.29634 C 302.947756 145.987983 288.390172 146.308747 278.145947 147.484881 C 266.392046 148.767937 253.667639 147.484881 241.805904 147.484881 C 229.836335 147.484881 217.758933 147.271039 205.897198 146.736432 C 199.642828 146.415668 171.929502 144.491085 183.144233 134.761247 C 172.14517 139.572705 143.245671 139.786548 144.971014 123.641431 C 135.697294 125.886779 126.31574 126.84907 116.718518 125.245251 C 110.464149 124.069117 92.132377 119.150737 99.465085 110.810875 C 90.407033 110.38319 43.39143 106.854787 60.429194 90.175065 C 51.478976 88.99893 41.558252 86.218977 33.470706 82.690574 C 25.275325 79.162171 15.678103 76.382217 8.992398 70.501545 C 5.326044 67.293906 1.875357 64.30011 8.453229 61.947841 C 14.060594 60.023258 19.452292 59.809415 25.490993 59.809415 C 36.813558 59.809415 47.812622 60.344022 59.135187 59.916337 C 101.406097 58.419439 141.843829 48.903443 179.477879 32.330641 C 184.006905 30.406058 188.535931 28.374553 193.064957 26.343049 C 186.379252 33.934461 199.750662 38.852841 206.2207 39.815132 C 213.661242 40.884345 221.533121 39.60129 228.542328 37.569785 C 228.542328 43.343535 228.003158 48.261915 233.071354 52.645688 C 236.414207 55.532563 244.178251 56.92254 248.599443 55.104878 C 249.785617 63.765504 250.432621 73.067657 255.716484 80.659069 C 261.539518 89.105852 268.548725 95.307287 278.038113 100.546431 C 292.056527 108.137843 316.750502 111.024718 331.308086 109.313977 C 347.698847 107.282473 372.284988 101.081037 380.480369 86.646662 C 385.764232 77.45143 388.460081 69.004647 389.969757 58.847124 C 390.61676 54.677193 395.577122 57.457147 399.459144 56.708698 C 403.341167 55.853327 408.301529 53.073374 409.70337 49.651892 C 411.105211 45.802725 411.105211 43.129693 410.350374 39.173605 C 422.104275 40.884345 451.866446 45.268119 446.690416 27.198419 C 465.992694 35.645202 485.187138 43.450457 505.567755 49.865735 C 525.301368 56.06717 547.191661 58.205596 568.003614 59.916337 C 578.355674 60.771707 589.031235 61.627078 599.383294 61.413235 C 609.519686 61.199392 621.704923 59.38173 631.409979 62.803212 C 642.732544 66.7593 622.675428 76.809902 618.469904 78.948328 C 610.70586 83.011338 601.539974 85.363606 593.021091 87.715875 C 588.384231 88.99893 584.178707 90.068143 579.326179 90.923514 C 586.98239 97.873398 578.679175 105.037125 571.130799 107.496315 C 561.102241 110.810875 550.858015 111.131639 540.290288 111.666246 C 547.622997 119.899186 529.075557 125.13833 522.821187 125.886779 C 512.684796 127.169834 503.842412 126.635228 493.921688 124.389881 C 498.558548 131.981293 484.755802 136.578909 479.25627 138.503492 C 472.570565 140.855761 462.542007 138.182728 456.718974 135.616617 C 460.816664 142.138816 457.15031 143.208029 450.141103 145.667219 C 444.857239 147.591803 437.093194 147.164117 431.485829 147.698724 C 417.467415 148.767937 403.017665 149.088701 388.999251 149.088701 C 375.843509 149.088701 362.687766 148.340252 349.532024 148.340252 C 343.493322 148.340252 336.915451 148.554094 331.308086 150.69252 C 327.533897 152.189418 328.180901 153.15171 323.975377 152.937868 C 319.662019 152.724025 315.456495 152.510182 311.25097 152.29634 " stroke="#000000" stroke-width="0.1" stroke-opacity="1" stroke-miterlimit="10"/></g><path fill="#ffffff" d="M 11.4375 14.101562 C 11.550781 14.113281 11.597656 13.933594 11.667969 13.867188 C 11.785156 13.757812 11.945312 13.675781 12.089844 13.59375 C 12.359375 13.429688 12.644531 13.246094 12.933594 13.121094 C 13.246094 12.980469 13.535156 12.855469 13.773438 12.617188 C 13.84375 12.550781 14.277344 11.859375 14.078125 11.859375 L 13.371094 11.859375 C 13.074219 11.859375 13.183594 11.863281 13.050781 12.054688 C 12.859375 12.335938 12.582031 12.550781 12.261719 12.703125 C 11.625 13.003906 11.058594 13.285156 10.722656 13.878906 C 10.613281 14.074219 10.648438 14.296875 10.648438 14.511719 C 10.921875 14.382812 11.195312 14.257812 11.46875 14.132812 C 11.460938 14.121094 11.449219 14.113281 11.4375 14.101562 " fill-opacity="1" fill-rule="nonzero"/><path stroke-linecap="square" transform="matrix(0.0362247, 0, 0, 0.0365339, 0.326597, 0.732899)" fill-opacity="1" fill="#ffffff" fill-rule="nonzero" stroke-linejoin="miter" d="M 352.227873 303.803821 C 352.227873 321.018151 326.994728 327.754193 313.084148 334.810998 C 305.751439 338.553244 296.262051 345.61005 291.948693 352.025328 C 285.909991 360.685953 284.939486 367.101231 284.939486 377.151833 " stroke="#000000" stroke-width="0.1" stroke-opacity="1" stroke-miterlimit="10"/><path stroke-linecap="square" transform="matrix(0.0362247, 0, 0, 0.0365339, 0.326597, 0.732899)" fill-opacity="1" fill="#ffffff" fill-rule="nonzero" stroke-linejoin="miter" d="M 306.721944 365.925097 C 309.849129 366.24586 311.143136 361.327481 313.084148 359.509819 C 316.103498 356.729865 320.309022 354.484517 323.975377 352.346091 C 331.41592 348.283082 338.964296 343.043938 346.728341 339.622457 C 363.550438 332.244887 380.372535 322.942734 380.372535 304.552271 " stroke="#000000" stroke-width="0.1" stroke-opacity="1" stroke-miterlimit="10"/><path fill="#ffffff" d="M 11.503906 16.023438 C 11.488281 15.753906 11.898438 15.441406 12.097656 15.265625 C 11.910156 15.1875 11.722656 15.109375 11.535156 15.03125 C 11.402344 14.976562 11.289062 15.191406 11.199219 15.273438 C 10.996094 15.453125 10.785156 15.792969 10.8125 16.054688 C 11.042969 16.042969 11.273438 16.035156 11.503906 16.023438 " fill-opacity="1" fill-rule="nonzero"/><path stroke-linecap="square" transform="matrix(0.0362247, 0, 0, 0.0365339, 0.326597, 0.732899)" fill-opacity="1" fill="#ffffff" fill-rule="nonzero" stroke-linejoin="miter" d="M 308.555122 418.530376 C 308.123786 411.152806 319.446351 402.599102 324.945882 397.787644 C 319.769853 395.649218 314.593823 393.510792 309.417793 391.372366 C 305.751439 389.875468 302.624254 395.756139 300.144073 398.001486 C 294.536708 402.919866 288.713674 412.222019 289.468512 419.385746 " stroke="#000000" stroke-width="0.1" stroke-opacity="1" stroke-miterlimit="10"/><path fill="#ffffff" d="M 12.097656 16.433594 C 12.441406 16.390625 12.742188 16.144531 12.886719 15.878906 C 12.992188 15.679688 12.957031 15.675781 12.730469 15.617188 C 12.449219 15.546875 12.164062 15.476562 11.878906 15.402344 C 11.761719 15.375 11.6875 15.546875 11.660156 15.648438 C 11.628906 15.757812 11.453125 15.972656 11.46875 16.082031 C 11.488281 16.179688 11.675781 16.25 11.773438 16.277344 C 11.863281 16.304688 12.101562 16.480469 12.097656 16.433594 " fill-opacity="1" fill-rule="nonzero"/><path stroke-linecap="square" transform="matrix(0.0362247, 0, 0, 0.0365339, 0.326597, 0.732899)" fill-opacity="1" fill="#ffffff" fill-rule="nonzero" stroke-linejoin="miter" d="M 324.945882 429.757112 C 333.788267 428.580978 350.718197 418.209612 348.561518 409.01438 " stroke="#000000" stroke-width="0.1" stroke-opacity="1" stroke-miterlimit="10"/><g clip-path="url(#7d3ff7c67b)"><path fill="#ffffff" d="M 20.0625 3.035156 C 20.703125 3.175781 21.429688 3.253906 22.085938 3.183594 C 22.21875 3.167969 22.9375 3.070312 23.027344 3.152344 C 23.1875 3.300781 22.433594 3.597656 22.320312 3.640625 C 22.09375 3.726562 21.800781 3.851562 21.550781 3.851562 L 20.511719 3.851562 C 20.183594 3.851562 19.824219 3.757812 19.5 3.699219 C 19.261719 3.65625 18.757812 3.621094 18.582031 3.472656 " fill-opacity="1" fill-rule="nonzero"/></g><g clip-path="url(#a9b15b367c)"><path stroke-linecap="square" transform="matrix(0.0362247, 0, 0, 0.0365339, 0.326597, 0.732899)" fill="none" stroke-linejoin="miter" d="M 544.819314 63.017054 C 562.504082 66.866221 582.561198 69.004647 600.677302 67.080064 C 604.343656 66.652379 624.185104 63.979346 626.665285 66.224693 C 631.086477 70.287703 610.274524 78.413722 607.147339 79.589856 C 600.89297 81.942125 592.805423 85.363606 585.90405 85.363606 L 557.220219 85.363606 C 548.162167 85.363606 538.241443 82.797495 529.291225 81.193675 C 522.713353 80.017541 508.802773 79.055249 503.950246 74.99224 " stroke="#000000" stroke-width="0.1" stroke-opacity="1" stroke-miterlimit="10"/></g><path stroke-linecap="square" transform="matrix(0.0362247, 0, 0, 0.0365339, 0.326597, 0.732899)" fill-opacity="1" fill="#ffffff" fill-rule="nonzero" stroke-linejoin="miter" d="M 479.471938 87.715875 C 488.098654 94.77268 504.597249 97.873398 515.380645 101.508722 C 527.673715 105.571732 542.015631 106.106338 555.06354 106.106338 C 560.670905 106.106338 567.680112 103.647148 572.316972 100.867195 C 579.218345 96.804185 573.287478 91.778884 567.033108 91.778884 C 552.799027 91.778884 539.751118 88.99893 525.732704 86.967426 " stroke="#000000" stroke-width="0.1" stroke-opacity="1" stroke-miterlimit="10"/><path stroke-linecap="square" transform="matrix(0.0362247, 0, 0, 0.0365339, 0.326597, 0.732899)" fill-opacity="1" fill="#ffffff" fill-rule="nonzero" stroke-linejoin="miter" d="M 475.805584 96.483421 C 483.785296 100.760273 492.519846 103.219463 501.362231 105.892496 C 505.891257 107.175551 510.420283 108.458607 514.841475 110.062426 C 518.184327 111.238561 525.0857 111.773167 527.565881 114.018514 C 535.114258 120.754556 513.116132 120.647635 509.449777 120.433792 C 500.607393 119.899186 494.029522 116.798468 485.726307 114.873885 " stroke="#000000" stroke-width="0.1" stroke-opacity="1" stroke-miterlimit="10"/><path stroke-linecap="square" transform="matrix(0.0362247, 0, 0, 0.0365339, 0.326597, 0.732899)" fill-opacity="1" fill="#ffffff" fill-rule="nonzero" stroke-linejoin="miter" d="M 446.690416 104.502519 C 453.160453 107.389394 492.412012 118.723052 483.030459 129.201339 C 477.746595 135.188932 462.757675 131.232844 456.395472 129.415182 C 447.553088 126.84907 439.573375 123.855274 431.270161 120.433792 " stroke="#000000" stroke-width="0.1" stroke-opacity="1" stroke-miterlimit="10"/><path stroke-linecap="square" transform="matrix(0.0362247, 0, 0, 0.0365339, 0.326597, 0.732899)" fill-opacity="1" fill="#ffffff" fill-rule="nonzero" stroke-linejoin="miter" d="M 418.545754 122.786061 C 424.260954 126.955992 432.995504 128.132126 439.465541 131.553608 C 443.563231 133.798955 454.130959 141.924974 443.024062 141.924974 C 439.573375 141.924974 436.014855 143.101108 432.132832 142.780344 C 427.495972 142.245738 423.182614 140.641918 418.869256 139.358862 C 409.487702 136.68583 402.047159 131.553608 393.959613 126.84907 " stroke="#000000" stroke-width="0.1" stroke-opacity="1" stroke-miterlimit="10"/><path stroke-linecap="square" transform="matrix(0.0362247, 0, 0, 0.0365339, 0.326597, 0.732899)" fill-opacity="1" fill="#ffffff" fill-rule="nonzero" stroke-linejoin="miter" d="M 464.914354 39.173605 C 474.942912 43.557378 485.510639 46.337332 495.754865 50.29342 C 502.871906 52.966452 517.752992 60.98555 501.254397 63.017054 C 477.746595 65.90393 452.621284 56.174091 431.270161 48.6896 " stroke="#000000" stroke-width="0.1" stroke-opacity="1" stroke-miterlimit="10"/><path stroke-linecap="square" transform="matrix(0.0362247, 0, 0, 0.0365339, 0.326597, 0.732899)" fill-opacity="1" fill="#ffffff" fill-rule="nonzero" stroke-linejoin="miter" d="M 445.827745 59.060966 C 453.699623 62.910133 463.189011 64.407031 471.276558 67.828513 C 474.08024 69.004647 481.520783 70.822309 483.030459 73.388421 C 484.863636 76.59606 481.844285 76.168374 478.285765 77.130666 C 468.472875 80.017541 458.552151 74.99224 449.709767 72.426129 C 439.896877 69.539254 430.299655 64.407031 421.241603 59.809415 " stroke="#000000" stroke-width="0.1" stroke-opacity="1" stroke-miterlimit="10"/><path stroke-linecap="square" transform="matrix(0.0362247, 0, 0, 0.0365339, 0.326597, 0.732899)" fill-opacity="1" fill="#ffffff" fill-rule="nonzero" stroke-linejoin="miter" d="M 409.379868 62.268605 C 418.653588 66.545457 428.897814 69.646175 437.52453 74.671476 C 441.945722 77.237587 460.277494 82.690574 459.414823 88.571245 C 458.336483 95.734972 440.328213 90.923514 436.122689 89.105852 C 426.201965 84.722078 417.575249 78.413722 407.654525 74.243791 " stroke="#000000" stroke-width="0.1" stroke-opacity="1" stroke-miterlimit="10"/><path stroke-linecap="square" transform="matrix(0.0362247, 0, 0, 0.0365339, 0.326597, 0.732899)" fill-opacity="1" fill="#ffffff" fill-rule="nonzero" stroke-linejoin="miter" d="M 410.350374 83.759787 C 415.095068 88.678166 422.212109 92.634254 427.603806 97.338792 C 430.730991 100.118745 436.98536 105.250968 429.436984 105.250968 C 417.251747 105.250968 401.615824 94.665759 393.959613 86.967426 " stroke="#000000" stroke-width="0.1" stroke-opacity="1" stroke-miterlimit="10"/><path stroke-linecap="square" transform="matrix(0.0362247, 0, 0, 0.0365339, 0.326597, 0.732899)" fill-opacity="1" fill="#ffffff" fill-rule="nonzero" stroke-linejoin="miter" d="M 385.764232 90.923514 C 388.136579 94.451917 411.644381 109.741662 407.115355 113.697751 C 400.96882 119.150737 387.59741 109.741662 382.205712 106.854787 " stroke="#000000" stroke-width="0.1" stroke-opacity="1" stroke-miterlimit="10"/><path stroke-linecap="square" transform="matrix(0.0362247, 0, 0, 0.0365339, 0.326597, 0.732899)" fill-opacity="1" fill="#ffffff" fill-rule="nonzero" stroke-linejoin="miter" d="M 368.5108 104.502519 C 370.343977 105.999417 383.931055 121.182242 377.137516 121.182242 C 372.716324 121.182242 363.011268 119.685343 361.285925 116.477704 " stroke="#000000" stroke-width="0.1" stroke-opacity="1" stroke-miterlimit="10"/><path stroke-linecap="square" transform="matrix(0.0362247, 0, 0, 0.0365339, 0.326597, 0.732899)" fill-opacity="1" fill="#ffffff" fill-rule="nonzero" stroke-linejoin="miter" d="M 345.757836 114.018514 C 348.022349 117.439996 352.120039 119.685343 352.120039 123.641431 C 352.120039 127.918283 347.591013 129.629024 343.061987 129.949788 " stroke="#000000" stroke-width="0.1" stroke-opacity="1" stroke-miterlimit="10"/><path stroke-linecap="square" transform="matrix(0.0362247, 0, 0, 0.0365339, 0.326597, 0.732899)" fill-opacity="1" fill="#ffffff" fill-rule="nonzero" stroke-linejoin="miter" d="M 359.452748 136.365066 C 357.188235 135.188932 351.904371 134.868168 349.42419 135.937381 C 346.620507 137.220436 343.816824 141.497288 348.561518 142.780344 " stroke="#000000" stroke-width="0.1" stroke-opacity="1" stroke-miterlimit="10"/><path stroke-linecap="square" transform="matrix(0.0362247, 0, 0, 0.0365339, 0.326597, 0.732899)" fill-opacity="1" fill="#ffffff" fill-rule="nonzero" stroke-linejoin="miter" d="M 372.177154 124.389881 C 369.265637 125.566015 365.167947 124.389881 363.119102 126.84907 C 361.501593 128.666732 362.25643 131.660529 364.952279 132.729742 C 367.324626 133.798955 368.618634 135.509696 371.314483 136.365066 C 375.088671 137.648122 379.186361 137.113515 383.284051 137.113515 C 389.861923 137.113515 401.400156 138.931177 391.263764 131.553608 C 385.44073 127.383677 379.617697 125.245251 372.177154 125.245251 " stroke="#000000" stroke-width="0.1" stroke-opacity="1" stroke-miterlimit="10"/><path fill="#ffffff" d="M 15.914062 1.667969 C 15.648438 1.679688 15.441406 1.625 15.191406 1.726562 C 14.9375 1.824219 14.761719 2.019531 14.566406 2.191406 C 14.726562 1.980469 14.863281 1.652344 15.125 1.523438 C 15.222656 1.472656 15.425781 1.414062 15.539062 1.472656 C 15.617188 1.515625 15.902344 1.699219 15.914062 1.667969 " fill-opacity="1" fill-rule="nonzero"/><g clip-path="url(#bd54985aa2)"><path fill="#ffffff" d="M 3.734375 3.007812 C 3.078125 3.171875 2.398438 3.152344 1.726562 3.152344 C 1.527344 3.152344 0.929688 3.011719 0.785156 3.136719 C 0.640625 3.265625 1.421875 3.578125 1.511719 3.613281 C 2.113281 3.839844 2.664062 3.839844 3.316406 3.796875 C 3.660156 3.773438 3.992188 3.730469 4.328125 3.671875 C 4.566406 3.628906 5.070312 3.59375 5.25 3.445312 " fill-opacity="1" fill-rule="nonzero"/></g><g clip-path="url(#bf6197718d)"><path stroke-linecap="square" transform="matrix(0.0362247, 0, 0, 0.0365339, 0.326597, 0.732899)" fill="none" stroke-linejoin="miter" d="M 94.073388 62.268605 C 75.957284 66.7593 57.194176 66.224693 38.646736 66.224693 C 33.147204 66.224693 16.648609 62.375527 12.658753 65.797008 C 8.668896 69.325411 30.235687 77.879115 32.715868 78.841407 C 49.322297 85.042842 64.526884 85.042842 82.535155 83.866708 C 92.024543 83.22518 101.190429 82.049046 110.464149 80.445226 C 117.04202 79.269092 130.9526 78.3068 135.912962 74.243791 " stroke="#000000" stroke-width="0.1" stroke-opacity="1" stroke-miterlimit="10"/></g><path stroke-linecap="square" transform="matrix(0.0362247, 0, 0, 0.0365339, 0.326597, 0.732899)" fill-opacity="1" fill="#ffffff" fill-rule="nonzero" stroke-linejoin="miter" d="M 159.528598 86.967426 C 138.285309 98.942611 111.218986 105.250968 86.093675 105.250968 C 80.270642 105.250968 72.290929 102.898699 67.438401 100.118745 C 60.105692 95.841893 66.252228 91.565041 72.290929 90.923514 C 86.309343 89.533537 99.896421 88.250481 114.022669 86.112055 " stroke="#000000" stroke-width="0.1" stroke-opacity="1" stroke-miterlimit="10"/><path stroke-linecap="square" transform="matrix(0.0362247, 0, 0, 0.0365339, 0.326597, 0.732899)" fill-opacity="1" fill="#ffffff" fill-rule="nonzero" stroke-linejoin="miter" d="M 163.087118 95.734972 C 154.568236 99.263375 146.588523 102.364093 137.530471 105.037125 C 133.001445 106.427102 128.580253 107.924 124.051227 109.313977 C 121.247544 110.062426 113.267831 111.345482 111.32682 113.270065 C 104.641115 120.006107 127.825415 120.21995 131.383936 119.471501 C 134.942456 118.61613 139.902818 119.043816 143.137837 117.653839 C 146.157187 116.263862 150.470545 114.873885 154.029066 114.018514 " stroke="#000000" stroke-width="0.1" stroke-opacity="1" stroke-miterlimit="10"/><path stroke-linecap="square" transform="matrix(0.0362247, 0, 0, 0.0365339, 0.326597, 0.732899)" fill-opacity="1" fill="#ffffff" fill-rule="nonzero" stroke-linejoin="miter" d="M 192.202286 103.647148 C 184.869577 106.854787 148.637368 116.584626 156.724915 127.597519 C 161.469609 134.012797 176.997698 130.484395 183.467735 128.559811 C 192.202286 125.9937 200.397666 123.213746 208.593046 119.578422 " stroke="#000000" stroke-width="0.1" stroke-opacity="1" stroke-miterlimit="10"/><path stroke-linecap="square" transform="matrix(0.0362247, 0, 0, 0.0365339, 0.326597, 0.732899)" fill-opacity="1" fill="#ffffff" fill-rule="nonzero" stroke-linejoin="miter" d="M 220.346947 122.037612 C 213.769076 124.817566 206.652035 127.383677 200.397666 130.805158 C 196.40781 133.050506 185.51658 141.176525 196.731312 141.176525 C 205.358028 141.176525 212.582903 141.497288 221.101785 138.503492 C 230.375505 135.295853 237.816048 131.446686 244.933089 125.245251 " stroke="#000000" stroke-width="0.1" stroke-opacity="1" stroke-miterlimit="10"/><path stroke-linecap="square" transform="matrix(0.0362247, 0, 0, 0.0365339, 0.326597, 0.732899)" fill-opacity="1" fill="#ffffff" fill-rule="nonzero" stroke-linejoin="miter" d="M 174.086181 38.318234 C 170.096325 41.312031 163.626288 42.06048 159.097262 44.412748 C 154.460402 46.871938 148.313866 47.620387 143.461338 49.758813 C 139.579316 51.469554 133.001445 51.897239 131.276102 55.853327 C 129.87426 59.167888 133.864117 62.268605 138.393143 62.268605 C 162.87145 62.268605 185.947916 55.853327 208.593046 47.941151 " stroke="#000000" stroke-width="0.1" stroke-opacity="1" stroke-miterlimit="10"/><path stroke-linecap="square" transform="matrix(0.0362247, 0, 0, 0.0365339, 0.326597, 0.732899)" fill-opacity="1" fill="#ffffff" fill-rule="nonzero" stroke-linejoin="miter" d="M 193.172791 58.205596 C 188.428097 61.627078 177.968204 63.979346 172.253004 65.262402 C 165.998635 66.545457 159.097262 70.180782 154.891738 74.243791 C 162.116612 78.841407 178.183872 77.237587 185.624414 73.388421 C 195.976474 67.935434 207.946043 64.407031 218.51377 59.060966 " stroke="#000000" stroke-width="0.1" stroke-opacity="1" stroke-miterlimit="10"/><path stroke-linecap="square" transform="matrix(0.0362247, 0, 0, 0.0365339, 0.326597, 0.732899)" fill-opacity="1" fill="#ffffff" fill-rule="nonzero" stroke-linejoin="miter" d="M 229.512833 61.413235 C 221.748789 66.866221 209.887054 70.07386 200.936836 73.923027 C 196.731312 75.84761 178.076038 83.011338 180.448385 88.571245 C 183.144233 95.200366 200.613334 89.640458 205.034526 87.715875 C 213.445574 83.973629 224.444638 78.948328 231.346011 73.388421 " stroke="#000000" stroke-width="0.1" stroke-opacity="1" stroke-miterlimit="10"/><path stroke-linecap="square" transform="matrix(0.0362247, 0, 0, 0.0365339, 0.326597, 0.732899)" fill-opacity="1" fill="#ffffff" fill-rule="nonzero" stroke-linejoin="miter" d="M 228.542328 83.011338 C 223.797634 87.822796 217.111929 90.816592 212.151567 95.734972 C 210.426224 97.445713 202.985681 104.502519 209.455718 104.502519 C 223.581966 104.502519 236.737708 93.382704 245.79576 85.363606 " stroke="#000000" stroke-width="0.1" stroke-opacity="1" stroke-miterlimit="10"/><path stroke-linecap="square" transform="matrix(0.0362247, 0, 0, 0.0365339, 0.326597, 0.732899)" fill-opacity="1" fill="#ffffff" fill-rule="nonzero" stroke-linejoin="miter" d="M 253.128469 90.175065 C 249.030779 98.83569 232.208682 102.577935 232.208682 112.84238 C 232.208682 115.729255 242.560742 113.163144 244.178251 112.628538 C 249.354281 111.131639 253.020635 108.565528 256.68699 105.250968 " stroke="#000000" stroke-width="0.1" stroke-opacity="1" stroke-miterlimit="10"/><path stroke-linecap="square" transform="matrix(0.0362247, 0, 0, 0.0365339, 0.326597, 0.732899)" fill-opacity="1" fill="#ffffff" fill-rule="nonzero" stroke-linejoin="miter" d="M 270.381902 103.647148 C 268.225223 106.854787 256.794824 117.546917 261.32385 120.433792 C 265.205872 122.892982 275.557932 116.90539 278.577282 115.622334 " stroke="#000000" stroke-width="0.1" stroke-opacity="1" stroke-miterlimit="10"/><path stroke-linecap="square" transform="matrix(0.0362247, 0, 0, 0.0365339, 0.326597, 0.732899)" fill-opacity="1" fill="#ffffff" fill-rule="nonzero" stroke-linejoin="miter" d="M 293.134866 113.270065 C 291.301689 116.584626 286.772663 118.723052 286.772663 122.786061 C 286.772663 126.84907 292.811364 127.811362 296.693387 129.201339 " stroke="#000000" stroke-width="0.1" stroke-opacity="1" stroke-miterlimit="10"/><path stroke-linecap="square" transform="matrix(0.0362247, 0, 0, 0.0365339, 0.326597, 0.732899)" fill-opacity="1" fill="#ffffff" fill-rule="nonzero" stroke-linejoin="miter" d="M 279.439954 135.616617 C 282.998475 134.547404 285.909991 133.264348 289.468512 134.761247 C 293.350534 136.365066 294.536708 139.358862 290.331183 141.924974 " stroke="#000000" stroke-width="0.1" stroke-opacity="1" stroke-miterlimit="10"/><path stroke-linecap="square" transform="matrix(0.0362247, 0, 0, 0.0365339, 0.326597, 0.732899)" fill-opacity="1" fill="#ffffff" fill-rule="nonzero" stroke-linejoin="miter" d="M 266.715548 123.641431 C 275.018762 122.358376 280.41046 127.062913 274.048256 132.408978 C 268.656559 136.792751 262.941359 136.365066 255.824318 136.365066 C 248.707277 136.365066 237.816048 137.327358 248.168107 130.377473 C 254.422477 126.314464 260.029842 124.389881 267.686053 124.389881 " stroke="#000000" stroke-width="0.1" stroke-opacity="1" stroke-miterlimit="10"/><path fill="#ffffff" d="M 7.882812 1.636719 C 8.136719 1.636719 8.394531 1.566406 8.640625 1.667969 C 8.878906 1.765625 9.070312 1.984375 9.230469 2.164062 C 9.113281 1.949219 8.925781 1.636719 8.703125 1.492188 C 8.421875 1.308594 8.136719 1.507812 7.882812 1.636719 " fill-opacity="1" fill-rule="nonzero"/><path fill="#ffffff" d="M 9.757812 9.441406 C 9.675781 8.824219 10.84375 8.664062 11.335938 8.644531 C 12.21875 8.601562 13.09375 8.554688 13.976562 8.476562 C 14.699219 8.410156 15.515625 8.1875 16.015625 7.703125 C 16.496094 7.234375 16.054688 6.28125 15.417969 6.070312 C 14.71875 5.839844 14.042969 5.621094 13.339844 5.976562 C 13.21875 6.039062 12.992188 6.105469 12.945312 6.234375 C 12.886719 6.382812 13.125 6.484375 13.269531 6.503906 C 13.652344 6.5625 14.015625 6.566406 14.402344 6.539062 C 14.730469 6.519531 15.246094 6.605469 15.300781 6.953125 C 15.363281 7.332031 15.039062 7.585938 14.667969 7.71875 C 14.351562 7.828125 13.882812 7.824219 13.542969 7.871094 C 13.164062 7.921875 12.789062 7.953125 12.410156 7.984375 C 12.066406 8.015625 11.714844 7.988281 11.371094 8.015625 C 11.003906 8.042969 10.65625 8.0625 10.289062 8.125 C 9.515625 8.261719 8.804688 8.769531 8.804688 9.5 C 9.121094 9.480469 9.441406 9.460938 9.757812 9.441406 " fill-opacity="1" fill-rule="nonzero"/><path stroke-linecap="square" transform="matrix(0.0362247, 0, 0, 0.0365339, 0.326597, 0.732899)" fill-opacity="1" fill="#ffffff" fill-rule="nonzero" stroke-linejoin="miter" d="M 260.353344 238.367986 C 258.088831 221.474421 290.331183 217.090647 303.918262 216.556041 C 328.288735 215.379907 352.443541 214.096851 376.814014 211.958425 C 396.763296 210.140763 419.300592 204.046249 433.103338 190.788008 C 446.366914 177.957452 434.181678 151.868655 416.604743 146.094904 C 397.302465 139.786548 378.647191 133.798955 359.23708 143.528793 C 355.894227 145.239534 349.639858 147.057196 348.34585 150.585599 C 346.728341 154.648608 353.306212 157.428562 357.296069 157.963169 C 367.863796 159.566988 377.892354 159.673909 388.567915 158.92546 C 397.625967 158.390854 411.860049 160.743122 413.369724 170.259118 C 415.095068 180.630484 406.14485 187.580369 395.900624 191.215693 C 387.166074 194.209489 374.225999 194.102568 364.844445 195.385624 C 354.384552 196.7756 344.032492 197.630971 333.572599 198.486341 C 324.083211 199.341712 314.378155 198.593263 304.888767 199.341712 C 294.752375 200.090161 285.155154 200.624767 275.018762 202.335508 C 253.667639 206.077753 234.04186 219.977522 234.04186 239.971805 " stroke="#000000" stroke-width="0.1" stroke-opacity="1" stroke-miterlimit="10"/><path fill="#ffffff" d="M 11.339844 9.617188 C 11.285156 7.355469 11.230469 5.09375 11.175781 2.832031 C 11.636719 2.839844 12.097656 2.851562 12.558594 2.859375 C 12.511719 4.203125 12.464844 5.546875 12.417969 6.886719 C 12.394531 7.648438 12.367188 8.410156 12.339844 9.175781 C 12.335938 9.3125 12.332031 9.449219 12.328125 9.585938 C 12.328125 9.601562 11.4375 9.613281 11.339844 9.617188 " fill-opacity="1" fill-rule="nonzero"/><path stroke-linecap="square" transform="matrix(0.0362247, 0, 0, 0.0365339, 0.326597, 0.732899)" fill-opacity="1" fill="#ffffff" fill-rule="nonzero" stroke-linejoin="miter" d="M 304.026095 243.179444 C 302.51642 181.272012 301.006745 119.364579 299.497069 57.457147 C 312.221476 57.670989 324.945882 57.991753 337.670289 58.205596 C 335.51361 119.578422 333.356931 181.058169 331.308086 242.430995 " stroke="#000000" stroke-width="0.1" stroke-opacity="1" stroke-miterlimit="10"/><g clip-path="url(#460f9e7f3e)"><path fill="#ffffff" d="M 12.261719 11.859375 C 12.210938 13.421875 12.164062 14.984375 12.117188 16.546875 C 12.097656 17.109375 12.082031 17.671875 12.0625 18.238281 C 12.0625 18.300781 11.640625 18.253906 11.605469 18.246094 C 11.546875 18.230469 11.566406 18.171875 11.566406 18.121094 C 11.558594 17.835938 11.550781 17.554688 11.542969 17.269531 C 11.511719 15.988281 11.476562 14.707031 11.445312 13.421875 C 11.433594 12.972656 11.421875 12.519531 11.410156 12.066406 C 11.410156 12.050781 11.394531 11.890625 11.414062 11.886719 C 11.695312 11.878906 11.976562 11.871094 12.261719 11.859375 " fill-opacity="1" fill-rule="nonzero"/><path stroke-linecap="square" transform="matrix(0.0362247, 0, 0, 0.0365339, 0.326597, 0.732899)" fill-opacity="1" fill="#ffffff" fill-rule="nonzero" stroke-linejoin="miter" d="M 329.474909 304.552271 C 328.073067 347.32079 326.77906 390.08931 325.485052 432.85783 C 324.945882 448.254497 324.514547 463.651164 323.975377 479.154753 C 323.975377 480.865494 312.32931 479.582438 311.358804 479.368596 C 309.741295 478.94091 310.280465 477.337091 310.280465 475.947114 C 310.064797 468.141859 309.849129 460.443526 309.633461 452.638271 C 308.339454 403.561394 307.15328 354.484517 305.859273 305.407641 " stroke="#000000" stroke-width="0.1" stroke-opacity="1" stroke-miterlimit="10"/></g><path stroke-linecap="square" transform="matrix(0.0362247, 0, 0, 0.0365339, 0.326597, 0.732899)" fill-opacity="1" fill="#ffffff" fill-rule="nonzero" stroke-linejoin="miter" d="M 299.497069 69.432332 C 310.388299 75.206083 325.377218 76.061453 336.699783 70.180782 " stroke="#000000" stroke-width="0.1" stroke-opacity="1" stroke-miterlimit="10"/><g clip-path="url(#21aa09e1a5)"><path fill="#ffffff" d="M 11.867188 3.066406 C 12.550781 3.066406 13.117188 2.609375 13.117188 1.988281 C 13.117188 1.316406 12.523438 0.878906 11.796875 0.878906 C 11.15625 0.878906 10.515625 1.460938 10.625 2.050781 C 10.675781 2.316406 10.746094 2.652344 11.035156 2.804688 C 11.175781 2.878906 11.746094 3.21875 11.867188 3.066406 " fill-opacity="1" fill-rule="nonzero"/><path stroke-linecap="square" transform="matrix(0.0362247, 0, 0, 0.0365339, 0.326597, 0.732899)" fill-opacity="1" fill="#ffffff" fill-rule="nonzero" stroke-linejoin="miter" d="M 318.583679 63.872425 C 337.454621 63.872425 353.090544 51.362633 353.090544 34.362146 C 353.090544 16.933974 337.562455 3.996497 317.936675 3.996497 C 299.604903 3.996497 283.645478 17.789345 283.96898 34.362146 C 284.400316 52.431846 300.036239 61.947841 318.583679 64.620874 " stroke="#000000" stroke-width="0.1" stroke-opacity="1" stroke-miterlimit="10"/></g><path fill="#ffffff" d="M 12.6875 14.917969 C 13.074219 14.496094 13.140625 13.847656 12.753906 13.402344 C 12.304688 12.882812 11.515625 12.796875 11.035156 12.308594 C 10.761719 12.035156 10.550781 11.746094 10.976562 11.480469 C 11.316406 11.269531 11.757812 11.222656 12.148438 11.152344 C 12.863281 11.019531 13.617188 10.894531 14.214844 10.5 C 14.539062 10.285156 14.792969 10.050781 14.933594 9.703125 C 15.085938 9.328125 14.957031 9.058594 14.75 8.71875 C 14.433594 8.199219 13.367188 7.988281 12.761719 7.988281 C 12.074219 7.988281 11.3125 7.988281 10.632812 7.890625 C 10.214844 7.835938 9.800781 7.765625 9.378906 7.734375 C 9.035156 7.707031 8.648438 7.496094 8.550781 7.1875 C 8.253906 6.277344 9.765625 6.589844 10.28125 6.511719 C 10.53125 6.476562 11.148438 6.367188 10.777344 6.066406 C 10.566406 5.890625 10.074219 5.746094 9.789062 5.746094 C 9.042969 5.746094 8.316406 5.960938 7.851562 6.488281 C 7.632812 6.742188 7.527344 7.074219 7.640625 7.375 C 7.78125 7.746094 8.074219 7.914062 8.453125 8.089844 C 9.859375 8.742188 11.613281 8.355469 13.101562 8.699219 C 13.375 8.765625 13.960938 8.882812 14.007812 9.199219 C 14.066406 9.605469 13.804688 9.816406 13.460938 10.050781 C 12.867188 10.457031 11.929688 10.496094 11.222656 10.628906 C 10.765625 10.714844 10.054688 10.972656 9.851562 11.378906 C 9.59375 11.886719 9.738281 12.453125 10.292969 12.769531 C 10.75 13.027344 11.210938 13.265625 11.667969 13.519531 C 11.894531 13.644531 12 13.785156 12.179688 13.941406 C 12.289062 14.039062 12.167969 14.542969 12.160156 14.683594 C 12.296875 14.691406 12.671875 14.929688 12.6875 14.917969 " fill-opacity="1" fill-rule="nonzero"/><path stroke-linecap="square" transform="matrix(0.0362247, 0, 0, 0.0365339, 0.326597, 0.732899)" fill-opacity="1" fill="#ffffff" fill-rule="nonzero" stroke-linejoin="miter" d="M 341.228809 388.271648 C 351.904371 376.724148 353.737548 358.975212 343.061987 346.786184 C 330.661082 332.565651 308.878623 330.213382 295.615047 316.84822 C 288.06667 309.363729 282.243637 301.451553 293.997538 294.180904 C 303.379092 288.407154 315.564329 287.124099 326.347724 285.199515 C 346.081337 281.564191 366.89329 278.142709 383.391885 267.343658 C 392.342104 261.462987 399.35131 255.047709 403.233333 245.531713 C 407.438857 235.267268 403.880337 227.889699 398.165137 218.587546 C 389.430587 204.367013 359.991917 198.593263 343.277655 198.593263 C 324.298879 198.593263 303.271258 198.593263 284.50815 195.92023 C 272.969917 194.423332 261.539518 192.498748 249.893451 191.643378 C 240.404063 190.894929 229.728501 185.121179 227.032653 176.674396 C 218.837272 151.761733 260.569012 160.315437 274.803094 158.177011 C 281.704467 157.21472 298.742232 154.220923 288.498006 145.987983 C 282.674973 141.176525 269.087894 137.220436 261.216016 137.220436 C 240.619731 137.220436 220.562615 143.101108 207.730375 157.535483 C 201.691673 164.485368 198.780157 173.573678 201.907341 181.806618 C 205.789364 191.964142 213.87691 196.561758 224.336804 201.373216 C 263.157027 219.229073 311.574472 208.643865 352.659209 218.052939 C 360.207585 219.870601 376.382678 223.07824 377.676686 231.738865 C 379.294195 242.858681 372.06932 248.632431 362.579932 255.047709 C 346.189171 266.167524 320.309022 267.236737 300.791077 270.872061 C 288.174504 273.22433 268.548725 280.281135 262.941359 291.400951 C 255.824318 305.30072 259.814174 320.804308 275.126596 329.464933 C 287.743168 336.521739 300.467575 343.043938 313.084148 349.993823 C 319.338517 353.415304 322.250034 357.264471 327.210395 361.541323 C 330.229746 364.214356 326.886894 378.007203 326.671226 381.85637 C 331.847256 382.177134 337.454621 385.91938 341.228809 389.020097 " stroke="#000000" stroke-width="0.1" stroke-opacity="1" stroke-miterlimit="10"/><path fill="#ffffff" d="M 12.097656 17.945312 C 12.269531 18.027344 12.492188 17.84375 12.492188 17.691406 C 12.492188 17.484375 12.457031 17.355469 12.253906 17.234375 C 11.90625 17.027344 11.574219 16.875 11.273438 16.605469 C 11.191406 16.742188 11.074219 16.917969 11.074219 17.070312 C 11.074219 17.289062 11.125 17.34375 11.257812 17.515625 C 11.304688 17.582031 11.578125 17.671875 11.667969 17.714844 C 11.808594 17.777344 11.949219 17.859375 12.097656 17.945312 " fill-opacity="1" fill-rule="nonzero"/><path fill="#ffffff" d="M 12.097656 17.945312 C 12.269531 18.027344 12.492188 17.84375 12.492188 17.691406 C 12.492188 17.484375 12.457031 17.355469 12.253906 17.234375 C 11.90625 17.027344 11.574219 16.875 11.273438 16.605469 C 11.191406 16.742188 11.074219 16.917969 11.074219 17.070312 C 11.074219 17.289062 11.125 17.34375 11.257812 17.515625 C 11.304688 17.582031 11.578125 17.671875 11.667969 17.714844 C 11.808594 17.777344 11.949219 17.859375 12.097656 17.945312 " fill-opacity="1" fill-rule="nonzero"/><g clip-path="url(#a02b810bad)"><path stroke-linecap="square" transform="matrix(0.0362247, 0, 0, 0.0365339, 0.326597, 0.732899)" fill="none" stroke-linejoin="miter" d="M 324.945882 471.135655 C 329.690576 473.381003 335.837112 468.355702 335.837112 464.185771 C 335.837112 458.518942 334.866606 454.990539 329.259241 451.675979 C 319.662019 446.00915 310.496133 441.839219 302.192918 434.46165 C 299.928405 438.203895 296.693387 443.015354 296.693387 447.185284 C 296.693387 453.172877 298.095228 454.669775 301.761582 459.374313 C 303.05559 461.191975 310.603967 463.651164 313.084148 464.827299 C 316.96617 466.53804 320.848192 468.783387 324.945882 471.135655 " stroke="#000000" stroke-width="0.1" stroke-opacity="1" stroke-miterlimit="10"/></g><path fill="#ffffff" d="M 9.859375 6.007812 C 9.871094 6.023438 9.84375 6.046875 9.890625 6.035156 C 10.050781 5.878906 9.636719 5.925781 9.824219 6.035156 C 9.867188 6.042969 9.847656 6.027344 9.859375 6.007812 " fill-opacity="1" fill-rule="nonzero"/><path fill="#ffffff" d="M 14.070312 6.066406 C 14.203125 6.078125 14.1875 5.984375 14.105469 5.976562 C 14.019531 5.96875 13.949219 6.054688 14.070312 6.066406 " fill-opacity="1" fill-rule="nonzero"/><path fill="#ffffff" d="M 12.722656 2.015625 C 12.910156 2.296875 12.367188 2.707031 12.128906 2.804688 C 12.386719 2.769531 12.492188 2.65625 12.664062 2.503906 C 12.753906 2.425781 12.859375 2.070312 12.722656 2.015625 " fill-opacity="1" fill-rule="nonzero"/><path fill="#ffffff" d="M 11.40625 11.890625 C 11.386719 11.308594 11.371094 10.730469 11.355469 10.152344 C 11.351562 10.09375 11.308594 9.617188 11.363281 9.617188 C 11.683594 9.605469 12.003906 9.597656 12.328125 9.589844 C 12.308594 10.148438 12.292969 10.710938 12.277344 11.269531 C 12.273438 11.367188 12.335938 11.785156 12.261719 11.859375 C 12.21875 11.902344 11.894531 11.871094 11.832031 11.875 C 11.691406 11.878906 11.546875 11.882812 11.40625 11.890625 " fill-opacity="1" fill-rule="nonzero"/><path stroke-linecap="square" transform="matrix(0.0362247, 0, 0, 0.0365339, 0.326597, 0.732899)" fill-opacity="1" fill="#ffffff" fill-rule="nonzero" stroke-linejoin="miter" d="M 331.308086 241.575625 L 329.474909 304.552271 " stroke="#000000" stroke-width="0.1" stroke-opacity="1" stroke-miterlimit="10"/><path stroke-linecap="square" transform="matrix(0.0362247, 0, 0, 0.0365339, 0.326597, 0.732899)" fill-opacity="1" fill="#ffffff" fill-rule="nonzero" stroke-linejoin="miter" d="M 305.859273 305.407641 L 304.026095 243.179444 " stroke="#000000" stroke-width="0.1" stroke-opacity="1" stroke-miterlimit="10"/><path fill="#ffffff" d="M 14.105469 11.832031 C 13.871094 10.800781 12.570312 10.613281 11.570312 10.460938 C 11.019531 10.378906 10.605469 10.265625 10.160156 9.953125 C 10.101562 9.914062 9.726562 9.445312 9.753906 9.441406 C 9.4375 9.460938 9.121094 9.480469 8.804688 9.5 C 8.886719 9.75 8.945312 9.949219 9.140625 10.152344 C 9.332031 10.347656 9.535156 10.496094 9.777344 10.636719 C 10.234375 10.90625 10.839844 11.039062 11.371094 11.128906 C 11.835938 11.203125 12.433594 11.238281 12.820312 11.496094 C 12.914062 11.558594 13.019531 11.601562 13.058594 11.707031 C 13.097656 11.8125 13.082031 11.859375 13.210938 11.859375 C 13.347656 11.859375 14.070312 11.917969 14.105469 11.832031 " fill-opacity="1" fill-rule="nonzero"/><path stroke-linecap="square" transform="matrix(0.0362247, 0, 0, 0.0365339, 0.326597, 0.732899)" fill-opacity="1" fill="#ffffff" fill-rule="nonzero" stroke-linejoin="miter" d="M 234.04186 239.971805 C 237.708214 251.305463 242.992078 259.752246 253.991141 267.129816 C 264.235367 273.865858 277.175441 278.356552 289.468512 281.45727 C 308.662955 286.268728 345.650002 284.878751 353.090544 304.552271 " stroke="#000000" stroke-width="0.1" stroke-opacity="1" stroke-miterlimit="10"/><path stroke-linecap="square" transform="matrix(0.0362247, 0, 0, 0.0365339, 0.326597, 0.732899)" fill-opacity="1" fill="#ffffff" fill-rule="nonzero" stroke-linejoin="miter" d="M 380.372535 303.803821 C 368.618634 252.374676 280.949629 283.595696 260.353344 238.367986 " stroke="#000000" stroke-width="0.1" stroke-opacity="1" stroke-miterlimit="10"/><path fill="#ffffff" d="M 12.128906 15.703125 C 12.324219 15.476562 11.507812 15.316406 11.339844 15.238281 C 11.089844 15.121094 10.71875 14.882812 10.667969 14.625 C 10.636719 14.453125 10.765625 14.453125 10.9375 14.375 C 11.113281 14.292969 11.292969 14.214844 11.46875 14.132812 C 11.347656 14.433594 11.625 14.496094 11.890625 14.574219 C 12.175781 14.660156 12.394531 14.789062 12.65625 14.902344 C 12.859375 14.992188 12.996094 15.328125 12.984375 15.527344 C 12.976562 15.722656 12.859375 15.679688 12.660156 15.683594 C 12.484375 15.691406 12.304688 15.703125 12.128906 15.703125 " fill-opacity="1" fill-rule="nonzero"/><path stroke-linecap="square" transform="matrix(0.0362247, 0, 0, 0.0365339, 0.326597, 0.732899)" fill-opacity="1" fill="#ffffff" fill-rule="nonzero" stroke-linejoin="miter" d="M 348.561518 409.01438 C 355.139389 398.856857 341.228809 388.485491 333.141263 384.31556 C 327.102562 381.107921 321.495196 379.824866 314.917325 377.900282 C 308.555122 375.975699 305.212269 372.554217 307.584616 366.780467 " stroke="#000000" stroke-width="0.1" stroke-opacity="1" stroke-miterlimit="10"/><path stroke-linecap="square" transform="matrix(0.0362247, 0, 0, 0.0365339, 0.326597, 0.732899)" fill-opacity="1" fill="#ffffff" fill-rule="nonzero" stroke-linejoin="miter" d="M 325.808554 409.762829 C 329.582742 405.379056 317.181838 400.246834 312.652812 400.246834 C 300.791077 400.246834 286.664829 386.133222 284.939486 377.151833 " stroke="#000000" stroke-width="0.1" stroke-opacity="1" stroke-miterlimit="10"/><path fill="#ffffff" d="M 10.8125 16.054688 C 10.917969 16.65625 11.773438 17.03125 12.328125 17.277344 C 12.375 17.117188 12.492188 17.050781 12.492188 16.863281 C 12.492188 16.644531 12.214844 16.519531 12.03125 16.433594 C 11.839844 16.339844 11.703125 16.1875 11.535156 16.082031 C 11.4375 16.019531 11.417969 16.027344 11.261719 16.035156 C 11.109375 16.039062 10.960938 16.046875 10.8125 16.054688 " fill-opacity="1" fill-rule="nonzero"/><path stroke-linecap="square" transform="matrix(0.0362247, 0, 0, 0.0365339, 0.326597, 0.732899)" fill-opacity="1" fill="#ffffff" fill-rule="nonzero" stroke-linejoin="miter" d="M 289.468512 419.385746 C 292.380028 435.851627 315.995664 446.116071 331.308086 452.852113 C 332.170757 450.072159 335.837112 448.254497 335.837112 445.046858 C 335.837112 439.700793 334.650938 437.455446 330.33758 433.713201 C 323.867543 427.93945 312.113642 426.870237 308.555122 418.530376 " stroke="#000000" stroke-width="0.1" stroke-opacity="1" stroke-miterlimit="10"/></g></g></g></g></svg>