<svg xmlns="http://www.w3.org/2000/svg" xmlns:xlink="http://www.w3.org/1999/xlink" width="40" zoomAndPan="magnify" viewBox="0 0 30 30.000001" height="40" preserveAspectRatio="xMidYMid meet" version="1.0"><defs><clipPath id="0b0204c785"><path d="M 3.386719 2.902344 L 26.613281 2.902344 L 26.613281 26.128906 L 3.386719 26.128906 Z M 3.386719 2.902344 " clip-rule="nonzero"/></clipPath></defs><g clip-path="url(#0b0204c785)"><path fill="#ffffff" d="M 15 26.128906 C 8.597656 26.128906 3.386719 20.917969 3.386719 14.515625 C 3.386719 8.113281 8.597656 2.902344 15 2.902344 C 21.402344 2.902344 26.613281 8.113281 26.613281 14.515625 C 26.613281 20.917969 21.402344 26.128906 15 26.128906 Z M 21.402344 14.105469 L 16.464844 9.160156 C 16.300781 9 16.089844 8.921875 15.878906 8.921875 C 15.664062 8.921875 15.453125 9 15.289062 9.160156 C 14.96875 9.488281 14.96875 10.011719 15.289062 10.335938 L 18.816406 13.859375 L 9.179688 13.859375 C 8.726562 13.859375 8.351562 14.234375 8.351562 14.691406 C 8.351562 15.148438 8.726562 15.519531 9.179688 15.519531 L 18.816406 15.519531 L 15.640625 18.695312 C 15.316406 19.019531 15.316406 19.542969 15.640625 19.871094 C 15.960938 20.195312 16.488281 20.195312 16.8125 19.871094 L 21.402344 15.273438 C 21.726562 14.953125 21.726562 14.429688 21.402344 14.105469 Z M 21.402344 14.105469 " fill-opacity="1" fill-rule="nonzero"/></g></svg>