<svg xmlns="http://www.w3.org/2000/svg" xmlns:xlink="http://www.w3.org/1999/xlink" width="40" zoomAndPan="magnify" viewBox="0 0 30 30.000001" height="40" preserveAspectRatio="xMidYMid meet" version="1.0"><defs><clipPath id="4874116e16"><path d="M 3.386719 2.902344 L 26.613281 2.902344 L 26.613281 26.128906 L 3.386719 26.128906 Z M 3.386719 2.902344 " clip-rule="nonzero"/></clipPath></defs><g clip-path="url(#4874116e16)"><path fill="#ffffff" d="M 15 2.902344 C 21.402344 2.902344 26.613281 8.113281 26.613281 14.515625 C 26.613281 20.917969 21.402344 26.128906 15 26.128906 C 8.597656 26.128906 3.386719 20.917969 3.386719 14.515625 C 3.386719 8.113281 8.597656 2.902344 15 2.902344 Z M 8.597656 14.925781 L 13.535156 19.871094 C 13.699219 20.03125 13.910156 20.109375 14.121094 20.109375 C 14.335938 20.109375 14.546875 20.03125 14.710938 19.871094 C 15.03125 19.542969 15.03125 19.019531 14.710938 18.695312 L 11.183594 15.171875 L 20.820312 15.171875 C 21.273438 15.171875 21.648438 14.796875 21.648438 14.34375 C 21.648438 13.886719 21.273438 13.511719 20.820312 13.511719 L 11.183594 13.511719 L 14.359375 10.335938 C 14.683594 10.011719 14.683594 9.488281 14.359375 9.160156 C 14.039062 8.839844 13.511719 8.839844 13.1875 9.160156 L 8.597656 13.757812 C 8.273438 14.082031 8.273438 14.601562 8.597656 14.925781 Z M 8.597656 14.925781 " fill-opacity="1" fill-rule="nonzero"/></g></svg>