<svg xmlns="http://www.w3.org/2000/svg" xmlns:xlink="http://www.w3.org/1999/xlink" width="40" zoomAndPan="magnify" viewBox="0 0 30 30.000001" height="40" preserveAspectRatio="xMidYMid meet" version="1.0"><defs><clipPath id="06d28f7eaa"><path d="M 3.386719 2.902344 L 26.613281 2.902344 L 26.613281 26.128906 L 3.386719 26.128906 Z M 3.386719 2.902344 " clip-rule="nonzero"/></clipPath></defs><g clip-path="url(#06d28f7eaa)"><path fill="#ffffff" d="M 8.066406 12.960938 C 9.921875 16.613281 12.910156 19.601562 16.566406 21.457031 L 19.40625 18.613281 C 19.761719 18.257812 20.269531 18.15625 20.714844 18.296875 C 22.160156 18.773438 23.714844 19.03125 25.324219 19.03125 C 26.039062 19.03125 26.613281 19.605469 26.613281 20.324219 L 26.613281 24.839844 C 26.613281 25.554688 26.039062 26.128906 25.324219 26.128906 C 13.207031 26.128906 3.386719 16.308594 3.386719 4.195312 C 3.386719 3.476562 3.96875 2.902344 4.675781 2.902344 L 9.195312 2.902344 C 9.910156 2.902344 10.484375 3.476562 10.484375 4.195312 C 10.484375 5.800781 10.742188 7.355469 11.21875 8.800781 C 11.359375 9.246094 11.257812 9.753906 10.902344 10.109375 Z M 8.066406 12.960938 " fill-opacity="1" fill-rule="nonzero"/></g></svg>