<svg xmlns="http://www.w3.org/2000/svg" xmlns:xlink="http://www.w3.org/1999/xlink" width="40" zoomAndPan="magnify" viewBox="0 0 30 30.000001" height="40" preserveAspectRatio="xMidYMid meet" version="1.0"><defs><clipPath id="6e87788972"><path d="M 9 2.800781 L 21 2.800781 L 21 13 L 9 13 Z M 9 2.800781 " clip-rule="nonzero"/></clipPath><clipPath id="6525ba109c"><path d="M 3.386719 15 L 10 15 L 10 24 L 3.386719 24 Z M 3.386719 15 " clip-rule="nonzero"/></clipPath><clipPath id="48f4f2e588"><path d="M 4 9 L 14 9 L 14 26.027344 L 4 26.027344 Z M 4 9 " clip-rule="nonzero"/></clipPath><clipPath id="fb3cf77e53"><path d="M 20 15 L 26.613281 15 L 26.613281 24 L 20 24 Z M 20 15 " clip-rule="nonzero"/></clipPath><clipPath id="4f467526e2"><path d="M 16 9 L 26 9 L 26 26.027344 L 16 26.027344 Z M 16 9 " clip-rule="nonzero"/></clipPath></defs><g clip-path="url(#6e87788972)"><path fill="#ffffff" d="M 15.476562 11.605469 C 14.472656 11.605469 13.503906 11.351562 12.683594 10.871094 C 12.621094 10.835938 12.542969 10.828125 12.472656 10.847656 L 10.082031 11.609375 L 11.1875 9.742188 C 11.238281 9.660156 11.234375 9.554688 11.179688 9.472656 C 10.777344 8.863281 10.5625 8.164062 10.5625 7.460938 C 10.5625 5.175781 12.765625 3.3125 15.476562 3.3125 C 18.183594 3.3125 20.390625 5.175781 20.390625 7.460938 C 20.390625 9.746094 18.183594 11.605469 15.476562 11.605469 Z M 20.90625 7.460938 C 20.90625 4.890625 18.46875 2.804688 15.476562 2.804688 C 12.480469 2.804688 10.046875 4.890625 10.046875 7.460938 C 10.046875 8.214844 10.257812 8.957031 10.664062 9.617188 L 9.296875 11.925781 C 9.242188 12.019531 9.253906 12.132812 9.320312 12.214844 C 9.367188 12.277344 9.445312 12.3125 9.519531 12.3125 C 9.546875 12.3125 9.574219 12.308594 9.597656 12.300781 L 12.523438 11.371094 C 13.402344 11.859375 14.421875 12.117188 15.476562 12.117188 C 18.46875 12.117188 20.90625 10.027344 20.90625 7.460938 " fill-opacity="1" fill-rule="nonzero"/></g><g clip-path="url(#6525ba109c)"><path fill="#ffffff" d="M 9.347656 22.710938 L 6.554688 22.710938 C 6.074219 22.710938 5.652344 22.390625 5.523438 21.929688 L 3.921875 16.042969 C 3.882812 15.90625 3.738281 15.828125 3.605469 15.863281 C 3.464844 15.898438 3.386719 16.039062 3.421875 16.175781 L 5.027344 22.0625 C 5.214844 22.746094 5.84375 23.222656 6.554688 23.222656 L 9.347656 23.222656 C 9.488281 23.222656 9.605469 23.109375 9.605469 22.96875 C 9.605469 22.824219 9.488281 22.710938 9.347656 22.710938 " fill-opacity="1" fill-rule="nonzero"/></g><g clip-path="url(#48f4f2e588)"><path fill="#ffffff" d="M 12.808594 25.285156 C 12.695312 25.429688 12.527344 25.511719 12.324219 25.511719 C 12.0625 25.511719 11.832031 25.339844 11.761719 25.089844 L 10.933594 22.117188 C 10.824219 21.726562 10.464844 21.457031 10.054688 21.457031 L 8.019531 21.457031 C 7.347656 21.457031 6.753906 21.003906 6.574219 20.359375 L 5.515625 16.5 C 5.320312 15.789062 5.390625 15.125 5.703125 14.71875 C 5.921875 14.433594 6.25 14.289062 6.675781 14.289062 L 6.71875 14.289062 C 7.386719 14.289062 7.570312 14.636719 7.851562 15.492188 L 8.75 18.203125 C 8.785156 18.308594 8.882812 18.378906 8.996094 18.378906 L 11.089844 18.378906 C 11.421875 18.378906 11.695312 18.648438 11.695312 18.996094 C 11.695312 19.328125 11.421875 19.597656 11.089844 19.597656 L 8.535156 19.597656 C 8.222656 19.597656 7.945312 19.402344 7.84375 19.109375 L 6.75 15.949219 C 6.703125 15.816406 6.558594 15.746094 6.421875 15.789062 C 6.316406 15.824219 6.25 15.925781 6.25 16.03125 C 6.25 16.058594 6.253906 16.085938 6.261719 16.113281 L 7.355469 19.273438 C 7.527344 19.773438 8.003906 20.109375 8.535156 20.109375 L 10.796875 20.109375 C 11.277344 20.109375 11.703125 20.429688 11.832031 20.890625 L 12.90625 24.78125 C 12.957031 24.957031 12.921875 25.140625 12.808594 25.285156 Z M 4.847656 12.128906 C 4.847656 11.222656 5.59375 10.480469 6.507812 10.480469 C 7.425781 10.480469 8.171875 11.222656 8.171875 12.128906 C 8.171875 13.039062 7.425781 13.777344 6.507812 13.777344 C 5.59375 13.777344 4.847656 13.039062 4.847656 12.128906 Z M 12.328125 20.753906 C 12.230469 20.40625 12.015625 20.109375 11.734375 19.90625 C 12.023438 19.703125 12.210938 19.363281 12.210938 18.980469 C 12.210938 18.367188 11.707031 17.867188 11.089844 17.867188 L 9.179688 17.867188 L 8.34375 15.335938 C 8.179688 14.84375 8.003906 14.3125 7.570312 14.015625 C 8.234375 13.644531 8.6875 12.9375 8.6875 12.128906 C 8.6875 10.9375 7.710938 9.96875 6.507812 9.96875 C 5.308594 9.96875 4.332031 10.9375 4.332031 12.128906 C 4.332031 13.003906 4.859375 13.757812 5.613281 14.097656 C 5.492188 14.183594 5.386719 14.289062 5.292969 14.410156 C 4.882812 14.941406 4.78125 15.773438 5.015625 16.632812 L 6.078125 20.496094 C 6.316406 21.363281 7.117188 21.96875 8.019531 21.96875 L 10.054688 21.96875 C 10.230469 21.96875 10.386719 22.085938 10.433594 22.253906 L 11.265625 25.226562 C 11.398438 25.695312 11.832031 26.023438 12.34375 26.023438 C 12.691406 26.023438 13.007812 25.867188 13.21875 25.59375 C 13.429688 25.320312 13.496094 24.976562 13.402344 24.644531 L 12.328125 20.753906 " fill-opacity="1" fill-rule="nonzero"/></g><g clip-path="url(#fb3cf77e53)"><path fill="#ffffff" d="M 26.390625 15.863281 C 26.253906 15.824219 26.113281 15.90625 26.074219 16.042969 L 24.46875 21.929688 C 24.34375 22.390625 23.921875 22.710938 23.4375 22.710938 L 20.648438 22.710938 C 20.503906 22.710938 20.390625 22.824219 20.390625 22.96875 C 20.390625 23.109375 20.503906 23.222656 20.648438 23.222656 L 23.4375 23.222656 C 24.152344 23.222656 24.78125 22.746094 24.96875 22.0625 L 26.574219 16.175781 C 26.609375 16.039062 26.527344 15.898438 26.390625 15.863281 " fill-opacity="1" fill-rule="nonzero"/></g><g clip-path="url(#4f467526e2)"><path fill="#ffffff" d="M 19.0625 22.117188 L 18.234375 25.089844 C 18.164062 25.339844 17.929688 25.511719 17.652344 25.511719 C 17.46875 25.511719 17.296875 25.429688 17.1875 25.285156 C 17.074219 25.140625 17.039062 24.957031 17.085938 24.78125 L 18.164062 20.890625 C 18.292969 20.429688 18.714844 20.109375 19.199219 20.109375 L 21.457031 20.109375 C 21.992188 20.109375 22.464844 19.773438 22.640625 19.273438 L 23.730469 16.113281 C 23.742188 16.085938 23.746094 16.058594 23.746094 16.03125 C 23.746094 15.925781 23.679688 15.824219 23.570312 15.789062 C 23.4375 15.746094 23.289062 15.816406 23.242188 15.949219 L 22.152344 19.109375 C 22.050781 19.402344 21.769531 19.597656 21.457031 19.597656 L 18.90625 19.597656 C 18.570312 19.597656 18.296875 19.328125 18.296875 18.980469 C 18.296875 18.648438 18.570312 18.378906 18.90625 18.378906 L 21 18.378906 C 21.113281 18.378906 21.210938 18.308594 21.246094 18.203125 L 22.140625 15.492188 C 22.425781 14.636719 22.609375 14.289062 23.277344 14.289062 L 23.320312 14.289062 C 23.746094 14.289062 24.074219 14.433594 24.292969 14.71875 C 24.605469 15.125 24.675781 15.789062 24.480469 16.5 L 23.417969 20.359375 C 23.242188 21.003906 22.648438 21.457031 21.972656 21.457031 L 19.941406 21.457031 C 19.53125 21.457031 19.171875 21.726562 19.0625 22.117188 Z M 21.824219 12.128906 C 21.824219 11.222656 22.570312 10.480469 23.484375 10.480469 C 24.402344 10.480469 25.148438 11.222656 25.148438 12.128906 C 25.148438 13.039062 24.402344 13.777344 23.484375 13.777344 C 22.570312 13.777344 21.824219 13.039062 21.824219 12.128906 Z M 23.917969 20.496094 L 24.976562 16.632812 C 25.214844 15.773438 25.113281 14.941406 24.703125 14.410156 C 24.609375 14.289062 24.5 14.183594 24.382812 14.097656 C 25.136719 13.757812 25.664062 13.003906 25.664062 12.128906 C 25.664062 10.9375 24.6875 9.96875 23.484375 9.96875 C 22.285156 9.96875 21.308594 10.9375 21.308594 12.128906 C 21.308594 12.9375 21.757812 13.644531 22.425781 14.015625 C 21.992188 14.3125 21.8125 14.84375 21.652344 15.335938 L 20.8125 17.867188 L 18.90625 17.867188 C 18.285156 17.867188 17.78125 18.367188 17.78125 18.996094 C 17.78125 19.371094 17.96875 19.703125 18.257812 19.90625 C 17.976562 20.109375 17.765625 20.40625 17.667969 20.753906 L 16.589844 24.644531 C 16.5 24.976562 16.566406 25.320312 16.777344 25.59375 C 16.988281 25.867188 17.304688 26.023438 17.667969 26.023438 C 18.160156 26.023438 18.597656 25.695312 18.730469 25.226562 L 19.558594 22.253906 C 19.605469 22.085938 19.761719 21.96875 19.941406 21.96875 L 21.972656 21.96875 C 22.878906 21.96875 23.679688 21.363281 23.917969 20.496094 " fill-opacity="1" fill-rule="nonzero"/></g><path fill="#ffffff" d="M 15.59375 4.730469 C 15.175781 4.722656 14.789062 4.871094 14.492188 5.15625 C 14.195312 5.441406 14.035156 5.824219 14.035156 6.234375 C 14.035156 6.375 14.148438 6.488281 14.292969 6.488281 C 14.433594 6.488281 14.550781 6.375 14.550781 6.234375 C 14.550781 5.964844 14.65625 5.710938 14.851562 5.523438 C 15.046875 5.332031 15.300781 5.234375 15.578125 5.242188 C 16.101562 5.257812 16.535156 5.6875 16.550781 6.207031 C 16.5625 6.644531 16.289062 7.03125 15.871094 7.171875 C 15.523438 7.289062 15.292969 7.601562 15.292969 7.949219 L 15.292969 8.476562 C 15.292969 8.621094 15.40625 8.734375 15.550781 8.734375 C 15.691406 8.734375 15.808594 8.621094 15.808594 8.476562 L 15.808594 7.949219 C 15.808594 7.820312 15.898438 7.703125 16.035156 7.65625 C 16.671875 7.445312 17.085938 6.855469 17.066406 6.191406 C 17.042969 5.40625 16.382812 4.753906 15.59375 4.730469 " fill-opacity="1" fill-rule="nonzero"/><path fill="#ffffff" d="M 15.550781 9.226562 C 15.40625 9.226562 15.292969 9.339844 15.292969 9.484375 L 15.292969 9.488281 C 15.292969 9.628906 15.40625 9.742188 15.550781 9.742188 C 15.691406 9.742188 15.808594 9.625 15.808594 9.484375 C 15.808594 9.339844 15.691406 9.226562 15.550781 9.226562 " fill-opacity="1" fill-rule="nonzero"/></svg>