<svg xmlns="http://www.w3.org/2000/svg" xmlns:xlink="http://www.w3.org/1999/xlink" width="40" zoomAndPan="magnify" viewBox="0 0 30 30.000001" height="40" preserveAspectRatio="xMidYMid meet" version="1.0"><defs><clipPath id="8fb047b502"><path d="M 3.386719 18 L 6 18 L 6 20 L 3.386719 20 Z M 3.386719 18 " clip-rule="nonzero"/></clipPath><clipPath id="c6811b7060"><path d="M 3.386719 18 L 7 18 L 7 20 L 3.386719 20 Z M 3.386719 18 " clip-rule="nonzero"/></clipPath><clipPath id="ee604a2d10"><path d="M 24 18 L 26.613281 18 L 26.613281 20 L 24 20 Z M 24 18 " clip-rule="nonzero"/></clipPath><clipPath id="e4c1e0baa5"><path d="M 23 18 L 26.613281 18 L 26.613281 20 L 23 20 Z M 23 18 " clip-rule="nonzero"/></clipPath><clipPath id="569bc0f696"><path d="M 12 19 L 22 19 L 22 22.4375 L 12 22.4375 Z M 12 19 " clip-rule="nonzero"/></clipPath><clipPath id="7e6e5ac8ad"><path d="M 12 18 L 22 18 L 22 22.4375 L 12 22.4375 Z M 12 18 " clip-rule="nonzero"/></clipPath><clipPath id="3ef227dad3"><path d="M 8 19 L 17 19 L 17 22.4375 L 8 22.4375 Z M 8 19 " clip-rule="nonzero"/></clipPath><clipPath id="1b53f8e894"><path d="M 8 18 L 17 18 L 17 22.4375 L 8 22.4375 Z M 8 18 " clip-rule="nonzero"/></clipPath><clipPath id="adc401347a"><path d="M 12 6.472656 L 18 6.472656 L 18 12 L 12 12 Z M 12 6.472656 " clip-rule="nonzero"/></clipPath></defs><path fill="#f4f4f4" d="M 18.878906 13.144531 C 18.839844 13.074219 18.800781 13.003906 18.753906 12.9375 C 18.476562 12.542969 18.078125 12.28125 17.675781 12.027344 C 16.972656 11.582031 15.773438 11.636719 14.984375 11.640625 C 14.035156 11.648438 12.875 11.59375 12.058594 12.140625 C 11.148438 12.75 10.910156 13.765625 10.433594 14.675781 C 9.902344 15.6875 9.132812 16.558594 8.164062 17.179688 C 7.453125 17.636719 6.675781 17.933594 5.84375 18.089844 L 5.84375 19.839844 C 5.84375 19.839844 11.25 18.566406 12.117188 15.394531 C 12.085938 15.507812 12.246094 15.800781 12.28125 15.917969 C 12.34375 16.105469 12.410156 16.292969 12.46875 16.480469 C 12.585938 16.847656 12.6875 17.222656 12.726562 17.605469 C 12.777344 18.097656 12.714844 18.589844 12.640625 19.078125 C 12.601562 19.316406 12.558594 19.554688 12.519531 19.796875 C 12.503906 19.894531 12.386719 20.335938 12.433594 20.390625 C 13.394531 21.546875 16.441406 21.558594 17.402344 20.371094 C 17.457031 20.304688 17.339844 19.871094 17.324219 19.769531 C 17.230469 19.085938 17.160156 18.390625 17.222656 17.703125 C 17.28125 17.03125 17.496094 16.390625 17.652344 15.738281 C 17.695312 15.5625 17.742188 15.382812 17.785156 15.207031 C 18.671875 18.78125 24.164062 19.839844 24.164062 19.839844 L 24.164062 18.089844 C 21.949219 17.675781 20.269531 16.203125 19.34375 14.203125 C 19.183594 13.855469 19.066406 13.480469 18.878906 13.144531 " fill-opacity="1" fill-rule="nonzero"/><path stroke-linecap="round" transform="matrix(0.00845931, 0, 0, -0.00839965, -2.980264, 32.317292)" fill="none" stroke-linejoin="round" d="M 2584.037117 2282.56552 C 2579.419423 2290.9364 2574.80173 2299.30728 2569.260498 2307.213112 C 2536.474874 2354.183051 2489.374401 2385.341328 2441.812158 2415.569507 C 2358.693676 2468.585083 2216.930486 2462.074398 2123.653078 2461.609349 C 2011.443127 2460.679251 1874.297631 2467.189936 1777.787838 2402.083089 C 1670.19558 2329.535459 1642.02765 2208.622743 1585.691789 2100.266348 C 1522.891158 1979.818681 1431.922597 1876.112774 1317.403799 1802.169998 C 1233.361778 1747.759276 1141.469678 1712.415559 1043.112807 1693.813602 L 1043.112807 1485.471692 C 1043.112807 1485.471692 1682.201583 1637.077636 1784.714378 2014.697349 C 1781.020223 2001.21093 1799.952766 1966.332262 1804.10869 1952.380795 C 1811.497 1930.058447 1819.347079 1907.7361 1826.273619 1885.413752 C 1840.126699 1841.699155 1852.132702 1797.05446 1856.750396 1751.479667 C 1862.753397 1692.883505 1855.365088 1634.287342 1846.59147 1576.156229 C 1841.973777 1547.788245 1836.894314 1519.420262 1832.276621 1490.58723 C 1830.429543 1478.961007 1816.576463 1426.41048 1822.117695 1419.899796 C 1935.712954 1282.245319 2295.893044 1280.850172 2409.488304 1422.22504 C 2415.953074 1430.130872 2402.099994 1481.7513 2400.252917 1493.842572 C 2389.170452 1575.226131 2380.858604 1658.004836 2388.246914 1739.853444 C 2395.173454 1819.841856 2420.570768 1896.109877 2439.041542 1973.773045 C 2444.121005 1994.700246 2449.662237 2016.092495 2454.7417 2037.019696 C 2559.563341 1611.499946 3208.811042 1485.471692 3208.811042 1485.471692 L 3208.811042 1693.813602 C 2946.987823 1743.108787 2748.427004 1918.432225 2638.987669 2156.537266 C 2620.055126 2197.926618 2606.202045 2242.571314 2584.037117 2282.56552 Z M 2584.037117 2282.56552 " stroke="#2e2939" stroke-width="40" stroke-opacity="1" stroke-miterlimit="10"/><path fill="#f4f4f4" d="M 16.457031 11.914062 C 16.457031 12.898438 15.800781 13.402344 14.984375 13.402344 C 14.171875 13.402344 13.511719 12.898438 13.511719 11.914062 C 13.511719 11.890625 13.515625 11.863281 13.515625 11.839844 C 13.941406 11.574219 16.023438 11.578125 16.457031 11.851562 C 16.457031 11.875 16.457031 11.894531 16.457031 11.914062 " fill-opacity="1" fill-rule="nonzero"/><path stroke-linecap="round" transform="matrix(0.00845931, 0, 0, -0.00839965, -2.980264, 32.317292)" fill="none" stroke-linejoin="round" d="M 2297.740122 2429.055926 C 2297.740122 2311.863601 2220.162872 2251.872292 2123.653078 2251.872292 C 2027.605054 2251.872292 1949.566035 2311.863601 1949.566035 2429.055926 C 1949.566035 2431.846219 1950.027804 2435.101561 1950.027804 2437.891855 C 2000.360663 2469.515181 2246.483724 2469.050132 2297.740122 2436.496708 C 2297.740122 2433.706415 2297.740122 2431.38117 2297.740122 2429.055926 Z M 2297.740122 2429.055926 " stroke="#2e2939" stroke-width="40" stroke-opacity="1" stroke-miterlimit="10"/><g clip-path="url(#8fb047b502)"><path fill="#f4f4f4" d="M 5.84375 19.183594 C 5.84375 19.183594 3.65625 19.601562 3.597656 18.316406 L 5.84375 18.316406 L 5.84375 19.183594 " fill-opacity="1" fill-rule="nonzero"/></g><g clip-path="url(#c6811b7060)"><path stroke-linecap="round" transform="matrix(0.00845931, 0, 0, -0.00839965, -2.980264, 32.317292)" fill="none" stroke-linejoin="round" d="M 1043.112807 1563.599908 C 1043.112807 1563.599908 784.521973 1513.839675 777.595433 1666.840766 L 1043.112807 1666.840766 Z M 1043.112807 1563.599908 " stroke="#2e2939" stroke-width="40" stroke-opacity="1" stroke-miterlimit="10"/></g><g clip-path="url(#ee604a2d10)"><path fill="#f4f4f4" d="M 24.164062 19.183594 C 24.164062 19.183594 26.351562 19.601562 26.410156 18.316406 L 24.164062 18.316406 L 24.164062 19.183594 " fill-opacity="1" fill-rule="nonzero"/></g><g clip-path="url(#e4c1e0baa5)"><path stroke-linecap="round" transform="matrix(0.00845931, 0, 0, -0.00839965, -2.980264, 32.317292)" fill="none" stroke-linejoin="round" d="M 3208.811042 1563.599908 C 3208.811042 1563.599908 3467.401876 1513.839675 3474.328417 1666.840766 L 3208.811042 1666.840766 Z M 3208.811042 1563.599908 " stroke="#2e2939" stroke-width="40" stroke-opacity="1" stroke-miterlimit="10"/></g><g clip-path="url(#569bc0f696)"><path fill="#f4f4f4" d="M 21.109375 22.230469 C 21.101562 22.242188 21.109375 22.261719 21.109375 22.277344 L 12.972656 22.277344 C 12.972656 22.277344 16.359375 20.367188 19.183594 19.0625 C 21.050781 18.78125 21.925781 21.207031 21.109375 22.230469 " fill-opacity="1" fill-rule="nonzero"/></g><g clip-path="url(#7e6e5ac8ad)"><path stroke-linecap="round" transform="matrix(0.00845931, 0, 0, -0.00839965, -2.980264, 32.317292)" fill="none" stroke-linejoin="round" d="M 2847.707413 1200.86176 C 2846.783875 1199.466613 2847.707413 1197.141369 2847.707413 1195.281173 L 1885.841865 1195.281173 C 1885.841865 1195.281173 2286.195888 1422.690089 2620.055126 1578.016424 C 2840.780873 1611.499946 2944.217207 1322.704574 2847.707413 1200.86176 Z M 2847.707413 1200.86176 " stroke="#2e2939" stroke-width="40" stroke-opacity="1" stroke-miterlimit="10"/></g><g clip-path="url(#3ef227dad3)"><path fill="#f4f4f4" d="M 16.664062 22.277344 L 9.183594 22.277344 C 9.183594 22.261719 9.195312 22.238281 9.183594 22.230469 C 7.414062 21.328125 9.183594 18.933594 10.886719 19.066406 C 13.542969 20.210938 16.664062 22.277344 16.664062 22.277344 " fill-opacity="1" fill-rule="nonzero"/></g><g clip-path="url(#1b53f8e894)"><path stroke-linecap="round" transform="matrix(0.00845931, 0, 0, -0.00839965, -2.980264, 32.317292)" fill="none" stroke-linejoin="round" d="M 2322.213897 1195.281173 L 1437.925599 1195.281173 C 1437.925599 1197.141369 1439.310907 1199.931662 1437.925599 1200.86176 C 1228.744085 1308.288058 1437.925599 1593.363038 1639.257034 1577.551375 C 1953.260189 1441.292045 2322.213897 1195.281173 2322.213897 1195.281173 Z M 2322.213897 1195.281173 " stroke="#2e2939" stroke-width="40" stroke-opacity="1" stroke-miterlimit="10"/></g><g clip-path="url(#adc401347a)"><path fill="#f4f4f4" d="M 17.121094 8.859375 C 17.121094 10.082031 16.15625 11.070312 14.964844 11.070312 C 13.773438 11.070312 12.804688 10.082031 12.804688 8.859375 C 12.804688 7.632812 13.773438 6.644531 14.964844 6.644531 C 16.15625 6.644531 17.121094 7.632812 17.121094 8.859375 " fill-opacity="1" fill-rule="nonzero"/><path stroke-linecap="round" transform="matrix(0.00845931, 0, 0, -0.00839965, -2.980264, 32.317292)" fill="none" stroke-linejoin="round" d="M 2376.240911 2792.724171 C 2376.240911 2647.163863 2262.183882 2529.50649 2121.344231 2529.50649 C 1980.504581 2529.50649 1865.985783 2647.163863 1865.985783 2792.724171 C 1865.985783 2938.749528 1980.504581 3056.406902 2121.344231 3056.406902 C 2262.183882 3056.406902 2376.240911 2938.749528 2376.240911 2792.724171 Z M 2376.240911 2792.724171 " stroke="#2e2939" stroke-width="40" stroke-opacity="1" stroke-miterlimit="10"/></g></svg>