<svg xmlns="http://www.w3.org/2000/svg" xmlns:xlink="http://www.w3.org/1999/xlink" width="40" zoomAndPan="magnify" viewBox="0 0 30 30.000001" height="40" preserveAspectRatio="xMidYMid meet" version="1.0"><defs><clipPath id="7978a00c1f"><path d="M 3.386719 5 L 22 5 L 22 26.128906 L 3.386719 26.128906 Z M 3.386719 5 " clip-rule="nonzero"/></clipPath><clipPath id="8bebde4765"><path d="M 9 2.902344 L 11 2.902344 L 11 5 L 9 5 Z M 9 2.902344 " clip-rule="nonzero"/></clipPath><clipPath id="35abd481b6"><path d="M 15 9 L 20 9 L 20 26.128906 L 15 26.128906 Z M 15 9 " clip-rule="nonzero"/></clipPath></defs><g clip-path="url(#7978a00c1f)"><path fill="#e7e8d8" d="M 18.886719 25.546875 C 18.964844 25.824219 18.757812 26.097656 18.46875 26.097656 L 11.433594 26.097656 C 11.222656 26.097656 11.042969 25.949219 11.007812 25.742188 C 10.878906 24.996094 10.542969 23.3125 10.128906 22.925781 C 9.476562 22.320312 7.957031 22.683594 7.023438 22.722656 C 4.898438 22.832031 5.292969 21.230469 5.011719 19.652344 C 4.984375 19.488281 4.949219 19.324219 4.898438 19.164062 C 4.898438 19.160156 4.898438 19.160156 4.898438 19.15625 C 4.5 17.808594 3.378906 18.105469 3.429688 17.152344 C 3.460938 16.566406 5.042969 15.816406 5.046875 13.984375 C 5.050781 13.464844 4.957031 12.679688 4.941406 12.140625 C 4.8125 8.082031 8.738281 5.136719 13.324219 5.375 C 17.515625 5.59375 20.546875 7.867188 21.199219 12.160156 C 21.601562 14.808594 20.75 16.964844 18.835938 19.449219 C 18.355469 20.074219 18.117188 21.15625 18.167969 21.941406 C 18.246094 23.203125 18.652344 24.742188 18.886719 25.546875 " fill-opacity="1" fill-rule="nonzero"/></g><path fill="#b2de5b" d="M 19.167969 20.886719 C 21.867188 20.800781 24.851562 18.589844 24.800781 14.441406 C 24.757812 10.960938 26.601562 8.25 24.554688 7.84375 C 22.90625 7.519531 22.121094 9.601562 20.496094 10.667969 C 20.496094 10.667969 18.273438 12.582031 17.777344 13.917969 C 17.277344 15.25 16.796875 17.738281 17.296875 19.089844 C 17.796875 20.4375 18.632812 20.902344 19.167969 20.886719 " fill-opacity="1" fill-rule="nonzero"/><path fill="#59c362" d="M 18.386719 20.585938 C 18.386719 20.585938 23.019531 17.96875 20.386719 12.121094 C 19.378906 9.890625 17.460938 7.808594 16.183594 5.589844 C 14.964844 3.472656 11.886719 4.351562 12.421875 6.765625 C 13.273438 10.613281 12.523438 11.640625 12.785156 13.972656 C 13.492188 20.296875 18.386719 20.585938 18.386719 20.585938 " fill-opacity="1" fill-rule="nonzero"/><path fill="#c1e356" d="M 19.414062 7.03125 C 19.773438 7.257812 20.277344 7.144531 20.515625 7.074219 C 20.59375 7.046875 20.644531 6.972656 20.632812 6.886719 C 20.597656 6.644531 20.480469 6.140625 20.121094 5.910156 C 19.757812 5.683594 19.253906 5.792969 19.015625 5.867188 C 18.9375 5.890625 18.886719 5.96875 18.898438 6.054688 C 18.9375 6.296875 19.050781 6.800781 19.414062 7.03125 " fill-opacity="1" fill-rule="nonzero"/><g clip-path="url(#8bebde4765)"><path fill="#c1e356" d="M 10.449219 4.25 C 10.804688 4.015625 10.914062 3.511719 10.945312 3.265625 C 10.957031 3.179688 10.90625 3.105469 10.828125 3.082031 C 10.589844 3.011719 10.082031 2.910156 9.726562 3.140625 C 9.367188 3.375 9.257812 3.878906 9.226562 4.125 C 9.214844 4.210938 9.265625 4.285156 9.347656 4.308594 C 9.585938 4.378906 10.089844 4.484375 10.449219 4.25 " fill-opacity="1" fill-rule="nonzero"/></g><path fill="#623e8d" d="M 6.085938 14.992188 C 5.960938 14.992188 5.832031 14.960938 5.707031 14.886719 C 5.589844 14.816406 5.550781 14.664062 5.621094 14.546875 C 5.691406 14.425781 5.84375 14.386719 5.964844 14.457031 C 6.171875 14.582031 6.488281 14.320312 6.488281 14.316406 C 6.59375 14.226562 6.75 14.234375 6.84375 14.339844 C 6.933594 14.441406 6.921875 14.601562 6.820312 14.691406 C 6.667969 14.824219 6.386719 14.992188 6.085938 14.992188 " fill-opacity="1" fill-rule="nonzero"/><path fill="#623e8d" d="M 6.347656 19.367188 C 5.804688 19.617188 5.347656 19.65625 5.109375 19.65625 C 5.070312 19.65625 5.039062 19.65625 5.011719 19.652344 C 4.984375 19.488281 4.949219 19.324219 4.898438 19.164062 C 4.898438 19.160156 4.898438 19.160156 4.898438 19.15625 C 4.929688 19.148438 4.960938 19.148438 4.992188 19.152344 C 5.003906 19.152344 5.492188 19.207031 6.140625 18.914062 C 6.269531 18.855469 6.414062 18.910156 6.472656 19.039062 C 6.527344 19.164062 6.472656 19.3125 6.347656 19.367188 " fill-opacity="1" fill-rule="nonzero"/><g clip-path="url(#35abd481b6)"><path fill="#623e8d" d="M 18.78125 26.140625 C 18.691406 26.140625 18.605469 26.089844 18.5625 26.003906 C 18.058594 25.027344 17.902344 23.046875 18.136719 20.5625 C 18.46875 17.039062 17.476562 11.808594 15.46875 9.636719 C 15.375 9.535156 15.378906 9.375 15.480469 9.28125 C 15.582031 9.1875 15.742188 9.195312 15.835938 9.296875 C 18 11.640625 18.976562 16.996094 18.636719 20.609375 C 18.414062 22.964844 18.550781 24.898438 19.003906 25.773438 C 19.066406 25.898438 19.019531 26.046875 18.898438 26.109375 C 18.859375 26.128906 18.820312 26.140625 18.78125 26.140625 " fill-opacity="1" fill-rule="nonzero"/></g><path fill="#623e8d" d="M 17.519531 24.242188 C 17.464844 24.242188 17.410156 24.222656 17.363281 24.183594 C 17.339844 24.167969 16.804688 23.726562 16.453125 23.265625 C 16.371094 23.15625 16.390625 23 16.5 22.914062 C 16.609375 22.832031 16.765625 22.851562 16.847656 22.960938 C 17.167969 23.375 17.675781 23.792969 17.679688 23.796875 C 17.785156 23.886719 17.800781 24.042969 17.714844 24.152344 C 17.664062 24.210938 17.59375 24.242188 17.519531 24.242188 " fill-opacity="1" fill-rule="nonzero"/><path fill="#59c362" d="M 16.507812 23.363281 C 14.527344 23.363281 13.425781 22.546875 13.082031 21.832031 C 12.84375 21.335938 12.902344 20.824219 13.234375 20.425781 C 13.523438 20.082031 13.929688 19.9375 14.371094 20.027344 C 15.355469 20.21875 16.390625 21.457031 16.890625 23.039062 C 16.914062 23.113281 16.898438 23.195312 16.855469 23.257812 C 16.808594 23.324219 16.734375 23.359375 16.65625 23.363281 C 16.605469 23.363281 16.558594 23.363281 16.507812 23.363281 " fill-opacity="1" fill-rule="nonzero"/><path fill="#623e8d" d="M 19.347656 25.203125 C 19.261719 25.203125 19.175781 25.160156 19.132812 25.078125 C 19.0625 24.960938 19.101562 24.808594 19.222656 24.738281 C 19.996094 24.289062 20.304688 23.917969 20.308594 23.914062 C 20.398438 23.808594 20.554688 23.792969 20.660156 23.882812 C 20.765625 23.96875 20.78125 24.125 20.695312 24.230469 C 20.683594 24.25 20.335938 24.671875 19.472656 25.171875 C 19.433594 25.191406 19.390625 25.203125 19.347656 25.203125 " fill-opacity="1" fill-rule="nonzero"/><path fill="#b2de5b" d="M 20.503906 24.324219 C 20.433594 24.324219 20.363281 24.292969 20.316406 24.238281 C 20.253906 24.167969 20.238281 24.074219 20.269531 23.988281 C 20.761719 22.664062 21.296875 21.941406 21.851562 21.835938 C 22.046875 21.800781 22.339844 21.820312 22.625 22.140625 C 22.820312 22.359375 22.878906 22.628906 22.792969 22.902344 C 22.605469 23.5 21.75 24.039062 20.558594 24.316406 C 20.539062 24.320312 20.519531 24.324219 20.503906 24.324219 " fill-opacity="1" fill-rule="nonzero"/></svg>