<svg xmlns="http://www.w3.org/2000/svg" xmlns:xlink="http://www.w3.org/1999/xlink" width="40" zoomAndPan="magnify" viewBox="0 0 30 30.000001" height="40" preserveAspectRatio="xMidYMid meet" version="1.0"><defs><clipPath id="c64e12b2b5"><path d="M 3.386719 2.902344 L 26.613281 2.902344 L 26.613281 26.128906 L 3.386719 26.128906 Z M 3.386719 2.902344 " clip-rule="nonzero"/></clipPath></defs><g clip-path="url(#c64e12b2b5)"><path fill="#d9372a" d="M 15 2.902344 C 8.582031 2.902344 3.386719 8.101562 3.386719 14.515625 C 3.386719 20.933594 8.582031 26.128906 15 26.128906 C 21.417969 26.128906 26.613281 20.933594 26.613281 14.515625 C 26.613281 8.101562 21.417969 2.902344 15 2.902344 Z M 15 23.804688 C 9.878906 23.804688 5.710938 19.636719 5.710938 14.515625 C 5.710938 9.394531 9.878906 5.226562 15 5.226562 C 20.121094 5.226562 24.289062 9.394531 24.289062 14.515625 C 24.289062 19.636719 20.121094 23.804688 15 23.804688 Z M 15 23.804688 " fill-opacity="1" fill-rule="nonzero"/></g></svg>