<svg xmlns="http://www.w3.org/2000/svg" xmlns:xlink="http://www.w3.org/1999/xlink" width="40" zoomAndPan="magnify" viewBox="0 0 30 30.000001" height="40" preserveAspectRatio="xMidYMid meet" version="1.0"><defs><clipPath id="c61617b256"><path d="M 3.386719 2.902344 L 26.613281 2.902344 L 26.613281 26.128906 L 3.386719 26.128906 Z M 3.386719 2.902344 " clip-rule="nonzero"/></clipPath></defs><g clip-path="url(#c61617b256)"><path fill="#d9372a" d="M 19.976562 17.503906 L 18.921875 17.503906 L 18.558594 17.136719 C 19.859375 15.632812 20.640625 13.671875 20.640625 11.53125 C 20.640625 6.765625 16.777344 2.902344 12.015625 2.902344 C 7.25 2.902344 3.386719 6.765625 3.386719 11.53125 C 3.386719 16.292969 7.25 20.15625 12.015625 20.15625 C 14.15625 20.15625 16.113281 19.375 17.621094 18.078125 L 17.984375 18.445312 L 17.984375 19.492188 L 24.621094 26.117188 L 26.601562 24.136719 Z M 12.015625 17.503906 C 8.714844 17.503906 6.042969 14.828125 6.042969 11.53125 C 6.042969 8.230469 8.714844 5.558594 12.015625 5.558594 C 15.3125 5.558594 17.984375 8.230469 17.984375 11.53125 C 17.984375 14.828125 15.3125 17.503906 12.015625 17.503906 Z M 12.015625 17.503906 " fill-opacity="1" fill-rule="nonzero"/></g></svg>