<svg xmlns="http://www.w3.org/2000/svg" xmlns:xlink="http://www.w3.org/1999/xlink" width="40" zoomAndPan="magnify" viewBox="0 0 30 30.000001" height="40" preserveAspectRatio="xMidYMid meet" version="1.0"><defs><clipPath id="713a396d6b"><path d="M 3.386719 2.902344 L 26.613281 2.902344 L 26.613281 26.128906 L 3.386719 26.128906 Z M 3.386719 2.902344 " clip-rule="nonzero"/></clipPath></defs><path fill="#ffffff" d="M 14.972656 13.957031 L 20.585938 10.453125 C 20.527344 10.445312 20.464844 10.4375 20.402344 10.4375 L 9.542969 10.4375 C 9.476562 10.4375 9.417969 10.445312 9.355469 10.453125 Z M 14.972656 13.957031 " fill-opacity="1" fill-rule="nonzero"/><path fill="#ffffff" d="M 15.324219 15.308594 C 15.316406 15.316406 15.308594 15.316406 15.300781 15.320312 C 15.292969 15.328125 15.285156 15.332031 15.277344 15.335938 C 15.230469 15.359375 15.1875 15.375 15.140625 15.386719 C 15.136719 15.390625 15.128906 15.390625 15.125 15.390625 C 15.074219 15.402344 15.023438 15.410156 14.972656 15.410156 C 14.917969 15.410156 14.867188 15.402344 14.816406 15.390625 C 14.8125 15.390625 14.808594 15.390625 14.800781 15.386719 C 14.757812 15.375 14.710938 15.359375 14.667969 15.335938 C 14.65625 15.332031 14.648438 15.328125 14.640625 15.320312 C 14.632812 15.316406 14.625 15.316406 14.617188 15.308594 L 8.378906 11.417969 C 8.367188 11.484375 8.359375 11.550781 8.359375 11.621094 L 8.359375 17.867188 C 8.359375 18.519531 8.886719 19.046875 9.542969 19.046875 L 20.402344 19.046875 C 21.054688 19.046875 21.582031 18.519531 21.582031 17.867188 L 21.582031 11.621094 C 21.582031 11.550781 21.578125 11.484375 21.566406 11.417969 Z M 15.324219 15.308594 " fill-opacity="1" fill-rule="nonzero"/><g clip-path="url(#713a396d6b)"><path fill="#ffffff" d="M 15.003906 26.121094 C 8.601562 26.121094 3.394531 20.914062 3.394531 14.511719 C 3.394531 8.109375 8.601562 2.902344 15.003906 2.902344 C 21.40625 2.902344 26.613281 8.109375 26.613281 14.511719 C 26.613281 20.914062 21.40625 26.121094 15.003906 26.121094 Z M 15.003906 4.046875 C 9.234375 4.046875 4.539062 8.742188 4.539062 14.511719 C 4.539062 20.28125 9.234375 24.976562 15.003906 24.976562 C 20.773438 24.976562 25.46875 20.28125 25.46875 14.511719 C 25.46875 8.742188 20.773438 4.046875 15.003906 4.046875 Z M 15.003906 4.046875 " fill-opacity="1" fill-rule="nonzero"/></g></svg>