<svg xmlns="http://www.w3.org/2000/svg" xmlns:xlink="http://www.w3.org/1999/xlink" width="40" zoomAndPan="magnify" viewBox="0 0 30 30.000001" height="40" preserveAspectRatio="xMidYMid meet" version="1.0"><defs><clipPath id="2a8822cdf7"><path d="M 7.746094 17.007812 L 26.140625 17.007812 L 26.140625 23.820312 L 7.746094 23.820312 Z M 7.746094 17.007812 " clip-rule="nonzero"/></clipPath><clipPath id="de26aa2dfa"><path d="M 19.425781 11.769531 L 26.601562 11.769531 L 26.601562 22.871094 L 19.425781 22.871094 Z M 19.425781 11.769531 " clip-rule="nonzero"/></clipPath><clipPath id="3b207f8287"><path d="M 7 11 L 26.613281 11 L 26.613281 23 L 7 23 Z M 7 11 " clip-rule="nonzero"/></clipPath><clipPath id="327aff48cc"><path d="M 3.398438 9.570312 L 11.585938 9.570312 L 11.585938 17.648438 L 3.398438 17.648438 Z M 3.398438 9.570312 " clip-rule="nonzero"/></clipPath><clipPath id="cd7c3cfa1e"><path d="M 11.570312 13.605469 C 11.570312 15.832031 9.742188 17.636719 7.484375 17.636719 C 5.226562 17.636719 3.398438 15.832031 3.398438 13.605469 C 3.398438 11.378906 5.226562 9.574219 7.484375 9.574219 C 9.742188 9.574219 11.570312 11.378906 11.570312 13.605469 Z M 11.570312 13.605469 " clip-rule="nonzero"/></clipPath><clipPath id="a2ac472b6f"><path d="M 11.570312 13.605469 C 11.570312 15.832031 9.742188 17.636719 7.484375 17.636719 C 5.226562 17.636719 3.398438 15.832031 3.398438 13.605469 C 3.398438 11.378906 5.226562 9.574219 7.484375 9.574219 C 9.742188 9.574219 11.570312 11.378906 11.570312 13.605469 " clip-rule="nonzero"/></clipPath><clipPath id="2f2ef2f187"><path d="M 7.382812 21.667969 L 15.65625 13.703125 L 7.585938 5.542969 L -0.6875 13.507812 Z M 7.382812 21.667969 " clip-rule="nonzero"/></clipPath><linearGradient x1="-0.212488" gradientTransform="matrix(-5.669436, -5.730681, 5.809891, -5.592141, 10.315677, 16.467585)" y1="0" x2="1.211332" gradientUnits="userSpaceOnUse" y2="0" id="d4a2b5267b"><stop stop-opacity="1" stop-color="rgb(85.899353%, 1.998901%, 0%)" offset="0"/><stop stop-opacity="1" stop-color="rgb(85.899353%, 1.998901%, 0%)" offset="0.125"/><stop stop-opacity="1" stop-color="rgb(85.899353%, 1.998901%, 0%)" offset="0.15625"/><stop stop-opacity="1" stop-color="rgb(86.094666%, 2.194214%, 0.195312%)" offset="0.164062"/><stop stop-opacity="1" stop-color="rgb(86.485291%, 2.394104%, 0.395203%)" offset="0.171875"/><stop stop-opacity="1" stop-color="rgb(86.875916%, 2.537537%, 0.585938%)" offset="0.179688"/><stop stop-opacity="1" stop-color="rgb(87.084961%, 2.688599%, 0.785828%)" offset="0.1875"/><stop stop-opacity="1" stop-color="rgb(87.30011%, 2.89917%, 0.999451%)" offset="0.191406"/><stop stop-opacity="1" stop-color="rgb(87.503052%, 3.09906%, 1.199341%)" offset="0.195312"/><stop stop-opacity="1" stop-color="rgb(87.649536%, 3.09906%, 1.199341%)" offset="0.203125"/><stop stop-opacity="1" stop-color="rgb(87.797546%, 3.291321%, 1.391602%)" offset="0.210937"/><stop stop-opacity="1" stop-color="rgb(87.986755%, 3.491211%, 1.591492%)" offset="0.21875"/><stop stop-opacity="1" stop-color="rgb(88.371277%, 3.681946%, 1.782227%)" offset="0.226562"/><stop stop-opacity="1" stop-color="rgb(88.783264%, 3.886414%, 1.986694%)" offset="0.230469"/><stop stop-opacity="1" stop-color="rgb(88.999939%, 3.907776%, 2.008057%)" offset="0.234375"/><stop stop-opacity="1" stop-color="rgb(88.999939%, 4.103088%, 2.203369%)" offset="0.242187"/><stop stop-opacity="1" stop-color="rgb(89.193726%, 4.298401%, 2.398682%)" offset="0.25"/><stop stop-opacity="1" stop-color="rgb(89.584351%, 4.489136%, 2.542114%)" offset="0.257812"/><stop stop-opacity="1" stop-color="rgb(89.788818%, 4.689026%, 2.69165%)" offset="0.265625"/><stop stop-opacity="1" stop-color="rgb(90.005493%, 4.899597%, 2.89917%)" offset="0.269531"/><stop stop-opacity="1" stop-color="rgb(90.211487%, 5.099487%, 3.09906%)" offset="0.273437"/><stop stop-opacity="1" stop-color="rgb(90.405273%, 5.099487%, 3.09906%)" offset="0.28125"/><stop stop-opacity="1" stop-color="rgb(90.791321%, 5.291748%, 3.291321%)" offset="0.296875"/><stop stop-opacity="1" stop-color="rgb(91.175842%, 5.674744%, 3.675842%)" offset="0.3125"/><stop stop-opacity="1" stop-color="rgb(91.583252%, 5.885315%, 3.886414%)" offset="0.316406"/><stop stop-opacity="1" stop-color="rgb(91.799927%, 5.906677%, 3.90625%)" offset="0.320312"/><stop stop-opacity="1" stop-color="rgb(91.799927%, 6.10199%, 4.101562%)" offset="0.324219"/><stop stop-opacity="1" stop-color="rgb(91.799927%, 6.297302%, 4.298401%)" offset="0.328125"/><stop stop-opacity="1" stop-color="rgb(91.993713%, 6.297302%, 4.298401%)" offset="0.335937"/><stop stop-opacity="1" stop-color="rgb(92.193604%, 6.298828%, 4.299927%)" offset="0.34375"/><stop stop-opacity="1" stop-color="rgb(92.338562%, 6.483459%, 4.484558%)" offset="0.351562"/><stop stop-opacity="1" stop-color="rgb(92.687988%, 6.689453%, 4.690552%)" offset="0.355469"/><stop stop-opacity="1" stop-color="rgb(92.89856%, 6.710815%, 4.711914%)" offset="0.359375"/><stop stop-opacity="1" stop-color="rgb(92.900085%, 6.904602%, 4.905701%)" offset="0.367187"/><stop stop-opacity="1" stop-color="rgb(93.096924%, 7.099915%, 5.099487%)" offset="0.375"/><stop stop-opacity="1" stop-color="rgb(93.482971%, 7.287598%, 5.28717%)" offset="0.390625"/><stop stop-opacity="1" stop-color="rgb(93.695068%, 7.487488%, 5.487061%)" offset="0.398437"/><stop stop-opacity="1" stop-color="rgb(93.907166%, 7.501221%, 5.502319%)" offset="0.40625"/><stop stop-opacity="1" stop-color="rgb(94.099426%, 7.650757%, 5.702209%)" offset="0.414062"/><stop stop-opacity="1" stop-color="rgb(94.293213%, 7.797241%, 5.897522%)" offset="0.421875"/><stop stop-opacity="1" stop-color="rgb(94.587708%, 7.893372%, 5.993652%)" offset="0.429687"/><stop stop-opacity="1" stop-color="rgb(94.786072%, 8.087158%, 6.187439%)" offset="0.4375"/><stop stop-opacity="1" stop-color="rgb(94.891357%, 8.192444%, 6.292725%)" offset="0.453125"/><stop stop-opacity="1" stop-color="rgb(95.095825%, 8.395386%, 6.495667%)" offset="0.46875"/><stop stop-opacity="1" stop-color="rgb(95.394897%, 8.694458%, 6.794739%)" offset="0.476562"/><stop stop-opacity="1" stop-color="rgb(95.602417%, 8.898926%, 6.999207%)" offset="0.484375"/><stop stop-opacity="1" stop-color="rgb(95.903015%, 8.999634%, 7.099915%)" offset="0.5"/><stop stop-opacity="1" stop-color="rgb(96.29364%, 9.19342%, 7.293701%)" offset="0.515625"/><stop stop-opacity="1" stop-color="rgb(96.592712%, 9.393311%, 7.493591%)" offset="0.523438"/><stop stop-opacity="1" stop-color="rgb(96.79718%, 9.40094%, 7.501221%)" offset="0.53125"/><stop stop-opacity="1" stop-color="rgb(96.899414%, 9.501648%, 7.575989%)" offset="0.539062"/><stop stop-opacity="1" stop-color="rgb(96.899414%, 9.69696%, 7.722473%)" offset="0.546875"/><stop stop-opacity="1" stop-color="rgb(97.093201%, 9.797668%, 7.797241%)" offset="0.5625"/><stop stop-opacity="1" stop-color="rgb(97.366333%, 9.896851%, 7.896423%)" offset="0.570312"/><stop stop-opacity="1" stop-color="rgb(97.523499%, 10.096741%, 8.096313%)" offset="0.578125"/><stop stop-opacity="1" stop-color="rgb(97.798157%, 10.198975%, 8.198547%)" offset="0.59375"/><stop stop-opacity="1" stop-color="rgb(97.996521%, 10.299683%, 8.299255%)" offset="0.601562"/><stop stop-opacity="1" stop-color="rgb(98.00415%, 10.499573%, 8.500671%)" offset="0.609375"/><stop stop-opacity="1" stop-color="rgb(98.204041%, 10.598755%, 8.599854%)" offset="0.625"/><stop stop-opacity="1" stop-color="rgb(98.399353%, 10.598755%, 8.599854%)" offset="0.640625"/><stop stop-opacity="1" stop-color="rgb(98.498535%, 10.697937%, 8.699036%)" offset="0.648437"/><stop stop-opacity="1" stop-color="rgb(98.698425%, 10.897827%, 8.898926%)" offset="0.65625"/><stop stop-opacity="1" stop-color="rgb(98.799133%, 10.998535%, 8.999634%)" offset="0.6875"/><stop stop-opacity="1" stop-color="rgb(98.89679%, 11.096191%, 9.09729%)" offset="0.703125"/><stop stop-opacity="1" stop-color="rgb(99.095154%, 11.296082%, 9.295654%)" offset="0.71875"/><stop stop-opacity="1" stop-color="rgb(99.298096%, 11.398315%, 9.397888%)" offset="0.734375"/><stop stop-opacity="1" stop-color="rgb(99.497986%, 11.399841%, 9.399414%)" offset="0.75"/><stop stop-opacity="1" stop-color="rgb(99.699402%, 11.499023%, 9.498596%)" offset="0.875"/><stop stop-opacity="1" stop-color="rgb(99.899292%, 11.698914%, 9.698486%)" offset="1"/></linearGradient></defs><path fill="#ffdc00" d="M 25.585938 11.339844 L 8.296875 11.339844 L 15.847656 5.449219 C 16.488281 4.949219 17.394531 4.949219 18.035156 5.449219 L 25.585938 11.339844 " fill-opacity="1" fill-rule="nonzero"/><path fill="#ffae0e" d="M 25.585938 11.339844 C 25.019531 11.769531 24.394531 12.25 23.746094 12.757812 C 22.3125 13.875 20.761719 15.109375 19.503906 16.113281 C 18.019531 17.304688 16.941406 18.179688 16.941406 18.179688 C 16.941406 18.179688 15.863281 17.304688 14.378906 16.113281 C 13.121094 15.109375 11.570312 13.875 10.136719 12.757812 C 9.484375 12.25 8.859375 11.769531 8.296875 11.339844 L 25.585938 11.339844 " fill-opacity="1" fill-rule="nonzero"/><g clip-path="url(#2a8822cdf7)"><path fill="#ffdc00" d="M 26.128906 22.863281 C 25.691406 23.445312 24.988281 23.820312 24.203125 23.820312 L 9.675781 23.820312 C 8.890625 23.820312 8.191406 23.445312 7.753906 22.863281 L 14.386719 17.058594 L 14.441406 17.007812 L 14.6875 17.203125 L 16.941406 18.960938 L 19.441406 17.007812 L 19.496094 17.054688 L 26.128906 22.863281 " fill-opacity="1" fill-rule="nonzero"/></g><g clip-path="url(#de26aa2dfa)"><path fill="#ffdc00" d="M 26.601562 13.167969 L 26.601562 21.453125 C 26.601562 21.980469 26.425781 22.46875 26.128906 22.863281 L 20.164062 17.644531 L 19.496094 17.054688 L 19.441406 17.007812 L 25.925781 11.953125 C 25.925781 11.949219 25.929688 11.945312 25.933594 11.945312 L 26.144531 11.78125 C 26.144531 11.78125 26.207031 11.867188 26.230469 11.902344 C 26.238281 11.917969 26.246094 11.929688 26.253906 11.941406 C 26.476562 12.300781 26.601562 12.71875 26.601562 13.167969 " fill-opacity="1" fill-rule="nonzero"/></g><path fill="#ffdc00" d="M 14.441406 17.007812 L 14.386719 17.058594 L 13.714844 17.644531 L 7.753906 22.863281 C 7.457031 22.46875 7.277344 21.980469 7.277344 21.453125 L 7.277344 13.167969 C 7.277344 12.703125 7.414062 12.269531 7.648438 11.902344 C 7.664062 11.878906 7.714844 11.816406 7.765625 11.757812 C 7.769531 11.753906 7.773438 11.75 7.773438 11.746094 L 7.890625 11.65625 L 14.441406 17.007812 " fill-opacity="1" fill-rule="nonzero"/><g clip-path="url(#3b207f8287)"><path fill="#ffc600" d="M 25.496094 12.382812 C 25.183594 12.695312 24.859375 13.019531 24.53125 13.34375 C 22.613281 15.253906 20.554688 17.261719 20.164062 17.644531 C 20.121094 17.683594 20.097656 17.707031 20.097656 17.707031 C 20.097656 17.707031 20.328125 17.933594 20.679688 18.289062 C 21.921875 19.527344 24.703125 22.328125 24.585938 22.4375 C 24.398438 22.609375 18.859375 18.601562 18.859375 18.601562 L 17.472656 19.601562 C 17.359375 19.679688 17.226562 19.734375 17.085938 19.75 C 17.039062 19.757812 16.992188 19.757812 16.941406 19.757812 C 16.886719 19.757812 16.839844 19.757812 16.796875 19.75 C 16.652344 19.734375 16.519531 19.679688 16.40625 19.601562 L 15.023438 18.601562 C 15.023438 18.601562 9.445312 22.574219 9.292969 22.4375 C 9.179688 22.328125 11.960938 19.527344 13.199219 18.289062 C 13.554688 17.933594 13.78125 17.707031 13.78125 17.707031 C 13.78125 17.707031 13.757812 17.6875 13.714844 17.644531 C 13.328125 17.265625 11.269531 15.253906 9.347656 13.34375 C 9.019531 13.015625 8.695312 12.691406 8.382812 12.382812 C 8.238281 12.234375 8.09375 12.089844 7.953125 11.949219 C 7.890625 11.882812 7.828125 11.820312 7.765625 11.757812 C 7.765625 11.757812 7.765625 11.757812 7.761719 11.753906 L 7.773438 11.746094 L 7.890625 11.65625 L 7.957031 11.605469 L 8.296875 11.339844 C 8.628906 11.589844 8.980469 11.863281 9.347656 12.144531 C 9.605469 12.34375 9.867188 12.546875 10.136719 12.757812 C 13.265625 15.195312 16.941406 18.179688 16.941406 18.179688 C 16.941406 18.179688 20.617188 15.195312 23.746094 12.757812 C 24.011719 12.546875 24.277344 12.34375 24.53125 12.144531 C 24.898438 11.863281 25.253906 11.589844 25.585938 11.339844 L 25.925781 11.605469 L 26.144531 11.78125 C 26.144531 11.78125 25.640625 12.234375 25.496094 12.382812 " fill-opacity="1" fill-rule="nonzero"/></g><path fill="#f5f5f7" d="M 24.53125 8.167969 L 24.53125 12.144531 C 24.277344 12.34375 24.011719 12.546875 23.746094 12.757812 C 20.617188 15.195312 16.941406 18.179688 16.941406 18.179688 C 16.941406 18.179688 13.265625 15.195312 10.136719 12.757812 C 9.867188 12.546875 9.605469 12.34375 9.347656 12.144531 L 9.347656 6.085938 L 22.421875 6.085938 L 24.53125 8.167969 " fill-opacity="1" fill-rule="nonzero"/><path fill="#d3d2cd" d="M 24.53125 8.167969 L 22.421875 8.167969 L 22.421875 6.085938 Z M 24.53125 8.167969 " fill-opacity="1" fill-rule="nonzero"/><path fill="#d3d2cd" d="M 15.691406 11.847656 C 15.691406 12.59375 16.011719 12.984375 16.53125 12.984375 C 17.164062 12.984375 17.640625 12.585938 17.886719 11.488281 C 18.117188 10.488281 17.824219 9.933594 17.03125 9.933594 C 16.1875 9.933594 15.691406 10.820312 15.691406 11.847656 Z M 19 14.585938 C 18.558594 14.90625 17.851562 15.167969 16.804688 15.167969 C 14.828125 15.167969 13.460938 13.847656 13.460938 11.707031 C 13.460938 9.585938 14.882812 7.875 17.21875 7.875 C 18.980469 7.875 20.417969 8.984375 20.417969 10.882812 C 20.417969 12.464844 19.578125 13.410156 18.558594 13.410156 C 18.0625 13.410156 17.730469 13.195312 17.765625 12.644531 C 17.472656 13.125 17.085938 13.410156 16.460938 13.410156 C 15.773438 13.410156 15.226562 12.914062 15.226562 11.890625 C 15.226562 10.550781 16.011719 9.515625 17.042969 9.515625 C 17.84375 9.515625 18.097656 9.996094 18.167969 10.300781 L 18.335938 9.601562 L 18.761719 9.601562 L 18.214844 12.132812 C 18.074219 12.785156 18.277344 12.984375 18.621094 12.984375 C 19.394531 12.984375 19.933594 12.175781 19.933594 10.917969 C 19.933594 9.324219 18.832031 8.300781 17.183594 8.300781 C 15.191406 8.300781 13.964844 9.769531 13.957031 11.707031 C 13.949219 13.445312 15.066406 14.722656 16.828125 14.722656 C 17.542969 14.722656 18.257812 14.578125 18.847656 14.195312 L 19 14.585938 " fill-opacity="1" fill-rule="nonzero"/><g clip-path="url(#327aff48cc)"><g clip-path="url(#cd7c3cfa1e)"><g clip-path="url(#a2ac472b6f)"><g clip-path="url(#2f2ef2f187)"><path fill="url(#d4a2b5267b)" d="M 7.382812 21.667969 L 15.65625 13.703125 L 7.585938 5.542969 L -0.6875 13.507812 Z M 7.382812 21.667969 " fill-rule="nonzero"/></g></g></g></g><path fill="#ffffff" d="M 6.566406 11.554688 L 7.996094 11.554688 L 7.996094 15.65625 L 7.09375 15.65625 L 7.09375 12.414062 L 6.566406 12.414062 L 6.566406 11.554688 " fill-opacity="1" fill-rule="nonzero"/></svg>