<svg xmlns="http://www.w3.org/2000/svg" xmlns:xlink="http://www.w3.org/1999/xlink" width="40" zoomAndPan="magnify" viewBox="0 0 30 30.000001" height="40" preserveAspectRatio="xMidYMid meet" version="1.0"><defs><clipPath id="be22080665"><path d="M 6.871094 2.902344 L 22.839844 2.902344 L 22.839844 26.128906 L 6.871094 26.128906 Z M 6.871094 2.902344 " clip-rule="nonzero"/></clipPath></defs><g clip-path="url(#be22080665)"><path fill="#ffffff" d="M 14.855469 2.90625 C 10.445312 2.90625 6.871094 6.546875 6.871094 11.035156 C 6.871094 17.128906 14.855469 26.125 14.855469 26.125 C 14.855469 26.125 22.839844 17.128906 22.839844 11.035156 C 22.839844 6.546875 19.261719 2.90625 14.855469 2.90625 Z M 14.855469 13.9375 C 13.28125 13.9375 12.003906 12.636719 12.003906 11.035156 C 12.003906 9.433594 13.28125 8.132812 14.855469 8.132812 C 16.429688 8.132812 17.707031 9.433594 17.707031 11.035156 C 17.707031 12.636719 16.429688 13.9375 14.855469 13.9375 Z M 14.855469 13.9375 " fill-opacity="1" fill-rule="nonzero"/></g></svg>