<svg xmlns="http://www.w3.org/2000/svg" xmlns:xlink="http://www.w3.org/1999/xlink" width="40" zoomAndPan="magnify" viewBox="0 0 30 30.000001" height="40" preserveAspectRatio="xMidYMid meet" version="1.0"><defs><clipPath id="c1f010b4ab"><path d="M 2 6 L 28.066406 6 L 28.066406 23.3125 L 2 23.3125 Z M 2 6 " clip-rule="nonzero"/></clipPath></defs><g clip-path="url(#c1f010b4ab)"><path fill="#000000" d="M 13.035156 6.070312 C 13.691406 5.894531 14.542969 6.140625 14.914062 6.207031 C 15.441406 6.363281 16.71875 6.273438 16.910156 6.304688 C 16.832031 6.304688 15.855469 6.292969 15.769531 6.324219 C 15.917969 6.378906 16.003906 6.359375 16.152344 6.363281 C 17.527344 6.347656 16.53125 6.3125 19.46875 6.933594 C 19.597656 6.960938 19.726562 6.972656 19.851562 7.011719 C 19.851562 7.011719 20.753906 7.660156 20.753906 7.660156 C 21.140625 7.789062 22.222656 8.089844 22.242188 8.09375 C 22.277344 8.152344 22.238281 8.105469 22.648438 8.519531 C 22.703125 8.578125 22.726562 8.675781 22.808594 8.703125 C 23.640625 9.058594 23.078125 8.722656 24.09375 9.414062 C 24.105469 9.421875 24.515625 9.695312 24.527344 9.699219 C 24.53125 9.710938 25.085938 10.402344 25.226562 10.566406 C 25.230469 10.578125 25.53125 11.328125 25.589844 11.402344 C 26.148438 11.808594 26.082031 11.539062 26.6875 12.375 C 26.886719 13.234375 26.777344 13.0625 27.097656 13.589844 C 27.140625 13.644531 27.152344 13.714844 27.171875 13.78125 C 27.457031 14.6875 27.382812 14.433594 27.394531 14.636719 C 28.015625 15.554688 28 17.492188 28.046875 17.617188 C 28.066406 17.804688 27.867188 19.148438 27.863281 19.160156 C 27.605469 20.046875 27.566406 19.96875 27.71875 20.640625 C 27.734375 20.691406 27.636719 21.085938 27.617188 21.222656 C 27.429688 21.683594 27.125 22.015625 26.46875 22.921875 C 26.46875 22.921875 25.859375 23.203125 25.859375 23.203125 C 25.859375 23.203125 25.058594 23.308594 25.058594 23.308594 C 25.011719 23.28125 24.746094 23.167969 24.640625 23.097656 C 24.421875 23.054688 24.203125 23.019531 23.988281 22.980469 C 23.554688 22.941406 23.105469 22.5625 22.867188 22.535156 C 22.472656 22.476562 22.074219 22.433594 21.679688 22.378906 C 21.648438 22.367188 21.027344 22.042969 21.027344 22.042969 C 20.890625 21.835938 20.753906 21.632812 20.621094 21.429688 C 20.476562 21.488281 20.164062 21.398438 20.0625 21.398438 C 19.988281 21.34375 19.914062 21.285156 19.835938 21.230469 C 18.675781 21.753906 18.050781 21.613281 17.757812 21.667969 C 17.078125 22.007812 17.453125 21.945312 16.339844 21.9375 C 16.289062 21.917969 16.234375 21.925781 16.183594 21.917969 C 16.132812 21.902344 15.917969 21.894531 15.867188 21.894531 C 15.808594 21.925781 15.496094 22.15625 15.488281 22.164062 C 15.464844 22.171875 15.070312 22.257812 15.046875 22.261719 C 14.9375 22.242188 14.433594 22.273438 13.984375 22.058594 C 13.957031 22.042969 13.929688 22.070312 13.90625 22.082031 C 13.804688 22.152344 13.679688 22.183594 13.585938 22.265625 C 13.582031 22.265625 13.097656 22.4375 13.089844 22.441406 C 12.902344 22.445312 12.71875 22.441406 12.535156 22.445312 C 12.34375 22.550781 11.429688 22.773438 10.621094 22.597656 C 9.355469 22.269531 9.835938 22.328125 9.132812 22.046875 C 9.097656 22.019531 8.648438 21.605469 8.640625 21.59375 C 8.402344 21.324219 8.675781 21.789062 8.121094 20.851562 C 8.039062 20.851562 7.957031 20.851562 7.875 20.851562 C 7.875 20.851562 7.601562 20.558594 7.601562 20.558594 C 7.5625 20.441406 7.539062 20.316406 7.5 20.199219 C 7.496094 20.007812 7.5 19.816406 7.5 19.625 C 7.453125 19.625 7.09375 19.597656 7.054688 19.578125 C 4.582031 18.421875 4.390625 18.917969 3.179688 18.324219 C 3.03125 18.242188 2.957031 18.261719 2.867188 18.148438 C 2.535156 17.660156 2.621094 18.125 2.4375 17.3125 C 2.429688 16.742188 2.445312 16.738281 2.425781 16.714844 C 2.210938 16.371094 2.222656 16.304688 2.113281 16.148438 C 2.085938 16.050781 1.9375 15.402344 2.03125 15.140625 C 2.035156 14.917969 2.058594 14.9375 2.589844 13.894531 C 2.609375 13.828125 2.566406 13.761719 2.550781 13.695312 C 2.445312 13.121094 2.480469 13.15625 2.597656 12.664062 C 2.597656 12.664062 2.960938 12.078125 2.960938 12.078125 C 3.011719 12.046875 3.460938 11.617188 3.46875 11.609375 C 3.523438 11.585938 3.582031 11.566406 3.636719 11.546875 C 3.640625 11.199219 3.605469 11.308594 3.742188 10.742188 C 3.988281 10.476562 3.832031 10.476562 5.054688 9.640625 C 5.105469 9.558594 5.25 9.464844 5.328125 9.382812 C 5.339844 9.375 5.9375 8.835938 6.078125 8.789062 C 6.253906 8.761719 6.894531 8.554688 7 8.539062 C 7.058594 8.535156 7.117188 8.546875 7.171875 8.527344 C 7.261719 8.527344 7.347656 8.496094 7.4375 8.496094 C 7.535156 8.367188 7.660156 8.261719 7.820312 8.054688 C 8.652344 7.585938 8.050781 7.738281 8.976562 7.578125 C 9.058594 7.554688 9.148438 7.542969 9.230469 7.566406 C 9.230469 7.566406 9.496094 7.585938 9.496094 7.585938 C 9.585938 7.617188 9.679688 7.589844 9.769531 7.585938 C 9.820312 7.484375 10.058594 7.316406 10.164062 7.214844 C 11.097656 6.75 10.914062 6.824219 12.058594 6.835938 C 12.097656 6.851562 12.140625 6.871094 12.179688 6.882812 C 12.214844 6.804688 12.652344 6.175781 12.699219 6.164062 C 12.8125 6.132812 12.925781 6.113281 13.035156 6.070312 M 13.375 6.210938 C 13.300781 6.226562 13.222656 6.246094 13.148438 6.265625 C 13.101562 6.265625 13.054688 6.277344 13.015625 6.296875 C 12.910156 6.320312 12.503906 6.914062 12.496094 6.96875 C 12.484375 6.953125 12.445312 6.949219 12.441406 6.972656 C 12.449219 6.984375 12.476562 7 12.492188 6.984375 C 12.566406 7.019531 12.640625 7.039062 12.710938 7.070312 C 12.757812 7.089844 12.8125 7.121094 12.859375 7.09375 C 12.859375 7.09375 13.511719 6.851562 13.652344 6.792969 C 13.664062 6.789062 14.359375 6.65625 15.179688 6.828125 C 15.339844 6.839844 15.832031 6.820312 16.039062 6.839844 C 16.011719 6.851562 15.980469 6.863281 15.953125 6.875 C 15.902344 6.871094 15.851562 6.882812 15.800781 6.898438 C 14.878906 7.15625 14.867188 7.046875 14.457031 7.035156 C 14.371094 6.992188 14.269531 7.027344 14.179688 7.03125 C 13.644531 7.023438 13.554688 7.054688 12.875 7.410156 C 12.875 7.410156 12.023438 7.09375 12.007812 7.089844 C 11.941406 7.058594 11.082031 7.066406 11.039062 7.09375 C 10.925781 7.121094 10.824219 7.1875 10.714844 7.238281 C 10.492188 7.34375 10.539062 7.238281 10.328125 7.464844 C 10.328125 7.464844 9.996094 7.785156 9.996094 7.785156 C 9.996094 7.785156 9.066406 7.832031 8.851562 7.851562 C 8.199219 8.261719 8.386719 8.113281 7.996094 8.464844 C 7.914062 8.558594 7.789062 8.617188 7.730469 8.730469 C 7.453125 9.28125 7.542969 9.128906 7.382812 9.1875 C 7.34375 9.183594 7.300781 9.179688 7.265625 9.203125 C 7.253906 9.203125 6.804688 9.261719 6.789062 9.269531 C 6.035156 9.785156 5.550781 10.074219 5.238281 10.789062 C 5.265625 10.808594 5.296875 10.824219 5.328125 10.839844 C 4.597656 11.984375 3.824219 11.882812 3.71875 12.695312 C 3.695312 12.738281 3.691406 12.792969 3.71875 12.835938 C 3.734375 12.902344 3.753906 12.972656 3.777344 13.035156 C 3.777344 13.035156 4.464844 13.125 4.464844 13.125 C 4.492188 12.945312 4.503906 12.984375 4.511719 12.886719 C 4.527344 12.835938 4.535156 12.777344 4.570312 12.734375 C 4.621094 12.671875 4.890625 12.222656 4.9375 12.167969 C 4.941406 12.164062 5.394531 11.796875 5.40625 11.789062 C 5.46875 11.761719 5.535156 11.757812 5.597656 11.738281 C 5.628906 11.738281 5.664062 11.738281 5.699219 11.738281 C 5.734375 11.601562 5.707031 11.289062 5.796875 11.097656 C 5.878906 11.023438 5.964844 10.863281 6.152344 10.621094 C 6.394531 10.429688 6.699219 10.121094 6.859375 10.019531 C 6.871094 10.015625 7.695312 9.621094 7.789062 9.589844 C 7.136719 10.132812 6.210938 10.515625 6.054688 11.351562 L 6.054688 11.339844 C 6.046875 11.425781 6.050781 11.515625 6.035156 11.601562 L 6.050781 11.601562 C 6.109375 11.632812 6.085938 11.609375 6.679688 11.703125 L 6.667969 11.703125 C 6.742188 11.710938 6.820312 11.714844 6.894531 11.714844 C 7.050781 11.519531 7.160156 11.425781 7.175781 10.835938 C 7.210938 11 7.207031 11.050781 7.238281 11.144531 C 7.253906 11.417969 7.320312 11.054688 7.230469 11.84375 C 7.960938 12.363281 6.957031 11.9375 8.730469 11.953125 C 8.730469 11.953125 8.972656 11.996094 9.511719 12.058594 C 9.773438 11.523438 9.699219 11.535156 9.785156 11.335938 C 9.785156 11.347656 9.785156 11.851562 9.785156 11.863281 C 9.78125 12.066406 10.082031 12.632812 10.113281 12.757812 C 10.125 12.847656 10.125 12.941406 10.15625 13.023438 C 10.207031 13.832031 10.6875 14.375 10.734375 14.449219 C 9.882812 13.964844 10.117188 12.648438 9.484375 12.402344 C 9.097656 12.265625 9.535156 12.285156 8.042969 12.285156 C 7.925781 12.285156 7.84375 12.386719 7.585938 12.542969 C 7.511719 12.582031 7.21875 13.375 7.214844 13.398438 C 7.121094 14.152344 7.109375 13.996094 7.164062 14.121094 C 7.210938 14.207031 7.222656 14.304688 7.285156 14.378906 C 7.261719 14.402344 7.300781 14.445312 7.324219 14.421875 C 7.511719 14.613281 8.378906 14.835938 8.800781 15.363281 C 8.175781 15.207031 7.320312 14.796875 7.308594 14.785156 C 6.886719 14.382812 7.074219 14.660156 6.886719 14.320312 C 6.875 14.261719 6.777344 14.003906 6.746094 13.941406 C 6.746094 13.921875 6.742188 13.902344 6.742188 13.886719 C 6.453125 13.882812 6.0625 13.882812 6.0625 13.882812 C 6.128906 13.847656 6.597656 13.675781 6.730469 13.644531 C 6.730469 13.644531 6.996094 12.804688 6.996094 12.804688 C 7.019531 12.773438 7.027344 12.738281 7.03125 12.699219 C 7.035156 12.691406 7.175781 12.429688 7.214844 12.382812 C 7.042969 12.183594 7.035156 12.128906 6.980469 12.113281 C 6.445312 11.953125 6.414062 11.839844 5.9375 11.960938 C 5.878906 11.960938 5.667969 11.984375 5.59375 12.019531 C 5.34375 12.253906 5 12.542969 4.984375 12.601562 C 4.898438 12.875 4.699219 13.34375 4.636719 13.578125 C 4.605469 13.636719 4.613281 14.304688 4.636719 14.355469 C 4.664062 14.523438 4.722656 14.6875 4.765625 14.855469 C 4.78125 14.9375 4.859375 14.976562 4.921875 15.015625 C 5.019531 15.078125 5.105469 15.160156 5.203125 15.222656 C 5.5 15.257812 5.625 15.203125 5.917969 15.117188 C 6.40625 16.609375 6.257812 16.089844 6.675781 16.769531 C 7.320312 17.175781 8.585938 17.40625 8.898438 16.703125 C 8.90625 16.640625 8.917969 16.566406 8.867188 16.519531 C 8.601562 16.25 8.644531 16.175781 7.761719 15.976562 C 7.695312 15.957031 7.699219 15.96875 7.3125 15.964844 C 7.253906 15.960938 7.234375 15.980469 7.039062 16.027344 C 6.957031 16.046875 6.871094 16.050781 6.785156 16.066406 C 6.871094 16.019531 6.933594 15.933594 7.023438 15.894531 C 7.667969 15.71875 7.816406 15.824219 8.183594 15.820312 C 8.585938 15.832031 9.421875 16.59375 9.550781 16.605469 C 9.625 16.636719 9.875 16.652344 9.886719 16.652344 C 9.910156 16.660156 9.9375 16.664062 9.957031 16.648438 C 10.265625 16.621094 10.207031 16.609375 10.296875 16.425781 C 10.324219 16.386719 10.300781 16.339844 10.292969 16.300781 C 10.300781 16.160156 10.136719 16.0625 10.066406 15.960938 C 9.085938 14.832031 9.386719 15.203125 9.253906 14.945312 C 8.308594 13.054688 8.824219 13.953125 8.621094 13.457031 C 8.613281 13.4375 8.601562 13.421875 8.253906 13.265625 C 8.402344 13.269531 8.535156 13.347656 8.679688 13.363281 C 8.789062 13.230469 8.867188 12.933594 8.976562 12.816406 C 8.925781 13.296875 8.835938 13.546875 9.140625 14.21875 C 9.148438 14.277344 9.167969 14.332031 9.199219 14.382812 C 9.257812 14.710938 9.398438 14.796875 9.714844 15.273438 C 9.746094 15.316406 10.382812 15.832031 10.390625 15.835938 C 11.242188 15.929688 10.707031 15.898438 11.15625 15.804688 C 11.191406 15.796875 11.234375 15.796875 11.261719 15.769531 C 11.429688 15.605469 11.40625 15.613281 11.40625 15.449219 C 11.371094 15.101562 11.476562 15.359375 11.25 14.535156 C 11.238281 14.457031 11.328125 14.136719 11.351562 13.917969 C 11.414062 13.824219 11.847656 13.136719 11.894531 13.054688 C 12.089844 12.398438 12.246094 11.78125 11.660156 11.445312 C 11.222656 11.238281 11.398438 11.246094 10.707031 11.253906 C 10.507812 10.910156 10.113281 10.4375 10.105469 10.429688 C 10.058594 10.417969 9.570312 10.332031 9.464844 10.398438 C 9.003906 10.71875 9.109375 10.523438 8.976562 10.957031 C 8.953125 11.035156 8.925781 11.109375 8.90625 11.1875 C 8.886719 11.0625 8.953125 10.691406 8.945312 10.589844 C 8.957031 10.558594 8.960938 10.515625 8.988281 10.492188 C 9.105469 10.390625 9.34375 10.230469 9.414062 10.140625 C 9.535156 10.109375 9.800781 10.203125 9.988281 10.203125 C 10.054688 10.226562 10.125 10.222656 10.195312 10.238281 C 10.285156 10.292969 10.359375 10.371094 10.4375 10.441406 C 10.917969 10.796875 10.410156 10.730469 12.035156 11.226562 C 12.132812 11.257812 12.128906 11.324219 12.285156 11.441406 C 12.511719 11.164062 12.855469 10.664062 13.480469 10.660156 C 13.449219 10.597656 13.492188 10.53125 13.496094 10.464844 C 13.523438 10.382812 13.539062 10.300781 13.550781 10.214844 C 13.574219 10.15625 13.59375 10.097656 13.621094 10.042969 C 14.101562 9.171875 13.746094 9.628906 14.117188 9.214844 C 14.269531 9.0625 14.417969 8.902344 14.578125 8.757812 C 13.972656 9.652344 13.988281 9.84375 13.78125 10.644531 C 13.847656 10.636719 13.914062 10.640625 13.980469 10.636719 C 13.910156 10.660156 13.839844 10.683594 13.769531 10.699219 C 13.765625 10.714844 13.761719 10.730469 13.757812 10.746094 C 13.738281 10.742188 13.71875 10.738281 13.699219 10.738281 C 13.699219 10.707031 13.628906 10.703125 13.625 10.730469 C 13.597656 10.730469 13.570312 10.734375 13.546875 10.746094 C 13.457031 10.753906 13.164062 10.832031 13.089844 10.863281 C 12.683594 11.199219 12.679688 11.371094 12.410156 11.78125 C 12.394531 11.804688 12.398438 11.78125 12.402344 12.339844 C 12.402344 12.414062 12.246094 12.835938 12.230469 12.886719 C 12.089844 13.230469 12.347656 12.785156 11.777344 13.601562 C 11.738281 13.660156 11.675781 13.707031 11.652344 13.777344 C 11.613281 13.882812 11.542969 13.980469 11.523438 14.09375 C 11.523438 14.101562 11.507812 14.585938 11.542969 14.652344 C 11.605469 15.074219 11.65625 15.09375 11.722656 15.183594 C 11.765625 15.234375 11.796875 15.300781 11.851562 15.339844 C 12.175781 15.363281 12.183594 15.328125 12.21875 15.289062 C 12.265625 15.234375 12.320312 15.1875 12.363281 15.128906 C 12.445312 15.019531 12.570312 14.785156 12.617188 14.738281 C 12.628906 14.730469 12.980469 14.460938 13.042969 14.429688 C 13.667969 14.113281 13.527344 13.9375 13.894531 13.15625 C 14.199219 12.582031 14.203125 12.273438 15 11.441406 C 14.953125 11.5625 14.863281 11.660156 14.808594 11.777344 C 14.742188 11.847656 14.363281 12.515625 14.296875 12.59375 C 14.125 12.992188 13.90625 14.039062 13.425781 14.527344 C 13.246094 14.609375 13.070312 14.695312 12.898438 14.789062 C 12.898438 14.789062 12.738281 15.050781 12.738281 15.050781 L 12.738281 15.035156 C 12.730469 15.132812 12.730469 15.230469 12.738281 15.324219 L 12.738281 15.3125 C 12.765625 15.34375 12.796875 15.371094 12.824219 15.402344 C 13.363281 15.367188 12.640625 15.503906 13.972656 15.09375 C 14.140625 15.046875 14.714844 14.691406 14.882812 14.625 C 14.882812 14.625 15.21875 14.25 15.234375 14.230469 C 15.246094 14.207031 15.5625 13.621094 15.613281 13.578125 C 15.546875 13.785156 15.246094 14.628906 15.246094 14.628906 L 15.238281 14.613281 C 15.242188 14.714844 15.125 14.671875 15.835938 14.769531 C 15.847656 14.761719 15.859375 14.753906 15.867188 14.746094 C 16.039062 14.527344 16.367188 14.382812 16.476562 14.128906 C 16.882812 13.476562 17.171875 12.585938 17.296875 11.832031 C 17.308594 11.804688 17.601562 11.453125 17.667969 11.386719 C 17.902344 11.261719 19.128906 10.597656 19.300781 10.390625 C 19.632812 9.851562 19.507812 9.492188 19.570312 9.320312 C 19.566406 9.316406 19.5625 9.308594 19.558594 9.300781 C 19.527344 9.105469 19.535156 8.933594 19.507812 8.851562 C 19.511719 8.839844 19.515625 8.816406 19.515625 8.804688 C 19.554688 8.894531 19.726562 9.808594 19.726562 9.820312 C 19.75 9.8125 20.753906 9.714844 20.960938 9.765625 C 20.960938 9.765625 21.816406 9.835938 21.816406 9.835938 C 21.816406 9.867188 21.871094 9.859375 21.890625 9.851562 C 21.917969 9.867188 22.507812 10.015625 22.519531 10.019531 L 22.519531 10.027344 C 22.523438 10.027344 22.539062 10.027344 22.542969 10.027344 C 22.550781 9.3125 22.34375 9.105469 22.320312 8.863281 C 22.320312 8.867188 22.597656 9.300781 22.726562 9.484375 C 22.738281 9.628906 22.824219 9.984375 22.84375 10.03125 C 23.144531 10.339844 23.414062 10.550781 23.449219 10.613281 C 23.441406 10.628906 23.453125 10.648438 23.464844 10.660156 C 23.480469 10.660156 23.488281 10.632812 23.484375 10.621094 L 23.492188 10.625 C 23.535156 10.527344 23.609375 10.445312 23.628906 10.34375 C 23.660156 10.339844 23.648438 10.277344 23.644531 10.253906 C 23.667969 10.1875 23.675781 10.113281 23.6875 10.042969 L 23.703125 10.042969 C 23.703125 9.925781 23.707031 9.8125 23.703125 9.695312 L 23.707031 9.683594 C 23.710938 9.703125 23.890625 10.183594 23.914062 10.234375 C 23.925781 10.238281 24.320312 10.367188 24.363281 10.359375 C 24.359375 10.386719 24.410156 10.386719 24.425781 10.371094 C 24.425781 10.371094 24.496094 10.390625 24.800781 10.554688 C 24.832031 10.570312 24.863281 10.589844 24.898438 10.589844 C 24.273438 9.71875 24.191406 9.671875 22.878906 8.894531 C 22.515625 8.828125 22.710938 8.710938 21.5625 8.667969 C 21.585938 8.660156 21.609375 8.652344 21.628906 8.644531 C 21.695312 8.640625 22.128906 8.59375 22.292969 8.550781 C 22.316406 8.558594 22.378906 8.570312 22.386719 8.539062 C 22.496094 8.570312 22.539062 8.617188 22.683594 8.65625 C 22.683594 8.65625 22.460938 8.46875 22.332031 8.347656 C 22.207031 8.261719 22.171875 8.136719 21.859375 8.132812 L 21.859375 8.121094 C 21.773438 8.117188 21.6875 8.09375 21.601562 8.085938 C 21.574219 8.070312 21.542969 8.074219 21.511719 8.078125 C 21.511719 8.050781 21.457031 8.054688 21.4375 8.0625 C 21.433594 8.058594 21.421875 8.050781 21.417969 8.046875 C 21.394531 8.046875 21.367188 8.046875 21.34375 8.046875 L 21.34375 8.035156 C 21.140625 8.023438 20.945312 7.949219 20.742188 7.960938 C 20.644531 7.988281 20.070312 8.085938 19.941406 8.09375 L 19.941406 8.105469 C 19.910156 8.105469 19.878906 8.101562 19.851562 8.117188 C 19.746094 8.125 19.429688 8.179688 19.425781 8.179688 L 19.425781 8.195312 C 19.417969 8.195312 18.617188 8.519531 17.894531 9.042969 C 17.882812 9.050781 17.648438 9.578125 17.613281 9.683594 C 17.589844 9.757812 17.503906 9.773438 17.46875 9.839844 C 17.410156 9.871094 17.125 10.097656 17.082031 10.160156 C 16.96875 10.222656 16.347656 10.628906 16.347656 10.628906 C 16.335938 10.636719 15.542969 11.054688 15.511719 11.085938 C 15.480469 11.09375 15.449219 11.101562 15.417969 11.109375 C 15.527344 11.011719 16.40625 10.359375 16.53125 10.269531 C 16.964844 9.929688 16.546875 10.324219 17.441406 9.425781 C 17.46875 9.398438 17.492188 9.375 17.5 9.339844 C 17.6875 8.832031 17.699219 9.117188 17.761719 8.417969 C 17.792969 8.542969 17.808594 8.671875 17.832031 8.796875 C 17.964844 8.730469 18.394531 8.371094 18.742188 8.097656 C 18.808594 8.085938 19.054688 8.011719 19.070312 8.007812 C 19.109375 8.003906 19.152344 7.996094 19.1875 7.976562 C 19.226562 7.96875 19.261719 7.964844 19.296875 7.949219 C 19.339844 7.945312 19.378906 7.9375 19.417969 7.917969 C 19.449219 7.914062 19.480469 7.90625 19.511719 7.890625 C 19.554688 7.886719 19.59375 7.878906 19.632812 7.859375 C 19.8125 7.828125 19.992188 7.769531 20.167969 7.71875 C 20.210938 7.742188 20.1875 7.660156 20.160156 7.695312 C 20.140625 7.652344 20.101562 7.621094 20.066406 7.589844 C 19.089844 6.789062 20.421875 7.546875 17.289062 6.726562 C 17.125 6.695312 16.964844 6.640625 16.800781 6.617188 C 16.75 6.59375 16.507812 6.535156 16.421875 6.527344 C 16.390625 6.511719 15.710938 6.546875 15.664062 6.554688 C 14.75 6.671875 14.8125 6.4375 14.335938 6.328125 C 14.25 6.28125 13.542969 6.210938 13.535156 6.207031 C 13.484375 6.183594 13.425781 6.199219 13.375 6.210938 M 12.351562 6.9375 C 12.355469 6.984375 12.394531 6.914062 12.351562 6.9375 M 12.390625 6.949219 C 12.390625 7 12.433594 6.929688 12.390625 6.949219 M 22.691406 8.65625 C 22.699219 8.667969 22.699219 8.667969 22.691406 8.65625 M 6.523438 8.984375 C 6.261719 9.109375 6.007812 9.25 5.742188 9.367188 C 5.71875 9.375 4.359375 10.578125 4.351562 10.585938 C 4.320312 10.601562 4.296875 10.621094 4.277344 10.648438 C 4.058594 10.796875 4.085938 10.796875 4.019531 10.9375 C 3.933594 11.160156 3.878906 11.097656 3.914062 11.445312 C 4.980469 11.109375 4.804688 11.210938 5.011719 10.769531 C 5.207031 10.289062 5.742188 9.644531 5.753906 9.636719 C 6.378906 9.207031 6.527344 9.175781 7 8.949219 C 6.617188 8.929688 6.585938 8.957031 6.523438 8.984375 M 20.796875 9.9375 C 20.640625 9.953125 20.488281 9.980469 20.332031 9.988281 C 20.277344 10.007812 20.214844 9.984375 20.164062 10.011719 C 19.914062 10.011719 19.933594 10.027344 19.578125 10.46875 C 18.871094 10.984375 19.394531 10.707031 18.492188 11.105469 C 18.210938 11.214844 18.4375 11.109375 17.886719 11.535156 C 17.640625 11.773438 17.808594 11.511719 17.484375 12.140625 C 17.453125 12.203125 17.441406 12.273438 17.40625 12.332031 L 17.410156 12.320312 C 17.269531 12.671875 17.261719 13.390625 16.550781 14.753906 C 16.613281 14.761719 17.304688 14.640625 17.609375 14.464844 C 17.632812 14.453125 18.191406 14.171875 18.207031 14.15625 C 18.289062 14.09375 18.515625 13.9375 18.542969 13.921875 C 18.53125 13.957031 18.132812 14.394531 18.101562 14.429688 C 18.035156 14.480469 17.730469 14.589844 17.648438 14.65625 C 17.632812 14.644531 17.613281 14.664062 17.601562 14.679688 C 17.589844 14.699219 17.625 14.703125 17.636719 14.691406 L 17.632812 14.703125 C 17.972656 14.78125 17.90625 14.839844 18.113281 14.824219 C 18.121094 14.851562 18.171875 14.847656 18.191406 14.832031 C 18.316406 14.882812 20.128906 15.09375 20.542969 14.945312 C 20.6875 14.925781 21.148438 14.796875 21.191406 14.789062 C 21.324219 14.710938 21.441406 14.601562 21.574219 14.523438 C 21.628906 14.476562 21.742188 14.289062 21.800781 14.253906 C 21.792969 14.285156 21.789062 14.3125 21.785156 14.34375 C 21.769531 14.386719 21.761719 14.433594 21.753906 14.476562 C 21.738281 14.507812 21.726562 14.542969 21.726562 14.574219 C 21.707031 14.613281 21.699219 14.652344 21.699219 14.691406 C 21.679688 14.703125 21.105469 15.246094 20.78125 15.410156 C 22.441406 16.085938 22.789062 16.65625 23.164062 17.050781 C 23.148438 17.046875 23.132812 17.039062 23.117188 17.035156 C 23.109375 17.011719 22.226562 16.269531 22.179688 16.273438 C 20.96875 15.582031 19.507812 15.226562 19.304688 15.136719 C 19.148438 15.117188 18.402344 14.949219 18.214844 14.925781 C 18.195312 14.921875 16.777344 14.855469 16.765625 14.863281 C 16.746094 14.84375 16.730469 14.847656 16.722656 14.871094 C 16.644531 14.863281 16.390625 14.90625 16.378906 14.910156 C 16.339844 14.910156 16.058594 14.941406 16.03125 14.953125 C 15.984375 14.953125 15.273438 15.035156 15.257812 15.042969 C 14.933594 15.050781 13.433594 15.40625 12.984375 15.515625 C 10.269531 16.40625 9.960938 16.871094 8.765625 17.800781 C 8.496094 17.992188 8.554688 17.933594 7.976562 18.867188 C 7.90625 18.96875 7.800781 19.46875 7.789062 19.515625 C 7.765625 19.699219 7.824219 19.882812 7.832031 20.066406 C 7.832031 20.066406 8.011719 20.347656 8.011719 20.347656 C 8.332031 20.570312 8.320312 20.457031 8.707031 20.496094 C 8.636719 20.550781 8.484375 20.808594 8.398438 20.867188 C 8.433594 20.921875 8.457031 20.984375 8.5 21.035156 C 8.714844 21.476562 9.289062 21.878906 9.722656 22.105469 C 11.5625 22.570312 11.21875 22.527344 12.007812 22.320312 C 11.308594 21.75 11.25 21.734375 11.183594 21.644531 C 11.625 21.882812 11.617188 22.039062 12.65625 22.144531 C 12.738281 22.164062 13.402344 22.019531 13.410156 22.015625 C 14.246094 21.734375 13.992188 21.839844 14.179688 21.878906 C 14.316406 21.933594 14.464844 21.957031 14.613281 21.949219 C 14.65625 21.980469 14.710938 21.960938 14.761719 21.96875 C 14.800781 21.984375 14.84375 21.984375 14.878906 21.96875 C 14.921875 21.964844 14.964844 21.976562 15 21.953125 C 15.347656 21.964844 15.34375 21.902344 15.984375 21.480469 C 16.140625 21.523438 16.382812 21.628906 16.429688 21.632812 C 16.460938 21.65625 17.097656 21.695312 17.121094 21.695312 C 17.269531 21.640625 17.355469 21.636719 17.953125 21.402344 C 18.011719 21.375 18.214844 21.382812 18.269531 21.363281 C 18.835938 21.332031 18.746094 21.332031 19.296875 21.167969 C 19.902344 20.972656 19.527344 21.242188 20.222656 20.4375 C 20.222656 20.445312 20.222656 20.460938 20.226562 20.46875 C 20.222656 20.476562 20.183594 20.75 20.171875 21.054688 C 20.253906 21.050781 20.335938 21.078125 20.421875 21.085938 C 20.59375 21.136719 20.722656 21.066406 20.953125 21.050781 C 21.621094 20.8125 21.75 20.660156 21.910156 20.472656 C 22.261719 20.0625 22.011719 20.554688 22.613281 19.589844 C 23.449219 18.25 23.113281 18.652344 23.421875 17.980469 C 23.410156 17.980469 22.425781 17.847656 22.316406 17.828125 C 22.257812 17.816406 19.96875 17.640625 19.761719 17.789062 C 19.484375 17.789062 18.550781 17.964844 18.367188 17.980469 C 18.316406 17.976562 18.269531 17.960938 18.21875 17.960938 C 18.183594 17.9375 18.136719 17.949219 18.097656 17.945312 C 17.550781 17.824219 17.960938 18 17.195312 17.617188 C 17.15625 17.585938 15.707031 17.738281 15.671875 17.761719 C 15.640625 17.761719 15.605469 17.757812 15.578125 17.769531 C 15.519531 17.78125 15.453125 17.757812 15.402344 17.789062 C 15.246094 17.777344 14.339844 17.859375 13.886719 18.003906 C 12.4375 18.015625 11.296875 18.308594 10.128906 18.871094 C 9.667969 19.136719 10.214844 18.671875 9.347656 19.628906 C 9.296875 19.839844 9.246094 20.046875 9.191406 20.253906 C 9.179688 20.050781 9.1875 19.847656 9.183594 19.648438 C 9.144531 19.707031 8.847656 20.113281 8.78125 20.136719 C 8.867188 20.023438 9.164062 19.558594 9.175781 19.527344 C 8.921875 19.503906 9.148438 19.59375 8.625 19.308594 C 8.601562 19.234375 8.585938 19.152344 8.585938 19.074219 C 8.734375 19.109375 8.878906 19.144531 9.027344 19.179688 C 9.121094 19.171875 9.21875 19.160156 9.308594 19.132812 C 9.332031 19.140625 9.394531 19.148438 9.394531 19.117188 C 9.441406 19.109375 9.472656 19.066406 9.511719 19.042969 C 10.417969 18.390625 9.578125 18.855469 11.199219 18.191406 C 11.269531 18.175781 12.613281 17.820312 12.808594 17.753906 C 12.6875 17.511719 12.65625 17.507812 12.550781 16.953125 C 12.582031 16.851562 12.742188 16.539062 12.769531 16.496094 C 12.785156 16.683594 12.773438 16.875 12.78125 17.0625 C 12.824219 17.160156 12.835938 17.269531 12.882812 17.363281 C 12.886719 17.367188 13.253906 17.613281 13.300781 17.632812 C 13.394531 17.667969 13.867188 17.707031 13.910156 17.691406 C 14.1875 17.628906 14.464844 17.566406 14.738281 17.488281 C 14.851562 17.46875 15.847656 17.585938 16 17.46875 C 16.089844 17.472656 17.042969 17.375 17.105469 17.367188 C 17.144531 17.285156 17.269531 16.789062 17.273438 16.78125 C 17.425781 16.726562 17.570312 16.648438 17.726562 16.597656 C 17.648438 16.738281 17.546875 16.855469 17.457031 16.984375 C 17.449219 17.113281 17.429688 17.242188 17.394531 17.367188 C 17.933594 17.832031 18.144531 17.730469 19.113281 17.613281 C 21.121094 17.402344 22.269531 17.585938 22.367188 17.585938 C 22.378906 17.59375 23.082031 17.679688 23.203125 17.671875 L 23.199219 17.6875 C 23.25 17.6875 23.296875 17.6875 23.34375 17.691406 C 23.367188 17.699219 23.390625 17.699219 23.414062 17.703125 C 23.410156 17.691406 23.3125 17.40625 23.304688 17.363281 C 23.414062 17.457031 23.46875 17.488281 23.589844 17.589844 C 23.953125 17.226562 24.871094 16.957031 25.054688 16.8125 C 25.054688 16.8125 25.425781 15.972656 25.433594 15.953125 C 25.492188 15.953125 25.546875 15.953125 25.601562 15.953125 C 25.601562 15.953125 25.335938 16.878906 25.328125 16.898438 C 25.164062 16.992188 24.988281 17.054688 24.824219 17.144531 C 23.828125 17.636719 24.058594 17.507812 23.949219 17.675781 C 23.222656 18.839844 23.449219 18.429688 23.183594 19.429688 C 23.148438 19.589844 23.15625 19.46875 23.238281 19.746094 C 23.277344 19.816406 23.167969 19.800781 23.871094 19.800781 C 23.878906 19.804688 24.871094 20.699219 24.898438 20.714844 C 25.664062 20.847656 25.316406 20.882812 25.582031 20.757812 C 25.75 20.675781 26.566406 19.726562 26.550781 18.53125 C 26.636719 18.34375 26.449219 17.90625 26.414062 17.773438 C 26.164062 17.914062 25.921875 18.074219 25.660156 18.195312 C 26.46875 17.523438 26.15625 17.90625 26.507812 17.398438 C 26.546875 17.324219 26.535156 17.238281 26.535156 17.152344 C 26.542969 17.128906 26.550781 17.101562 26.550781 17.070312 C 26.574219 17.007812 26.5625 16.941406 26.5625 16.878906 L 26.546875 16.878906 C 26.464844 16.390625 26.5 16.902344 26.417969 16.085938 C 26.410156 15.980469 26.441406 15.875 26.433594 15.769531 C 26.460938 15.71875 26.449219 15.660156 26.449219 15.605469 C 26.472656 15.5 26.480469 15.53125 26.363281 15.414062 C 26.328125 15.351562 26.222656 15.257812 26.171875 15.261719 C 26.191406 15.222656 26.109375 15.222656 26.125 15.257812 L 26.117188 15.257812 C 26.078125 15.316406 26.039062 15.371094 25.988281 15.417969 C 25.710938 15.417969 25.4375 15.417969 25.160156 15.417969 L 25.164062 15.433594 L 25.152344 15.433594 C 25.078125 15.625 24.824219 16.105469 24.792969 16.171875 C 24.78125 16.179688 24.097656 16.605469 24.070312 16.621094 C 24.085938 16.59375 24.53125 16.101562 24.542969 16.09375 C 24.582031 16.027344 24.65625 15.988281 24.679688 15.910156 C 24.738281 15.75 24.894531 15.4375 24.886719 15.371094 C 24.917969 15.371094 24.910156 15.316406 24.902344 15.296875 C 24.925781 15.265625 24.902344 15.292969 24.945312 15.042969 C 24.898438 14.957031 24.621094 14.636719 24.554688 14.589844 L 24.566406 14.589844 C 24.550781 14.585938 24.375 14.535156 24.324219 14.535156 C 24.242188 14.503906 24.160156 14.496094 24.078125 14.476562 C 24.078125 14.390625 24.125 14.316406 24.117188 14.207031 C 24.125 14.199219 24.140625 14.191406 24.144531 14.1875 C 24.777344 14.554688 24.777344 14.339844 25.242188 15.023438 C 25.304688 15.035156 25.371094 15.050781 25.433594 15.066406 C 25.488281 15.054688 25.890625 14.917969 25.9375 14.832031 C 25.976562 14.769531 26.070312 14.75 26.082031 14.671875 C 26.097656 14.625 26.109375 14.261719 26.109375 14.25 C 26.128906 14.203125 26.117188 14.148438 26.121094 14.101562 C 26.144531 14.097656 26.144531 14.023438 26.121094 14.019531 C 26.121094 14.011719 26.121094 14 26.121094 13.992188 C 25.800781 13.121094 25.792969 13.195312 25.707031 13.136719 C 25.53125 13.023438 25.378906 12.882812 25.203125 12.769531 C 24.949219 13.019531 24.214844 13.953125 24.191406 13.992188 C 24.121094 14.019531 24.046875 14.039062 23.972656 14.070312 C 23.9375 14.074219 23.902344 14.085938 23.871094 14.101562 C 23.808594 14.113281 23.753906 14.144531 23.691406 14.164062 C 23.671875 14.253906 23.632812 14.332031 23.59375 14.414062 C 23.582031 14.464844 23.585938 14.523438 23.589844 14.578125 C 23.613281 14.636719 23.632812 14.695312 23.648438 14.757812 C 23.644531 14.757812 23.265625 14.589844 23.261719 14.589844 C 23.253906 14.476562 23.261719 14.363281 23.257812 14.253906 C 23.269531 14.242188 23.503906 14.03125 23.535156 13.976562 C 23.558594 13.972656 23.582031 13.972656 23.605469 13.960938 C 24.074219 13.90625 24.046875 13.839844 24.359375 13.535156 C 24.449219 13.445312 24.488281 13.324219 24.554688 13.21875 C 24.796875 12.828125 24.773438 12.738281 24.890625 12.441406 C 24.871094 12.398438 24.859375 12.351562 24.859375 12.304688 L 24.851562 12.296875 C 24.761719 11.859375 24.847656 12.03125 24.285156 11.566406 C 23.507812 11.273438 24.007812 11.148438 23.238281 11.378906 C 22.4375 11.945312 23.160156 11.46875 22.414062 12.335938 C 21.816406 13.226562 22.261719 12.46875 21.859375 13.453125 C 21.835938 13.507812 21.921875 13.71875 21.925781 13.730469 C 21.929688 13.777344 21.9375 13.820312 21.957031 13.863281 C 21.957031 13.871094 21.957031 13.886719 21.957031 13.894531 C 21.910156 13.851562 21.6875 13.554688 21.675781 13.519531 C 21.667969 13.386719 21.617188 13.257812 21.628906 13.125 C 21.65625 13.085938 22.054688 12.324219 22.433594 11.953125 C 22.441406 11.929688 22.527344 11.65625 22.535156 11.605469 C 22.566406 11.542969 22.570312 11.472656 22.597656 11.410156 C 22.605469 11.363281 23.023438 11.175781 23.191406 11.066406 C 23.167969 11.03125 22.734375 10.417969 22.667969 10.394531 C 22.660156 10.390625 22.105469 10.136719 22.070312 10.113281 C 22.058594 10.105469 22.046875 10.101562 22.03125 10.101562 L 22.03125 10.085938 C 21.984375 10.085938 21.9375 10.085938 21.890625 10.082031 C 21.882812 10.078125 21.410156 10.003906 21.300781 10 L 21.300781 9.984375 C 21.171875 9.980469 21.046875 9.949219 20.917969 9.9375 C 20.878906 9.921875 20.835938 9.921875 20.796875 9.9375 M 23.75 10.636719 C 23.6875 10.707031 23.617188 10.765625 23.558594 10.839844 C 23.585938 10.90625 23.617188 10.976562 23.660156 11.039062 C 23.789062 11.035156 23.914062 11.054688 24.039062 11.074219 C 24.296875 11.25 24.839844 11.566406 24.839844 11.566406 C 24.886719 11.621094 25.121094 12.027344 25.160156 12.097656 C 25.1875 12.242188 25.203125 12.390625 25.222656 12.539062 C 25.230469 12.539062 25.242188 12.542969 25.246094 12.546875 L 25.25 12.554688 C 25.386719 12.609375 25.503906 12.699219 25.640625 12.75 C 25.738281 12.832031 25.84375 12.90625 25.941406 12.984375 C 25.972656 12.894531 25.976562 12.796875 26.019531 12.714844 C 25.238281 11.128906 25.625 11.820312 25.375 11.488281 C 25.332031 11.429688 25.273438 11.382812 25.234375 11.316406 C 25.214844 11.300781 25.195312 11.289062 25.171875 11.277344 C 25.214844 11.414062 25.308594 11.710938 25.328125 11.855469 C 25.273438 11.789062 24.847656 10.984375 24.84375 10.972656 C 24.410156 10.574219 24.273438 10.617188 23.917969 10.472656 C 23.855469 10.523438 23.804688 10.585938 23.75 10.636719 M 24.894531 10.59375 C 24.902344 10.601562 24.902344 10.601562 24.894531 10.59375 M 4.285156 11.542969 C 4.238281 11.539062 3.902344 11.636719 3.871094 11.652344 C 3.351562 11.886719 3.511719 11.800781 3.152344 12.226562 C 3.089844 12.300781 3.074219 12.269531 2.90625 12.585938 C 2.769531 12.84375 2.785156 12.753906 2.78125 12.902344 C 2.785156 13.027344 2.738281 13.363281 2.882812 13.578125 C 3.589844 13.554688 3.289062 13.308594 3.53125 13.167969 C 3.421875 12.949219 3.46875 12.941406 3.421875 12.730469 C 3.414062 12.699219 3.402344 12.660156 3.425781 12.632812 C 3.691406 12.210938 3.589844 12.203125 3.941406 11.925781 C 3.964844 11.910156 4.28125 11.617188 4.328125 11.554688 C 4.382812 11.542969 4.289062 11.5 4.285156 11.542969 M 25.789062 11.796875 C 26.199219 12.671875 26.476562 12.691406 26.164062 13.277344 C 26.410156 13.941406 26.320312 14.007812 26.417969 14.292969 C 26.421875 14.335938 26.417969 14.375 26.429688 14.417969 L 26.433594 14.402344 C 26.429688 14.433594 26.4375 14.382812 26.367188 14.726562 C 26.378906 14.785156 26.511719 15.074219 26.582031 15.289062 L 26.589844 15.289062 C 26.601562 15.324219 26.613281 15.359375 26.628906 15.394531 C 26.636719 15.355469 26.644531 15.3125 26.648438 15.269531 C 26.667969 15.246094 26.777344 14.816406 26.792969 14.578125 L 26.777344 14.582031 C 26.785156 14.394531 26.6875 13.730469 26.660156 13.378906 L 26.652344 13.363281 C 26.617188 12.796875 26.515625 12.617188 26.253906 12.121094 C 26.144531 12.027344 25.878906 11.851562 25.832031 11.832031 C 25.835938 11.808594 25.800781 11.808594 25.789062 11.796875 M 3.789062 13.347656 C 3.496094 13.464844 3.617188 13.429688 3.546875 13.753906 C 3.542969 13.761719 3.511719 14.558594 3.375 14.777344 C 3.21875 15.027344 3.082031 15.402344 3.125 15.703125 C 3.183594 16.085938 3.109375 15.875 3.324219 16.167969 C 3.363281 16.226562 3.773438 16.546875 3.867188 16.574219 C 4.222656 16.703125 4.3125 16.761719 4.476562 16.8125 C 5.800781 17.203125 5.1875 17.152344 6.039062 17.152344 C 5.789062 16.949219 5.851562 16.886719 5.5625 16.78125 C 4.734375 16.53125 4.777344 16.59375 4.128906 16.121094 C 4.058594 16.050781 4.023438 15.957031 3.964844 15.882812 C 3.820312 15.660156 3.949219 15.964844 3.640625 15.257812 C 3.628906 15.105469 3.675781 14.953125 3.683594 14.800781 C 3.746094 14.742188 3.800781 14.679688 3.863281 14.625 C 3.820312 15.039062 3.679688 15.320312 4.261719 16.015625 C 4.46875 16.300781 6.027344 16.683594 6.195312 16.867188 C 6.773438 17.484375 7.546875 17.699219 8.382812 17.738281 C 8.558594 17.746094 8.449219 17.730469 8.699219 17.527344 C 8.699219 17.527344 9.046875 17.273438 9.046875 17.273438 C 9.183594 17.101562 9.21875 16.761719 9.226562 16.722656 C 9.175781 16.691406 9.125 16.660156 9.074219 16.628906 C 9.035156 16.765625 9.003906 17.035156 8.925781 17.089844 C 8.589844 17.347656 8.691406 17.3125 8.550781 17.335938 C 8.488281 17.339844 8.007812 17.386719 7.898438 17.371094 C 7.066406 17.335938 7.257812 17.347656 6.941406 17.152344 C 6.484375 16.871094 6.609375 16.90625 6.425781 16.707031 C 6.382812 16.648438 6.324219 16.605469 6.285156 16.546875 C 6.242188 16.457031 6.210938 16.367188 6.167969 16.277344 C 6.152344 16.28125 6.140625 16.28125 6.128906 16.28125 C 6.125 16.277344 5.808594 15.476562 5.808594 15.476562 C 5.320312 15.421875 4.578125 15.511719 4.339844 14.058594 C 4.359375 13.824219 4.367188 13.589844 4.394531 13.355469 C 4.238281 13.410156 3.984375 13.277344 3.789062 13.347656 M 3.175781 13.78125 C 3.058594 13.847656 2.925781 13.875 2.816406 13.953125 C 2.816406 13.953125 2.5625 14.40625 2.5625 14.40625 C 2.347656 14.855469 2.4375 14.769531 2.304688 15.082031 C 2.28125 15.140625 2.28125 15.699219 2.300781 15.769531 C 2.355469 16.140625 2.292969 16.058594 2.519531 16.453125 C 2.511719 16.46875 2.527344 16.496094 2.546875 16.492188 C 2.558594 16.484375 2.570312 16.46875 2.5625 16.453125 C 2.621094 16.363281 2.628906 16.257812 2.824219 16.074219 C 2.828125 15.203125 2.804688 15.59375 2.9375 15.148438 C 2.976562 15.003906 3.195312 14.613281 3.207031 14.59375 C 3.292969 14.46875 3.222656 14.589844 3.285156 13.769531 C 3.246094 13.765625 3.210938 13.769531 3.175781 13.78125 M 26.996094 14.164062 C 26.988281 14.203125 26.988281 14.246094 27.015625 14.277344 C 26.996094 14.382812 27.011719 14.488281 27.007812 14.59375 L 27.023438 14.59375 C 27.03125 14.757812 26.960938 15.140625 26.851562 15.375 C 26.757812 15.605469 26.675781 15.707031 26.679688 15.761719 C 26.859375 17.363281 26.835938 16.367188 26.710938 17.621094 C 26.703125 17.734375 26.648438 17.734375 26.804688 18.152344 C 26.820312 18.636719 26.777344 18.882812 26.777344 18.882812 C 26.984375 18.558594 27.09375 17.71875 27.050781 17.613281 C 27.042969 17.523438 27.066406 17.425781 27.035156 17.335938 C 27.03125 17.265625 27.042969 17.191406 27.023438 17.125 C 27.023438 17.074219 27.03125 17.019531 27.007812 16.972656 C 27.015625 16.625 27.117188 15.359375 27.101562 15.113281 C 27.113281 15.097656 27.113281 15.070312 27.105469 15.050781 C 27.109375 15.046875 27.117188 15.039062 27.121094 15.035156 C 27.113281 15.015625 27.0625 14.414062 27.054688 14.40625 C 27.046875 14.367188 27.042969 14.324219 27.023438 14.289062 C 27.019531 14.246094 27.007812 14.203125 26.996094 14.164062 M 27.382812 15.210938 C 27.175781 16.007812 27.402344 17.632812 27.304688 17.945312 C 27.191406 18.566406 27.359375 18.5625 25.964844 20.796875 C 25.871094 20.941406 25.910156 20.941406 25.664062 21.058594 C 25.660156 21.152344 25.667969 21.25 25.660156 21.339844 C 25.5625 21.796875 25.597656 21.886719 25.542969 21.945312 C 25.160156 22.367188 25.503906 22.207031 24.707031 22.375 C 24.652344 22.386719 24.59375 22.386719 24.539062 22.386719 C 24.429688 22.328125 24.027344 22.410156 23.8125 22.257812 C 23.765625 22.222656 23.351562 21.925781 23.210938 21.84375 C 23.109375 21.824219 23.007812 21.808594 22.90625 21.808594 C 22.855469 21.78125 22.800781 21.792969 22.746094 21.789062 C 21.691406 21.375 22.601562 21.859375 21.589844 21.113281 C 21.417969 21.214844 21.234375 21.292969 21.058594 21.386719 C 21.222656 21.699219 20.949219 21.441406 21.527344 21.910156 C 21.609375 21.964844 21.703125 22 21.792969 22.046875 C 22.03125 22.15625 21.976562 22.210938 22.269531 22.214844 C 22.335938 22.238281 22.679688 22.230469 22.75 22.246094 C 22.808594 22.257812 23.464844 22.453125 23.871094 22.722656 C 23.90625 22.746094 24.46875 22.851562 24.511719 22.847656 C 24.566406 22.871094 24.628906 22.871094 24.679688 22.847656 C 25.726562 22.5625 25.269531 22.800781 25.988281 22.28125 C 26.082031 22.214844 26.167969 22.136719 26.269531 22.082031 C 26.199219 22.207031 26.09375 22.304688 26.007812 22.417969 C 25.871094 22.578125 25.925781 22.664062 25.101562 23.015625 C 25.300781 23.019531 25.5 23.023438 25.703125 23.015625 C 26.394531 22.660156 26.535156 22.347656 26.703125 22.195312 C 26.710938 22.183594 27.199219 21.503906 27.21875 21.464844 C 27.25 21.433594 27.289062 21.394531 27.273438 21.347656 C 27.3125 21.113281 27.328125 20.871094 27.378906 20.636719 C 27.019531 21.109375 26.679688 21.496094 26.679688 21.496094 C 26.753906 21.351562 27.171875 20.613281 27.304688 20.300781 L 27.320312 20.304688 C 27.320312 20.296875 27.324219 19.238281 27.324219 19.230469 C 27.417969 19.359375 27.453125 19.523438 27.554688 19.644531 C 27.585938 19.515625 27.777344 18.605469 27.78125 18.484375 C 27.777344 17.351562 27.789062 17.40625 27.765625 17.351562 C 27.761719 17.113281 27.699219 16.683594 27.691406 16.671875 C 27.667969 15.917969 27.503906 15.5625 27.382812 15.210938 M 3.050781 16.417969 C 3.003906 16.53125 2.988281 16.660156 2.953125 16.777344 C 2.929688 16.832031 3.0625 17.191406 3.101562 17.257812 C 4.039062 17.863281 3.601562 17.230469 5.996094 17.921875 C 6.371094 18.0625 7.050781 18.625 7.050781 18.625 C 7.082031 18.65625 7.128906 18.644531 7.167969 18.644531 C 7.199219 18.652344 7.234375 18.65625 7.265625 18.65625 C 7.4375 18.726562 7.628906 18.664062 7.796875 18.582031 C 7.785156 18.5625 7.414062 17.957031 7.335938 17.921875 C 7.332031 17.921875 6.277344 17.394531 6.269531 17.394531 C 5.355469 17.527344 5.515625 17.484375 5.316406 17.457031 C 5.273438 17.433594 5.226562 17.425781 5.179688 17.425781 C 5.097656 17.394531 5.007812 17.382812 4.921875 17.359375 C 4.164062 17.191406 4.179688 17.101562 3.75 16.949219 C 3.402344 16.835938 3.386719 16.742188 3.324219 16.6875 C 3.234375 16.597656 3.148438 16.5 3.050781 16.417969 M 2.671875 17.003906 C 2.667969 17.042969 2.65625 17.421875 2.679688 17.472656 C 2.871094 17.914062 2.757812 17.808594 2.949219 17.960938 C 3.242188 18.199219 3.261719 18.199219 3.292969 18.207031 C 3.65625 18.296875 3.777344 18.421875 4.234375 18.457031 C 6.003906 18.699219 5.730469 18.832031 7.273438 19.398438 C 7.367188 19.402344 7.457031 19.378906 7.546875 19.371094 C 7.570312 19.253906 7.613281 19.140625 7.625 19.019531 C 7.3125 19.015625 7.46875 19.195312 6.679688 18.601562 C 5.960938 18.054688 6.140625 18.1875 5.488281 18 C 5.191406 17.921875 4.496094 17.796875 4.394531 17.800781 C 4.375 17.792969 4.351562 17.789062 4.332031 17.789062 L 4.320312 17.777344 C 4.214844 17.753906 3.613281 17.792969 3.542969 17.757812 C 3.53125 17.75 3.082031 17.535156 3.0625 17.515625 C 2.804688 17.289062 2.769531 17.296875 2.75 17.238281 C 2.722656 17.164062 2.707031 17.082031 2.671875 17.003906 M 26.765625 18.890625 C 26.742188 18.933594 26.8125 18.894531 26.765625 18.890625 M 21.804688 20.949219 C 22.292969 21.472656 22.21875 21.378906 22.617188 21.503906 C 22.933594 21.574219 22.5625 21.542969 23.316406 21.4375 C 23.414062 21.582031 23.539062 21.703125 23.636719 21.84375 C 23.707031 21.953125 23.839844 21.984375 23.949219 22.035156 C 24.164062 22.117188 24.171875 22.199219 24.433594 22.199219 L 24.433594 22.179688 C 24.496094 22.183594 24.910156 22.144531 24.929688 22.136719 C 25.058594 22.082031 25.1875 22.03125 25.316406 21.972656 C 25.367188 21.78125 25.378906 21.582031 25.429688 21.390625 C 25.390625 21.261719 25.316406 21.148438 25.28125 21.019531 C 24.605469 20.828125 24.800781 21.035156 24.550781 20.765625 C 24.523438 20.738281 24.042969 20.203125 24.011719 20.183594 C 23.816406 20.148438 23.714844 20.082031 23.128906 20.003906 C 23.058594 19.996094 22.992188 19.980469 22.925781 19.964844 C 22.898438 19.875 22.878906 19.785156 22.855469 19.695312 C 22.726562 19.945312 21.8125 20.941406 21.804688 20.949219 Z M 21.804688 20.949219 " fill-opacity="1" fill-rule="nonzero"/></g><path fill="#000000" d="M 18.003906 7.722656 C 17.90625 7.738281 17.808594 7.707031 17.710938 7.699219 C 16.832031 7.578125 17.277344 7.617188 16.539062 7.773438 C 16.464844 7.792969 16.496094 7.742188 16.148438 8.175781 C 16.140625 8.421875 16.164062 8.628906 16.132812 8.707031 C 16 9.03125 16.058594 9.035156 15.933594 9.144531 C 15.855469 9.207031 15.789062 9.285156 15.699219 9.332031 C 15.726562 9.171875 15.957031 8.84375 15.855469 8.535156 C 15.667969 8.140625 15.804688 8.230469 15.332031 7.949219 C 14.925781 7.695312 15.015625 7.8125 14.414062 7.738281 C 14.28125 7.710938 14.1875 7.820312 13.421875 8.175781 C 13.351562 8.121094 13.285156 8.0625 13.210938 8.015625 C 12.222656 7.839844 11.726562 8.222656 11.265625 8.53125 C 11.0625 8.679688 10.65625 8.785156 10.230469 8.980469 C 10.1875 8.992188 9.394531 9.113281 9.308594 9.097656 C 8.917969 8.984375 8.871094 8.992188 8.683594 8.933594 C 10.679688 8.886719 10.503906 8.613281 11.285156 8.230469 C 11.554688 8.082031 11.996094 7.824219 12.089844 7.808594 C 12.863281 7.667969 12.320312 7.546875 13.34375 7.679688 C 13.445312 7.695312 13.550781 7.742188 13.65625 7.695312 C 13.808594 7.640625 13.964844 7.59375 14.105469 7.515625 C 14.394531 7.429688 15.390625 7.566406 15.691406 7.648438 C 16.113281 7.761719 16.03125 6.863281 18.003906 7.722656 Z M 18.003906 7.722656 " fill-opacity="1" fill-rule="nonzero"/><path fill="#000000" d="M 13.046875 8.652344 C 12.777344 9.941406 12.898438 9.914062 12.988281 10.316406 C 12.648438 10.027344 12.707031 10.027344 12.660156 9.566406 C 12.660156 9.550781 12.621094 9.046875 13.046875 8.652344 Z M 13.046875 8.652344 " fill-opacity="1" fill-rule="nonzero"/><path fill="#000000" d="M 21.921875 11.066406 C 21.628906 11.257812 21.246094 11.453125 20.839844 11.785156 C 21.011719 11.894531 21.203125 11.972656 21.378906 12.074219 C 20.40625 11.941406 20.773438 11.925781 20.042969 12.066406 C 19.71875 12.140625 19.949219 11.96875 19.078125 12.664062 C 19.070312 12.675781 18.652344 13.3125 18.640625 13.332031 C 18.6875 12.984375 18.648438 13.070312 18.769531 12.816406 C 18.957031 12.445312 18.890625 12.578125 19.128906 12.359375 C 19.578125 11.980469 19.574219 12.003906 19.601562 11.953125 C 21.164062 11.691406 20.515625 11.382812 21.921875 11.066406 Z M 21.921875 11.066406 " fill-opacity="1" fill-rule="nonzero"/><path fill="#000000" d="M 22.230469 14.789062 C 22.296875 14.9375 22.359375 15.472656 22.449219 15.53125 C 22.449219 15.53125 22.863281 15.820312 22.863281 15.820312 C 22.898438 15.855469 23.199219 15.878906 23.488281 15.9375 C 23.574219 15.960938 23.707031 15.886719 23.746094 15.871094 C 24.070312 15.738281 23.875 15.867188 24.0625 15.648438 C 24.128906 15.558594 24.207031 15.476562 24.261719 15.375 C 24.269531 15.355469 24.285156 15.347656 24.304688 15.335938 C 24.300781 15.34375 24.195312 15.605469 24.082031 15.84375 C 23.960938 15.960938 23.742188 16.117188 23.707031 16.183594 C 23.707031 16.183594 23.15625 16.125 23.15625 16.125 C 23.144531 16.117188 22.554688 15.855469 22.492188 15.847656 C 22.320312 15.4375 22.183594 15.707031 22.230469 14.789062 Z M 22.230469 14.789062 " fill-opacity="1" fill-rule="nonzero"/><path fill="#000000" d="M 20.125 15.898438 C 20.25 15.949219 20.835938 16.105469 20.992188 16.148438 C 21.003906 16.152344 22.386719 16.828125 22.511719 16.902344 C 22.503906 16.898438 20.597656 16.191406 20.425781 16.171875 C 20.425781 16.171875 19.621094 16.136719 19.242188 16.128906 C 19.214844 16.128906 18.390625 16.226562 18.351562 16.230469 C 18.417969 16.144531 18.519531 16.09375 18.578125 16 C 18.792969 16 19.121094 15.839844 20.125 15.898438 Z M 20.125 15.898438 " fill-opacity="1" fill-rule="nonzero"/><path fill="#000000" d="M 14.875 18.535156 C 14.875 18.535156 15.65625 19.125 15.65625 19.125 C 16.742188 19.578125 16.460938 19.429688 16.886719 19.488281 C 17.167969 19.535156 17.265625 19.539062 17.78125 19.367188 C 17.878906 19.363281 17.695312 19.089844 17.648438 18.839844 C 17.75 18.90625 17.738281 18.917969 18.261719 19.34375 C 18.386719 19.394531 18.8125 19.429688 19.105469 19.5 C 19.3125 19.539062 19.382812 19.480469 20.152344 19.445312 C 22.269531 18.847656 21.394531 19.027344 22.335938 18.695312 C 22.324219 18.707031 21.585938 19.3125 21.507812 19.355469 C 21.496094 19.363281 21.050781 19.625 21.027344 19.648438 C 20.96875 19.785156 20.816406 20.078125 20.816406 20.078125 C 20.804688 19.945312 20.757812 19.65625 20.757812 19.644531 C 20.746094 19.644531 19.511719 19.882812 18.769531 19.710938 C 18.757812 19.707031 18.015625 19.539062 17.925781 19.53125 C 17.742188 19.617188 17.496094 19.757812 17.453125 19.753906 C 16.613281 19.757812 16.652344 19.757812 16.605469 19.742188 C 16.511719 19.710938 15.882812 19.566406 15.492188 19.363281 C 14.523438 19.898438 13.890625 19.8125 13.347656 19.8125 C 13.167969 19.777344 13 19.703125 12.828125 19.644531 C 12.691406 19.546875 12.554688 19.453125 12.425781 19.347656 C 13.335938 19.605469 13.40625 19.765625 14.609375 19.496094 C 14.683594 19.476562 14.761719 19.46875 14.824219 19.425781 C 14.984375 19.320312 15.15625 19.25 15.308594 19.132812 C 15.167969 18.929688 15.015625 18.738281 14.875 18.535156 Z M 14.875 18.535156 " fill-opacity="1" fill-rule="nonzero"/><path fill="#000000" d="M 12.738281 20.058594 C 12.199219 20.441406 12.132812 20.414062 12.148438 20.457031 C 12.222656 20.511719 12.558594 20.683594 12.613281 20.714844 C 12.910156 20.785156 13.058594 20.929688 13.804688 20.9375 C 15.390625 20.933594 15.761719 20.65625 16.84375 20.339844 C 16.90625 20.324219 16.960938 20.28125 17.03125 20.289062 C 16.601562 20.496094 15.539062 20.960938 14.734375 21.167969 C 13.949219 21.234375 12.816406 21.296875 12.117188 20.925781 C 11.851562 20.789062 11.671875 20.550781 11.589844 20.566406 C 11.191406 20.640625 10.730469 20.660156 9.902344 21.261719 C 9.671875 21.40625 9.824219 21.316406 9.402344 21.398438 C 9.28125 21.375 9.164062 21.324219 9.050781 21.277344 C 9.804688 21.230469 9.382812 21.351562 9.761719 21.144531 C 10.148438 20.921875 9.992188 20.9375 10.539062 20.570312 C 10.550781 20.566406 10.921875 20.335938 10.96875 20.328125 C 12.023438 20.089844 11.582031 20.128906 12.273438 20.082031 C 12.292969 20.078125 12.59375 20.050781 12.738281 20.058594 Z M 12.738281 20.058594 " fill-opacity="1" fill-rule="nonzero"/></svg>