<svg xmlns="http://www.w3.org/2000/svg" xmlns:xlink="http://www.w3.org/1999/xlink" width="40" zoomAndPan="magnify" viewBox="0 0 30 30.000001" height="40" preserveAspectRatio="xMidYMid meet" version="1.0"><defs><clipPath id="3d0043bf23"><path d="M 22 12.375 L 26.613281 12.375 L 26.613281 16.730469 L 22 16.730469 Z M 22 12.375 " clip-rule="nonzero"/></clipPath><clipPath id="9375f052e1"><path d="M 3.386719 13 L 6 13 L 6 16 L 3.386719 16 Z M 3.386719 13 " clip-rule="nonzero"/></clipPath></defs><g clip-path="url(#3d0043bf23)"><path fill="#ffffff" d="M 26.601562 14.566406 C 26.601562 13.355469 25.636719 12.375 24.449219 12.375 C 23.261719 12.375 22.296875 13.355469 22.296875 14.566406 C 22.296875 15.660156 23.085938 16.566406 24.113281 16.730469 L 24.113281 15.199219 L 23.566406 15.199219 L 23.566406 14.566406 L 24.113281 14.566406 L 24.113281 14.082031 C 24.113281 13.535156 24.433594 13.230469 24.925781 13.230469 C 25.160156 13.230469 25.402344 13.277344 25.402344 13.277344 L 25.402344 13.808594 L 25.132812 13.808594 C 24.867188 13.808594 24.78125 13.980469 24.78125 14.152344 L 24.78125 14.5625 L 25.378906 14.5625 L 25.285156 15.195312 L 24.78125 15.195312 L 24.78125 16.726562 C 25.8125 16.566406 26.601562 15.660156 26.601562 14.566406 Z M 26.601562 14.566406 " fill-opacity="1" fill-rule="nonzero"/></g><g clip-path="url(#9375f052e1)"><path fill="#ffffff" d="M 3.761719 15.882812 L 3.398438 15.882812 L 3.398438 13.25 L 5.152344 13.25 L 5.152344 13.570312 L 3.761719 13.570312 L 3.761719 14.492188 L 4.96875 14.492188 L 4.96875 14.8125 L 3.761719 14.8125 Z M 3.761719 15.882812 " fill-opacity="1" fill-rule="nonzero"/></g><path fill="#ffffff" d="M 5.953125 13.441406 C 5.953125 13.507812 5.933594 13.558594 5.890625 13.597656 C 5.847656 13.636719 5.792969 13.65625 5.730469 13.65625 C 5.664062 13.65625 5.613281 13.636719 5.570312 13.597656 C 5.527344 13.558594 5.507812 13.507812 5.507812 13.441406 C 5.507812 13.375 5.527344 13.320312 5.570312 13.28125 C 5.613281 13.246094 5.664062 13.222656 5.730469 13.222656 C 5.792969 13.222656 5.847656 13.246094 5.890625 13.28125 C 5.929688 13.324219 5.953125 13.375 5.953125 13.441406 Z M 5.902344 15.882812 L 5.558594 15.882812 L 5.558594 14.003906 L 5.902344 14.003906 Z M 5.902344 15.882812 " fill-opacity="1" fill-rule="nonzero"/><path fill="#ffffff" d="M 8.132812 15.882812 L 7.789062 15.882812 L 7.789062 14.789062 C 7.789062 14.628906 7.75 14.5 7.667969 14.410156 C 7.585938 14.316406 7.472656 14.269531 7.332031 14.269531 C 7.15625 14.269531 7.011719 14.328125 6.910156 14.445312 C 6.800781 14.558594 6.75 14.707031 6.75 14.890625 L 6.75 15.882812 L 6.402344 15.882812 L 6.402344 14.003906 L 6.738281 14.003906 L 6.746094 14.285156 C 6.816406 14.1875 6.910156 14.109375 7.027344 14.046875 C 7.144531 13.988281 7.277344 13.957031 7.417969 13.957031 C 7.640625 13.957031 7.816406 14.027344 7.941406 14.167969 C 8.070312 14.308594 8.136719 14.5 8.136719 14.742188 L 8.136719 15.882812 Z M 8.132812 15.882812 " fill-opacity="1" fill-rule="nonzero"/><path fill="#ffffff" d="M 10.433594 15.882812 L 10.097656 15.882812 L 10.089844 15.597656 C 10.015625 15.695312 9.917969 15.777344 9.796875 15.835938 C 9.679688 15.894531 9.546875 15.925781 9.40625 15.925781 C 9.234375 15.925781 9.082031 15.882812 8.945312 15.796875 C 8.8125 15.710938 8.707031 15.597656 8.628906 15.449219 C 8.550781 15.300781 8.511719 15.128906 8.511719 14.941406 C 8.511719 14.753906 8.550781 14.585938 8.628906 14.4375 C 8.707031 14.289062 8.8125 14.171875 8.945312 14.089844 C 9.082031 14.003906 9.234375 13.960938 9.40625 13.960938 C 9.542969 13.960938 9.675781 13.988281 9.796875 14.046875 C 9.914062 14.105469 10.011719 14.183594 10.085938 14.28125 L 10.085938 13.082031 L 10.433594 13.042969 Z M 9.476562 15.617188 C 9.597656 15.617188 9.703125 15.585938 9.792969 15.53125 C 9.886719 15.472656 9.957031 15.390625 10.011719 15.292969 C 10.0625 15.191406 10.085938 15.078125 10.085938 14.945312 C 10.085938 14.816406 10.0625 14.699219 10.011719 14.597656 C 9.957031 14.496094 9.886719 14.417969 9.792969 14.359375 C 9.699219 14.300781 9.597656 14.273438 9.476562 14.273438 C 9.355469 14.273438 9.25 14.304688 9.160156 14.359375 C 9.066406 14.417969 8.996094 14.5 8.941406 14.597656 C 8.890625 14.699219 8.863281 14.816406 8.863281 14.945312 C 8.863281 15.078125 8.890625 15.195312 8.941406 15.292969 C 8.996094 15.394531 9.066406 15.472656 9.160156 15.53125 C 9.253906 15.585938 9.359375 15.617188 9.476562 15.617188 Z M 9.476562 15.617188 " fill-opacity="1" fill-rule="nonzero"/><path fill="#ffffff" d="M 13.472656 15.882812 L 13.136719 15.882812 L 13.128906 15.601562 C 13.058594 15.699219 12.964844 15.777344 12.851562 15.835938 C 12.734375 15.894531 12.605469 15.925781 12.46875 15.925781 C 12.246094 15.925781 12.070312 15.855469 11.945312 15.71875 C 11.820312 15.578125 11.761719 15.386719 11.761719 15.140625 L 11.761719 14.003906 L 12.105469 14.003906 L 12.105469 15.09375 C 12.105469 15.257812 12.144531 15.382812 12.222656 15.476562 C 12.296875 15.566406 12.410156 15.613281 12.550781 15.613281 C 12.726562 15.613281 12.867188 15.554688 12.96875 15.441406 C 13.070312 15.324219 13.121094 15.175781 13.121094 14.992188 L 13.121094 14 L 13.46875 14 L 13.46875 15.882812 Z M 13.472656 15.882812 " fill-opacity="1" fill-rule="nonzero"/><path fill="#ffffff" d="M 13.847656 15.695312 L 13.992188 15.429688 C 14.097656 15.492188 14.203125 15.539062 14.316406 15.566406 C 14.429688 15.601562 14.542969 15.617188 14.65625 15.617188 C 14.789062 15.617188 14.890625 15.59375 14.953125 15.554688 C 15.015625 15.515625 15.046875 15.457031 15.046875 15.382812 C 15.046875 15.300781 15.007812 15.242188 14.933594 15.207031 C 14.855469 15.171875 14.734375 15.136719 14.566406 15.09375 C 14.449219 15.0625 14.335938 15.027344 14.230469 14.984375 C 14.128906 14.945312 14.046875 14.886719 13.980469 14.816406 C 13.917969 14.742188 13.886719 14.644531 13.886719 14.519531 C 13.886719 14.398438 13.917969 14.296875 13.980469 14.214844 C 14.042969 14.132812 14.125 14.066406 14.230469 14.023438 C 14.339844 13.980469 14.457031 13.957031 14.585938 13.957031 C 14.722656 13.957031 14.859375 13.980469 14.996094 14.023438 C 15.132812 14.066406 15.246094 14.121094 15.34375 14.183594 L 15.195312 14.449219 C 15.105469 14.394531 15.011719 14.351562 14.90625 14.316406 C 14.800781 14.28125 14.699219 14.265625 14.597656 14.265625 C 14.492188 14.265625 14.40625 14.285156 14.339844 14.324219 C 14.273438 14.359375 14.238281 14.417969 14.238281 14.5 C 14.238281 14.582031 14.277344 14.640625 14.359375 14.675781 C 14.4375 14.707031 14.558594 14.746094 14.722656 14.789062 C 14.847656 14.816406 14.960938 14.851562 15.0625 14.894531 C 15.164062 14.9375 15.246094 14.996094 15.308594 15.070312 C 15.371094 15.140625 15.402344 15.242188 15.402344 15.367188 C 15.402344 15.546875 15.335938 15.683594 15.203125 15.78125 C 15.074219 15.878906 14.894531 15.925781 14.667969 15.925781 C 14.5 15.925781 14.347656 15.90625 14.203125 15.855469 C 14.058594 15.808594 13.941406 15.753906 13.847656 15.695312 Z M 13.847656 15.695312 " fill-opacity="1" fill-rule="nonzero"/><path fill="#ffffff" d="M 17.488281 15.925781 C 17.292969 15.925781 17.125 15.882812 16.980469 15.800781 C 16.835938 15.71875 16.722656 15.601562 16.644531 15.453125 C 16.5625 15.304688 16.519531 15.136719 16.519531 14.941406 C 16.519531 14.75 16.5625 14.578125 16.644531 14.433594 C 16.722656 14.285156 16.835938 14.167969 16.980469 14.085938 C 17.125 14.003906 17.296875 13.960938 17.488281 13.960938 C 17.675781 13.960938 17.847656 14.003906 17.992188 14.085938 C 18.136719 14.167969 18.25 14.285156 18.332031 14.433594 C 18.414062 14.578125 18.453125 14.75 18.453125 14.941406 C 18.453125 15.136719 18.414062 15.304688 18.332031 15.453125 C 18.25 15.601562 18.136719 15.71875 17.992188 15.800781 C 17.84375 15.882812 17.675781 15.925781 17.488281 15.925781 Z M 17.488281 15.617188 C 17.605469 15.617188 17.710938 15.585938 17.804688 15.53125 C 17.894531 15.472656 17.96875 15.390625 18.019531 15.292969 C 18.074219 15.191406 18.097656 15.078125 18.097656 14.945312 C 18.097656 14.816406 18.070312 14.699219 18.019531 14.597656 C 17.96875 14.496094 17.894531 14.417969 17.804688 14.359375 C 17.710938 14.300781 17.605469 14.273438 17.488281 14.273438 C 17.367188 14.273438 17.261719 14.304688 17.167969 14.359375 C 17.078125 14.417969 17.007812 14.5 16.953125 14.597656 C 16.898438 14.699219 16.875 14.816406 16.875 14.945312 C 16.875 15.078125 16.902344 15.195312 16.953125 15.292969 C 17.007812 15.394531 17.078125 15.472656 17.167969 15.53125 C 17.261719 15.585938 17.367188 15.617188 17.488281 15.617188 Z M 17.488281 15.617188 " fill-opacity="1" fill-rule="nonzero"/><path fill="#ffffff" d="M 20.578125 15.882812 L 20.234375 15.882812 L 20.234375 14.789062 C 20.234375 14.628906 20.195312 14.5 20.113281 14.410156 C 20.03125 14.316406 19.917969 14.269531 19.773438 14.269531 C 19.597656 14.269531 19.457031 14.328125 19.351562 14.445312 C 19.246094 14.558594 19.191406 14.707031 19.191406 14.890625 L 19.191406 15.882812 L 18.847656 15.882812 L 18.847656 14.003906 L 19.179688 14.003906 L 19.1875 14.285156 C 19.257812 14.1875 19.355469 14.109375 19.472656 14.046875 C 19.589844 13.988281 19.71875 13.957031 19.859375 13.957031 C 20.082031 13.957031 20.257812 14.027344 20.386719 14.167969 C 20.515625 14.308594 20.578125 14.5 20.578125 14.742188 Z M 20.578125 15.882812 " fill-opacity="1" fill-rule="nonzero"/></svg>