<svg xmlns="http://www.w3.org/2000/svg" xmlns:xlink="http://www.w3.org/1999/xlink" width="40" zoomAndPan="magnify" viewBox="0 0 30 30.000001" height="40" preserveAspectRatio="xMidYMid meet" version="1.0"><defs><clipPath id="ca4406e31d"><path d="M 3.386719 2.902344 L 26.613281 2.902344 L 26.613281 26.128906 L 3.386719 26.128906 Z M 3.386719 2.902344 " clip-rule="nonzero"/></clipPath></defs><g clip-path="url(#ca4406e31d)"><path fill="#1b9df0" d="M 26.613281 14.515625 C 26.613281 15.277344 26.539062 16.035156 26.390625 16.78125 C 26.242188 17.53125 26.019531 18.253906 25.730469 18.960938 C 25.4375 19.664062 25.078125 20.332031 24.65625 20.96875 C 24.230469 21.601562 23.75 22.1875 23.210938 22.726562 C 22.671875 23.265625 22.085938 23.75 21.453125 24.171875 C 20.816406 24.59375 20.148438 24.953125 19.445312 25.246094 C 18.738281 25.535156 18.011719 25.757812 17.265625 25.90625 C 16.519531 26.054688 15.761719 26.128906 15 26.128906 C 14.238281 26.128906 13.480469 26.054688 12.734375 25.90625 C 11.988281 25.757812 11.261719 25.535156 10.554688 25.246094 C 9.851562 24.953125 9.183594 24.59375 8.546875 24.171875 C 7.914062 23.75 7.328125 23.265625 6.789062 22.726562 C 6.25 22.1875 5.769531 21.601562 5.34375 20.96875 C 4.921875 20.332031 4.5625 19.664062 4.269531 18.960938 C 3.980469 18.253906 3.757812 17.53125 3.609375 16.78125 C 3.460938 16.035156 3.386719 15.277344 3.386719 14.515625 C 3.386719 13.753906 3.460938 13 3.609375 12.25 C 3.757812 11.503906 3.980469 10.777344 4.269531 10.070312 C 4.5625 9.367188 4.921875 8.699219 5.34375 8.0625 C 5.769531 7.429688 6.25 6.84375 6.789062 6.304688 C 7.328125 5.765625 7.914062 5.285156 8.546875 4.859375 C 9.183594 4.4375 9.851562 4.078125 10.554688 3.789062 C 11.261719 3.496094 11.988281 3.273438 12.734375 3.125 C 13.480469 2.976562 14.238281 2.902344 15 2.902344 C 15.761719 2.902344 16.519531 2.976562 17.265625 3.125 C 18.011719 3.273438 18.738281 3.496094 19.445312 3.789062 C 20.148438 4.078125 20.816406 4.4375 21.453125 4.859375 C 22.085938 5.285156 22.671875 5.765625 23.210938 6.304688 C 23.75 6.84375 24.230469 7.429688 24.65625 8.0625 C 25.078125 8.699219 25.4375 9.367188 25.730469 10.070312 C 26.019531 10.777344 26.242188 11.503906 26.390625 12.25 C 26.539062 13 26.613281 13.753906 26.613281 14.515625 Z M 26.613281 14.515625 " fill-opacity="1" fill-rule="nonzero"/></g><path fill="#ffffff" d="M 12.875 20.640625 C 18.023438 20.640625 20.839844 16.375 20.839844 12.675781 C 20.839844 12.554688 20.839844 12.429688 20.835938 12.316406 C 21.382812 11.921875 21.855469 11.425781 22.234375 10.863281 C 21.734375 11.085938 21.195312 11.234375 20.625 11.304688 C 21.207031 10.957031 21.648438 10.410156 21.855469 9.753906 C 21.316406 10.074219 20.71875 10.304688 20.082031 10.433594 C 19.570312 9.886719 18.84375 9.550781 18.035156 9.550781 C 16.492188 9.550781 15.238281 10.804688 15.238281 12.351562 C 15.238281 12.570312 15.261719 12.785156 15.3125 12.988281 C 12.984375 12.871094 10.925781 11.757812 9.542969 10.0625 C 9.304688 10.476562 9.164062 10.957031 9.164062 11.46875 C 9.164062 12.4375 9.65625 13.296875 10.414062 13.796875 C 9.953125 13.785156 9.523438 13.65625 9.148438 13.449219 C 9.148438 13.460938 9.148438 13.472656 9.148438 13.484375 C 9.148438 14.839844 10.109375 15.96875 11.394531 16.230469 C 11.160156 16.292969 10.914062 16.328125 10.65625 16.328125 C 10.476562 16.328125 10.300781 16.308594 10.128906 16.277344 C 10.484375 17.390625 11.515625 18.199219 12.742188 18.21875 C 11.785156 18.96875 10.574219 19.417969 9.261719 19.417969 C 9.035156 19.417969 8.816406 19.40625 8.59375 19.375 C 9.820312 20.175781 11.296875 20.640625 12.875 20.640625 " fill-opacity="1" fill-rule="nonzero"/></svg>