<svg xmlns="http://www.w3.org/2000/svg" xmlns:xlink="http://www.w3.org/1999/xlink" width="40" zoomAndPan="magnify" viewBox="0 0 30 30.000001" height="40" preserveAspectRatio="xMidYMid meet" version="1.0"><defs><clipPath id="49ab3e204c"><path d="M 3.386719 2.902344 L 26.613281 2.902344 L 26.613281 26.128906 L 3.386719 26.128906 Z M 3.386719 2.902344 " clip-rule="nonzero"/></clipPath></defs><g clip-path="url(#49ab3e204c)"><path fill="#ffffff" d="M 14.996094 4.996094 C 18.09375 4.996094 18.460938 5.007812 19.6875 5.0625 C 20.816406 5.113281 21.433594 5.300781 21.84375 5.464844 C 22.382812 5.675781 22.769531 5.929688 23.179688 6.335938 C 23.585938 6.742188 23.835938 7.128906 24.046875 7.667969 C 24.207031 8.074219 24.394531 8.691406 24.449219 9.828125 C 24.507812 11.054688 24.515625 11.417969 24.515625 14.519531 C 24.515625 17.617188 24.507812 17.984375 24.449219 19.210938 C 24.398438 20.339844 24.210938 20.957031 24.046875 21.367188 C 23.839844 21.90625 23.585938 22.292969 23.179688 22.703125 C 22.769531 23.109375 22.382812 23.359375 21.84375 23.570312 C 21.4375 23.730469 20.820312 23.917969 19.6875 23.972656 C 18.460938 24.03125 18.09375 24.039062 14.996094 24.039062 C 11.894531 24.039062 11.53125 24.03125 10.304688 23.972656 C 9.171875 23.921875 8.558594 23.734375 8.144531 23.570312 C 7.605469 23.363281 7.21875 23.109375 6.8125 22.703125 C 6.40625 22.292969 6.15625 21.90625 5.941406 21.367188 C 5.785156 20.960938 5.59375 20.34375 5.539062 19.210938 C 5.484375 17.984375 5.472656 17.617188 5.472656 14.519531 C 5.472656 11.417969 5.484375 11.054688 5.539062 9.828125 C 5.589844 8.695312 5.777344 8.082031 5.941406 7.667969 C 6.148438 7.128906 6.40625 6.742188 6.8125 6.335938 C 7.21875 5.929688 7.605469 5.679688 8.144531 5.464844 C 8.550781 5.308594 9.167969 5.121094 10.304688 5.0625 C 11.53125 5.007812 11.894531 4.996094 14.996094 4.996094 M 14.996094 2.90625 C 11.839844 2.90625 11.449219 2.921875 10.207031 2.976562 C 8.96875 3.03125 8.125 3.230469 7.386719 3.515625 C 6.625 3.8125 5.976562 4.207031 5.332031 4.855469 C 4.691406 5.5 4.292969 6.148438 3.996094 6.910156 C 3.710938 7.648438 3.515625 8.492188 3.457031 9.730469 C 3.402344 10.964844 3.386719 11.363281 3.386719 14.511719 C 3.386719 17.667969 3.402344 18.0625 3.457031 19.300781 C 3.515625 20.539062 3.710938 21.382812 3.996094 22.121094 C 4.292969 22.886719 4.691406 23.53125 5.335938 24.175781 C 5.984375 24.824219 6.628906 25.21875 7.390625 25.515625 C 8.128906 25.800781 8.976562 26 10.210938 26.054688 C 11.449219 26.109375 11.84375 26.125 15 26.125 C 18.15625 26.125 18.546875 26.109375 19.789062 26.054688 C 21.023438 26 21.871094 25.800781 22.609375 25.515625 C 23.371094 25.21875 24.015625 24.824219 24.664062 24.175781 C 25.308594 23.53125 25.707031 22.886719 26.003906 22.121094 C 26.289062 21.382812 26.484375 20.539062 26.542969 19.300781 C 26.597656 18.066406 26.613281 17.667969 26.613281 14.511719 C 26.613281 11.359375 26.597656 10.964844 26.542969 9.726562 C 26.484375 8.488281 26.289062 7.644531 26.003906 6.90625 C 25.707031 6.140625 25.308594 5.496094 24.664062 4.851562 C 24.015625 4.203125 23.371094 3.804688 22.609375 3.511719 C 21.871094 3.226562 21.023438 3.027344 19.789062 2.972656 C 18.546875 2.921875 18.148438 2.90625 14.996094 2.90625 " fill-opacity="1" fill-rule="nonzero"/></g><path fill="#ffffff" d="M 14.996094 8.554688 C 11.703125 8.554688 9.035156 11.222656 9.035156 14.511719 C 9.035156 17.804688 11.707031 20.476562 15 20.476562 C 18.292969 20.476562 20.964844 17.8125 20.964844 14.511719 C 20.960938 11.222656 18.289062 8.554688 14.996094 8.554688 M 14.996094 18.386719 C 12.859375 18.386719 11.128906 16.65625 11.128906 14.519531 C 11.128906 12.382812 12.859375 10.652344 14.996094 10.652344 C 17.132812 10.652344 18.863281 12.382812 18.863281 14.519531 C 18.867188 16.652344 17.132812 18.386719 14.996094 18.386719 " fill-opacity="1" fill-rule="nonzero"/><path fill="#ffffff" d="M 22.585938 8.320312 C 22.585938 9.089844 21.960938 9.714844 21.191406 9.714844 C 20.425781 9.714844 19.800781 9.089844 19.800781 8.320312 C 19.800781 7.550781 20.425781 6.925781 21.191406 6.925781 C 21.960938 6.925781 22.585938 7.546875 22.585938 8.320312 " fill-opacity="1" fill-rule="nonzero"/></svg>