<svg xmlns="http://www.w3.org/2000/svg" xmlns:xlink="http://www.w3.org/1999/xlink" width="40" zoomAndPan="magnify" viewBox="0 0 30 30.000001" height="40" preserveAspectRatio="xMidYMid meet" version="1.0"><defs><clipPath id="68ab47b4bd"><path d="M 3.386719 5.4375 L 26.613281 5.4375 L 26.613281 23.582031 L 3.386719 23.582031 Z M 3.386719 5.4375 " clip-rule="nonzero"/></clipPath></defs><g clip-path="url(#68ab47b4bd)"><path fill="#c31624" d="M 9.054688 14.558594 L 12.519531 14.558594 L 12.519531 23.582031 L 3.390625 23.582031 L 3.390625 15.976562 C 3.390625 12.257812 4.300781 9.589844 6.109375 7.976562 C 7.921875 6.359375 10.5 5.511719 13.847656 5.4375 L 13.894531 9.097656 C 9.90625 9.515625 8.753906 11.257812 9.054688 14.558594 Z M 21.8125 14.558594 L 25.28125 14.558594 L 25.28125 23.582031 L 16.152344 23.582031 L 16.152344 15.976562 C 16.152344 12.257812 17.058594 9.589844 18.871094 7.976562 C 20.679688 6.359375 23.261719 5.511719 26.609375 5.4375 L 26.609375 9.132812 C 22.621094 9.546875 21.511719 11.257812 21.8125 14.558594 Z M 21.8125 14.558594 " fill-opacity="1" fill-rule="nonzero"/></g></svg>