<svg xmlns="http://www.w3.org/2000/svg" xmlns:xlink="http://www.w3.org/1999/xlink" width="40" zoomAndPan="magnify" viewBox="0 0 30 30.000001" height="40" preserveAspectRatio="xMidYMid meet" version="1.0"><defs><clipPath id="a92615d0ee"><path d="M 14 2.902344 L 15 2.902344 L 15 6 L 14 6 Z M 14 2.902344 " clip-rule="nonzero"/></clipPath><clipPath id="5d377a8c8e"><path d="M 9.789062 4 L 12 4 L 12 7 L 9.789062 7 Z M 9.789062 4 " clip-rule="nonzero"/></clipPath><clipPath id="0e73f796ed"><path d="M 9.789062 15.386719 L 19.953125 15.386719 L 19.953125 26.125 L 9.789062 26.125 Z M 9.789062 15.386719 " clip-rule="nonzero"/></clipPath><clipPath id="b696cf1eeb"><path d="M 13.511719 15.386719 L 19.953125 15.386719 L 19.953125 26.125 L 13.511719 26.125 Z M 13.511719 15.386719 " clip-rule="nonzero"/></clipPath></defs><path fill="#96c4f6" d="M 14.367188 14.992188 C 12.242188 14.992188 10.519531 15.171875 10.519531 15.394531 C 10.519531 15.617188 12.242188 15.800781 14.367188 15.800781 C 16.492188 15.800781 18.21875 15.617188 18.21875 15.394531 C 18.21875 15.171875 16.492188 14.992188 14.367188 14.992188 Z M 14.367188 14.910156 C 16.558594 14.910156 18.335938 15.128906 18.335938 15.394531 C 18.335938 15.664062 16.558594 15.882812 14.367188 15.882812 C 12.175781 15.882812 10.398438 15.664062 10.398438 15.394531 C 10.398438 15.128906 12.175781 14.910156 14.367188 14.910156 " fill-opacity="1" fill-rule="evenodd"/><path fill="#4a6991" d="M 14.367188 15.800781 C 16.488281 15.800781 18.21875 15.617188 18.21875 15.394531 C 18.21875 15.175781 16.488281 14.992188 14.367188 14.992188 C 12.25 14.992188 10.519531 15.175781 10.519531 15.394531 C 10.519531 15.617188 12.25 15.800781 14.367188 15.800781 " fill-opacity="1" fill-rule="evenodd"/><g clip-path="url(#a92615d0ee)"><path fill="#fec106" d="M 14.230469 4.242188 C 14.230469 3.757812 14.308594 3.300781 14.441406 2.90625 C 14.578125 3.300781 14.652344 3.757812 14.652344 4.242188 C 14.652344 5.820312 14.230469 5.820312 14.230469 4.242188 " fill-opacity="1" fill-rule="evenodd"/></g><path fill="#fec106" d="M 15.542969 4.375 C 15.667969 3.90625 15.855469 3.488281 16.085938 3.140625 C 16.113281 3.558594 16.074219 4.019531 15.953125 4.488281 C 15.550781 6.011719 15.144531 5.902344 15.542969 4.375 " fill-opacity="1" fill-rule="evenodd"/><path fill="#fec106" d="M 16.777344 4.855469 C 17.015625 4.433594 17.300781 4.078125 17.609375 3.804688 C 17.535156 4.21875 17.378906 4.652344 17.144531 5.070312 C 16.371094 6.4375 16.007812 6.222656 16.777344 4.855469 " fill-opacity="1" fill-rule="evenodd"/><path fill="#fec106" d="M 17.847656 5.644531 C 18.183594 5.300781 18.550781 5.035156 18.917969 4.851562 C 18.742188 5.230469 18.480469 5.605469 18.148438 5.949219 C 17.058594 7.066406 16.757812 6.761719 17.847656 5.644531 " fill-opacity="1" fill-rule="evenodd"/><path fill="#fec106" d="M 12.929688 4.457031 C 12.808594 3.992188 12.765625 3.53125 12.796875 3.113281 C 13.027344 3.460938 13.214844 3.878906 13.335938 4.347656 C 13.734375 5.871094 13.328125 5.984375 12.929688 4.457031 " fill-opacity="1" fill-rule="evenodd"/><path fill="#fec106" d="M 11.726562 5.015625 C 11.492188 4.59375 11.335938 4.160156 11.257812 3.75 C 11.566406 4.023438 11.855469 4.378906 12.09375 4.796875 C 12.863281 6.167969 12.496094 6.382812 11.726562 5.015625 " fill-opacity="1" fill-rule="evenodd"/><g clip-path="url(#5d377a8c8e)"><path fill="#fec106" d="M 10.707031 5.871094 C 10.371094 5.527344 10.113281 5.152344 9.933594 4.773438 C 10.300781 4.957031 10.667969 5.222656 11.003906 5.566406 C 12.09375 6.683594 11.796875 6.988281 10.707031 5.871094 " fill-opacity="1" fill-rule="evenodd"/></g><path fill="#fecb2c" d="M 16.039062 14.894531 C 15.71875 15.199219 15.496094 15.59375 15.445312 16.148438 C 15.339844 16.148438 13.511719 16.148438 13.40625 16.148438 C 13.355469 15.59375 13.136719 15.199219 12.816406 14.894531 C 12.710938 14.9375 12.601562 14.957031 12.484375 14.957031 C 12.160156 14.957031 11.878906 14.792969 11.707031 14.542969 C 11.152344 14.554688 10.703125 14.070312 10.746094 13.5 C 10.46875 13.359375 10.339844 13.023438 10.363281 12.722656 C 10.050781 12.417969 10.046875 11.835938 10.351562 11.523438 C 10.074219 11.214844 10.054688 10.421875 10.292969 10.0625 C 10.316406 10.03125 10.339844 10 10.367188 9.972656 C 10.367188 9.953125 10.371094 9.929688 10.371094 9.90625 C 10.121094 9.617188 10.171875 9.164062 10.488281 8.941406 C 10.480469 8.699219 10.542969 8.429688 10.667969 8.171875 C 10.894531 7.707031 11.28125 7.40625 11.640625 7.363281 C 11.675781 6.898438 12.09375 6.707031 12.441406 6.796875 C 12.507812 6.519531 12.75 6.3125 13.042969 6.3125 C 13.128906 6.3125 13.210938 6.332031 13.285156 6.363281 C 13.375 6.164062 13.574219 6.027344 13.800781 6.027344 C 14.050781 6.027344 14.324219 6.199219 14.324219 6.472656 C 14.324219 8.183594 14.324219 9.914062 14.324219 11.617188 C 14.324219 11.675781 14.371094 11.722656 14.425781 11.722656 C 14.484375 11.722656 14.53125 11.675781 14.53125 11.617188 C 14.53125 9.914062 14.53125 8.183594 14.53125 6.472656 C 14.53125 6.199219 14.800781 6.027344 15.050781 6.027344 C 15.28125 6.027344 15.476562 6.164062 15.570312 6.363281 C 15.644531 6.332031 15.726562 6.3125 15.808594 6.3125 C 16.101562 6.3125 16.34375 6.519531 16.410156 6.796875 C 16.757812 6.707031 17.175781 6.898438 17.214844 7.363281 C 17.574219 7.40625 17.957031 7.707031 18.183594 8.171875 C 18.3125 8.429688 18.371094 8.699219 18.367188 8.941406 C 18.679688 9.164062 18.730469 9.617188 18.480469 9.90625 C 18.484375 9.929688 18.484375 9.953125 18.484375 9.972656 C 18.511719 10 18.535156 10.03125 18.558594 10.0625 C 18.796875 10.421875 18.777344 11.214844 18.503906 11.523438 C 18.808594 11.835938 18.804688 12.417969 18.488281 12.722656 C 18.511719 13.023438 18.382812 13.359375 18.105469 13.5 C 18.148438 14.070312 17.699219 14.554688 17.144531 14.542969 C 16.972656 14.792969 16.691406 14.957031 16.371094 14.957031 C 16.253906 14.957031 16.140625 14.9375 16.039062 14.894531 " fill-opacity="1" fill-rule="evenodd"/><path fill="#fec106" d="M 13.636719 16.585938 C 14.164062 16.585938 14.691406 16.585938 15.214844 16.585938 C 15.351562 15.894531 15.492188 15.132812 16.011719 14.640625 L 16.179688 14.707031 C 16.257812 14.738281 16.335938 14.753906 16.417969 14.753906 C 16.640625 14.753906 16.84375 14.640625 16.96875 14.457031 L 17.0625 14.320312 L 17.21875 14.324219 C 17.613281 14.335938 17.933594 13.988281 17.902344 13.585938 L 17.890625 13.382812 L 18.066406 13.289062 C 18.238281 13.203125 18.308594 12.96875 18.296875 12.785156 L 18.289062 12.640625 L 18.390625 12.542969 C 18.589844 12.347656 18.589844 11.949219 18.394531 11.75 L 18.195312 11.542969 L 18.386719 11.332031 C 18.582031 11.113281 18.578125 10.449219 18.417969 10.207031 C 18.410156 10.195312 18.398438 10.179688 18.386719 10.167969 L 18.296875 10.082031 L 18.292969 9.957031 C 18.292969 9.941406 18.289062 9.929688 18.289062 9.917969 L 18.273438 9.78125 L 18.359375 9.675781 C 18.503906 9.515625 18.472656 9.257812 18.296875 9.136719 L 18.167969 9.042969 L 18.167969 8.882812 C 18.171875 8.660156 18.113281 8.433594 18.015625 8.234375 C 17.875 7.945312 17.582031 7.609375 17.25 7.570312 L 17.011719 7.542969 L 16.988281 7.296875 C 16.96875 7.050781 16.753906 6.925781 16.535156 6.980469 L 16.246094 7.054688 L 16.175781 6.761719 C 16.136719 6.605469 16 6.496094 15.84375 6.496094 C 15.800781 6.496094 15.753906 6.503906 15.710938 6.523438 L 15.453125 6.636719 L 15.332031 6.375 C 15.28125 6.269531 15.179688 6.203125 15.066406 6.203125 C 14.984375 6.203125 14.828125 6.257812 14.828125 6.359375 C 14.828125 8.117188 14.828125 9.871094 14.828125 11.628906 C 14.828125 11.855469 14.648438 12.039062 14.425781 12.039062 C 14.207031 12.039062 14.027344 11.855469 14.027344 11.628906 C 14.027344 9.871094 14.027344 8.117188 14.027344 6.359375 C 14.027344 6.257812 13.867188 6.203125 13.785156 6.203125 C 13.671875 6.203125 13.570312 6.269531 13.523438 6.375 L 13.402344 6.636719 L 13.140625 6.523438 C 13.097656 6.503906 13.054688 6.496094 13.007812 6.496094 C 12.851562 6.496094 12.714844 6.605469 12.675781 6.761719 L 12.605469 7.054688 L 12.320312 6.980469 C 12.097656 6.925781 11.882812 7.050781 11.863281 7.296875 L 11.84375 7.542969 L 11.601562 7.570312 C 11.269531 7.609375 10.980469 7.945312 10.835938 8.234375 C 10.742188 8.433594 10.679688 8.660156 10.683594 8.882812 L 10.6875 9.042969 L 10.554688 9.136719 C 10.382812 9.257812 10.351562 9.515625 10.492188 9.675781 L 10.582031 9.78125 L 10.5625 9.917969 C 10.5625 9.929688 10.5625 9.941406 10.5625 9.957031 L 10.558594 10.082031 L 10.464844 10.167969 C 10.453125 10.179688 10.441406 10.195312 10.433594 10.207031 C 10.273438 10.449219 10.269531 11.113281 10.464844 11.332031 L 10.65625 11.542969 L 10.457031 11.75 C 10.261719 11.949219 10.261719 12.347656 10.464844 12.542969 L 10.566406 12.640625 L 10.554688 12.785156 C 10.542969 12.96875 10.613281 13.203125 10.785156 13.289062 L 10.964844 13.382812 L 10.949219 13.585938 C 10.917969 13.988281 11.238281 14.335938 11.632812 14.324219 L 11.792969 14.320312 L 11.882812 14.457031 C 12.007812 14.640625 12.214844 14.753906 12.433594 14.753906 C 12.515625 14.753906 12.59375 14.738281 12.671875 14.707031 L 12.839844 14.640625 C 13.363281 15.132812 13.5 15.894531 13.636719 16.585938 " fill-opacity="1" fill-rule="evenodd"/><path fill="#ffffff" d="M 16.554688 10.484375 C 16.53125 10.5 16.496094 10.492188 16.480469 10.46875 C 16.46875 10.445312 16.472656 10.417969 16.488281 10.402344 C 16.613281 10.230469 16.796875 10.125 16.988281 10.097656 C 17.183594 10.070312 17.390625 10.117188 17.558594 10.25 C 17.726562 10.378906 17.832031 10.566406 17.859375 10.765625 C 17.886719 10.964844 17.839844 11.175781 17.710938 11.351562 C 17.695312 11.375 17.660156 11.378906 17.636719 11.359375 C 17.613281 11.34375 17.609375 11.308594 17.625 11.285156 C 17.734375 11.132812 17.777344 10.953125 17.75 10.78125 C 17.726562 10.613281 17.640625 10.449219 17.496094 10.339844 C 17.496094 10.335938 17.492188 10.335938 17.492188 10.332031 C 17.34375 10.222656 17.171875 10.183594 17.003906 10.207031 C 16.839844 10.230469 16.679688 10.320312 16.570312 10.46875 C 16.566406 10.476562 16.5625 10.480469 16.554688 10.484375 " fill-opacity="1" fill-rule="evenodd"/><path fill="#ffffff" d="M 17.257812 13.769531 Z M 16.546875 13.65625 C 16.53125 13.628906 16.542969 13.597656 16.566406 13.582031 C 16.59375 13.566406 16.625 13.574219 16.640625 13.601562 C 16.703125 13.710938 16.804688 13.785156 16.914062 13.816406 C 17.027344 13.847656 17.152344 13.832031 17.257812 13.769531 C 17.367188 13.707031 17.4375 13.601562 17.46875 13.488281 C 17.5 13.375 17.484375 13.246094 17.421875 13.136719 C 17.421875 13.136719 17.421875 13.132812 17.421875 13.132812 C 17.40625 13.105469 17.417969 13.074219 17.445312 13.058594 C 17.472656 13.046875 17.503906 13.058594 17.515625 13.082031 C 17.59375 13.21875 17.609375 13.375 17.574219 13.515625 C 17.535156 13.65625 17.445312 13.785156 17.316406 13.863281 C 17.3125 13.863281 17.3125 13.867188 17.308594 13.867188 C 17.175781 13.945312 17.027344 13.960938 16.886719 13.921875 C 16.75 13.886719 16.625 13.792969 16.546875 13.65625 " fill-opacity="1" fill-rule="evenodd"/><path fill="#ffffff" d="M 15.152344 13.945312 C 15.148438 13.917969 15.164062 13.886719 15.195312 13.878906 C 15.222656 13.875 15.253906 13.894531 15.257812 13.921875 C 15.296875 14.105469 15.402344 14.253906 15.546875 14.34375 C 15.6875 14.4375 15.863281 14.476562 16.039062 14.4375 C 16.214844 14.394531 16.359375 14.285156 16.453125 14.140625 C 16.542969 13.996094 16.578125 13.816406 16.539062 13.636719 C 16.535156 13.605469 16.550781 13.578125 16.582031 13.570312 C 16.609375 13.5625 16.636719 13.582031 16.644531 13.613281 C 16.691406 13.824219 16.648438 14.03125 16.542969 14.199219 C 16.4375 14.371094 16.269531 14.496094 16.0625 14.542969 C 15.855469 14.589844 15.652344 14.546875 15.488281 14.4375 C 15.324219 14.328125 15.199219 14.15625 15.152344 13.945312 " fill-opacity="1" fill-rule="evenodd"/><path fill="#ffffff" d="M 17.570312 12.238281 C 17.542969 12.234375 17.519531 12.207031 17.523438 12.179688 C 17.527344 12.148438 17.554688 12.125 17.582031 12.128906 C 17.722656 12.144531 17.84375 12.21875 17.925781 12.324219 C 18.007812 12.429688 18.050781 12.566406 18.035156 12.710938 C 18.019531 12.855469 17.949219 12.980469 17.84375 13.0625 C 17.742188 13.148438 17.609375 13.191406 17.46875 13.175781 C 17.4375 13.171875 17.417969 13.144531 17.421875 13.113281 C 17.421875 13.085938 17.449219 13.0625 17.480469 13.066406 C 17.589844 13.078125 17.695312 13.042969 17.777344 12.976562 C 17.859375 12.910156 17.914062 12.8125 17.929688 12.699219 C 17.941406 12.585938 17.90625 12.476562 17.84375 12.394531 C 17.777344 12.308594 17.683594 12.253906 17.570312 12.238281 " fill-opacity="1" fill-rule="evenodd"/><path fill="#ffffff" d="M 15.992188 10.433594 C 16.015625 10.417969 16.050781 10.421875 16.066406 10.449219 C 16.085938 10.472656 16.078125 10.507812 16.054688 10.523438 C 15.996094 10.566406 15.960938 10.625 15.949219 10.691406 C 15.933594 10.757812 15.949219 10.828125 15.988281 10.886719 C 16.003906 10.910156 15.996094 10.945312 15.972656 10.960938 C 15.949219 10.980469 15.914062 10.972656 15.898438 10.949219 C 15.84375 10.863281 15.824219 10.765625 15.84375 10.671875 C 15.859375 10.578125 15.910156 10.492188 15.992188 10.433594 " fill-opacity="1" fill-rule="evenodd"/><path fill="#ffffff" d="M 15.054688 11.402344 C 15.039062 11.375 15.046875 11.339844 15.074219 11.324219 C 15.089844 11.3125 15.113281 11.3125 15.128906 11.324219 C 15.179688 11.351562 15.238281 11.355469 15.289062 11.335938 C 15.339844 11.320312 15.386719 11.285156 15.410156 11.230469 L 15.414062 11.230469 C 15.425781 11.207031 15.433594 11.179688 15.433594 11.152344 C 15.4375 11.125 15.433594 11.101562 15.429688 11.074219 C 15.421875 11.042969 15.4375 11.015625 15.464844 11.007812 C 15.496094 10.996094 15.523438 11.015625 15.53125 11.042969 C 15.542969 11.082031 15.546875 11.125 15.542969 11.164062 C 15.539062 11.203125 15.527344 11.242188 15.507812 11.277344 C 15.507812 11.28125 15.507812 11.28125 15.503906 11.285156 C 15.464844 11.363281 15.398438 11.417969 15.320312 11.441406 C 15.242188 11.46875 15.15625 11.460938 15.078125 11.421875 C 15.070312 11.417969 15.0625 11.410156 15.054688 11.402344 " fill-opacity="1" fill-rule="evenodd"/><path fill="#ffffff" d="M 17.195312 12.078125 C 17.179688 12.105469 17.148438 12.117188 17.121094 12.105469 C 17.097656 12.089844 17.085938 12.058594 17.097656 12.03125 C 17.167969 11.878906 17.179688 11.703125 17.148438 11.539062 C 17.113281 11.375 17.035156 11.226562 16.914062 11.128906 C 16.890625 11.109375 16.886719 11.074219 16.90625 11.050781 C 16.925781 11.027344 16.960938 11.023438 16.984375 11.042969 C 17.121094 11.15625 17.214844 11.328125 17.253906 11.515625 C 17.289062 11.703125 17.273438 11.90625 17.195312 12.078125 " fill-opacity="1" fill-rule="evenodd"/><path fill="#ffffff" d="M 16.664062 12.28125 C 16.636719 12.269531 16.621094 12.242188 16.628906 12.210938 C 16.636719 12.183594 16.667969 12.167969 16.695312 12.175781 C 16.769531 12.199219 16.851562 12.195312 16.925781 12.167969 C 17 12.140625 17.0625 12.09375 17.101562 12.027344 C 17.113281 12.003906 17.148438 11.996094 17.171875 12.011719 C 17.199219 12.027344 17.207031 12.058594 17.191406 12.085938 C 17.144531 12.171875 17.058594 12.234375 16.964844 12.269531 C 16.867188 12.304688 16.761719 12.3125 16.664062 12.28125 " fill-opacity="1" fill-rule="evenodd"/><path fill="#ffffff" d="M 17.25 12.527344 C 17.269531 12.546875 17.269531 12.582031 17.25 12.605469 C 17.226562 12.625 17.195312 12.625 17.171875 12.605469 C 17.101562 12.53125 17.058594 12.429688 17.042969 12.328125 C 17.027344 12.226562 17.046875 12.121094 17.097656 12.035156 C 17.113281 12.007812 17.144531 12 17.171875 12.015625 C 17.195312 12.035156 17.203125 12.066406 17.1875 12.09375 C 17.152344 12.15625 17.136719 12.234375 17.148438 12.3125 C 17.160156 12.394531 17.195312 12.46875 17.25 12.527344 " fill-opacity="1" fill-rule="evenodd"/><path fill="#ffffff" d="M 16.101562 13.128906 C 16.085938 13.101562 16.09375 13.066406 16.121094 13.050781 C 16.148438 13.039062 16.179688 13.046875 16.195312 13.074219 C 16.214844 13.113281 16.230469 13.15625 16.234375 13.203125 C 16.238281 13.246094 16.234375 13.292969 16.222656 13.335938 C 16.195312 13.425781 16.132812 13.496094 16.058594 13.535156 C 15.984375 13.574219 15.898438 13.585938 15.808594 13.558594 C 15.78125 13.550781 15.765625 13.519531 15.773438 13.488281 C 15.785156 13.460938 15.8125 13.445312 15.839844 13.453125 C 15.898438 13.472656 15.960938 13.464844 16.011719 13.4375 C 16.058594 13.410156 16.101562 13.363281 16.117188 13.304688 C 16.128906 13.273438 16.128906 13.242188 16.128906 13.214844 C 16.125 13.183594 16.113281 13.152344 16.101562 13.128906 " fill-opacity="1" fill-rule="evenodd"/><path fill="#ffffff" d="M 15.925781 13.113281 C 15.898438 13.101562 15.886719 13.070312 15.898438 13.042969 C 15.910156 13.015625 15.941406 13.003906 15.96875 13.015625 L 15.972656 13.015625 C 16.027344 13.039062 16.082031 13.039062 16.132812 13.019531 C 16.1875 13 16.230469 12.960938 16.257812 12.902344 L 16.257812 12.898438 C 16.285156 12.839844 16.285156 12.777344 16.265625 12.722656 C 16.246094 12.667969 16.207031 12.621094 16.15625 12.59375 C 16.128906 12.582031 16.117188 12.546875 16.128906 12.519531 C 16.140625 12.492188 16.171875 12.480469 16.199219 12.492188 C 16.28125 12.53125 16.339844 12.601562 16.367188 12.683594 C 16.394531 12.765625 16.394531 12.859375 16.355469 12.945312 L 16.351562 12.949219 C 16.316406 13.03125 16.25 13.09375 16.171875 13.121094 C 16.097656 13.152344 16.007812 13.152344 15.929688 13.117188 L 15.925781 13.113281 " fill-opacity="1" fill-rule="evenodd"/><path fill="#ffffff" d="M 15.597656 10.714844 Z M 16.273438 10.492188 C 16.296875 10.507812 16.304688 10.539062 16.289062 10.566406 C 16.273438 10.589844 16.238281 10.597656 16.214844 10.582031 C 16.113281 10.511719 15.992188 10.492188 15.878906 10.519531 C 15.765625 10.542969 15.664062 10.609375 15.597656 10.714844 L 15.597656 10.71875 L 15.59375 10.71875 C 15.53125 10.824219 15.511719 10.945312 15.535156 11.058594 C 15.558594 11.175781 15.625 11.28125 15.726562 11.347656 L 15.730469 11.351562 C 15.753906 11.367188 15.757812 11.402344 15.742188 11.425781 C 15.726562 11.453125 15.691406 11.457031 15.667969 11.441406 C 15.539062 11.355469 15.457031 11.222656 15.429688 11.082031 C 15.402344 10.941406 15.421875 10.789062 15.503906 10.660156 C 15.503906 10.660156 15.507812 10.65625 15.507812 10.652344 C 15.59375 10.523438 15.71875 10.441406 15.855469 10.410156 C 15.996094 10.378906 16.144531 10.40625 16.273438 10.492188 " fill-opacity="1" fill-rule="evenodd"/><path fill="#ffffff" d="M 16.164062 11.46875 C 16.132812 11.460938 16.117188 11.429688 16.125 11.402344 C 16.132812 11.371094 16.164062 11.355469 16.191406 11.363281 C 16.289062 11.394531 16.386719 11.378906 16.464844 11.332031 C 16.546875 11.289062 16.609375 11.210938 16.640625 11.113281 C 16.648438 11.085938 16.675781 11.070312 16.707031 11.078125 C 16.734375 11.085938 16.75 11.117188 16.742188 11.144531 C 16.707031 11.273438 16.621094 11.371094 16.519531 11.429688 C 16.414062 11.488281 16.285156 11.507812 16.164062 11.46875 " fill-opacity="1" fill-rule="evenodd"/><path fill="#ffffff" d="M 15.886719 11.972656 C 15.863281 11.957031 15.851562 11.925781 15.867188 11.898438 C 15.882812 11.871094 15.914062 11.859375 15.941406 11.875 L 15.941406 11.878906 C 15.992188 11.90625 16.050781 11.910156 16.101562 11.894531 C 16.15625 11.875 16.203125 11.839844 16.234375 11.785156 L 16.234375 11.78125 C 16.265625 11.722656 16.269531 11.660156 16.253906 11.605469 C 16.238281 11.546875 16.203125 11.5 16.152344 11.46875 C 16.125 11.453125 16.117188 11.421875 16.132812 11.394531 C 16.144531 11.367188 16.179688 11.359375 16.203125 11.371094 C 16.28125 11.417969 16.335938 11.492188 16.359375 11.574219 C 16.378906 11.660156 16.371094 11.75 16.328125 11.832031 L 16.328125 11.835938 C 16.285156 11.917969 16.214844 11.972656 16.136719 12 C 16.054688 12.023438 15.96875 12.015625 15.890625 11.972656 L 15.886719 11.972656 " fill-opacity="1" fill-rule="evenodd"/><path fill="#ffffff" d="M 17.53125 8.238281 C 17.511719 8.25 17.484375 8.246094 17.472656 8.226562 C 17.453125 8.203125 17.457031 8.171875 17.480469 8.152344 C 17.484375 8.148438 17.488281 8.144531 17.492188 8.144531 C 17.625 8.085938 17.765625 8.089844 17.890625 8.140625 C 18.015625 8.1875 18.121094 8.289062 18.179688 8.421875 C 18.179688 8.421875 18.179688 8.425781 18.179688 8.429688 C 18.238281 8.5625 18.234375 8.707031 18.1875 8.835938 C 18.136719 8.960938 18.042969 9.070312 17.910156 9.128906 C 17.890625 9.140625 17.863281 9.136719 17.847656 9.117188 C 17.828125 9.09375 17.832031 9.058594 17.855469 9.042969 C 17.859375 9.039062 17.863281 9.039062 17.867188 9.035156 C 17.972656 8.988281 18.050781 8.902344 18.089844 8.796875 C 18.132812 8.695312 18.132812 8.574219 18.085938 8.464844 C 18.039062 8.355469 17.953125 8.277344 17.855469 8.234375 C 17.753906 8.195312 17.640625 8.195312 17.53125 8.238281 " fill-opacity="1" fill-rule="evenodd"/><path fill="#ffffff" d="M 17.914062 9.136719 C 17.886719 9.148438 17.859375 9.136719 17.847656 9.109375 C 17.835938 9.082031 17.847656 9.050781 17.871094 9.039062 C 17.949219 9.007812 18.03125 9.007812 18.105469 9.035156 C 18.175781 9.066406 18.238281 9.125 18.269531 9.203125 C 18.300781 9.28125 18.300781 9.363281 18.273438 9.4375 C 18.246094 9.511719 18.1875 9.574219 18.113281 9.609375 C 18.085938 9.621094 18.058594 9.609375 18.046875 9.582031 C 18.035156 9.554688 18.046875 9.523438 18.070312 9.511719 C 18.121094 9.492188 18.160156 9.449219 18.179688 9.398438 C 18.199219 9.351562 18.199219 9.296875 18.175781 9.242188 C 18.15625 9.191406 18.113281 9.152344 18.066406 9.132812 C 18.019531 9.113281 17.964844 9.113281 17.914062 9.136719 " fill-opacity="1" fill-rule="evenodd"/><path fill="#ffffff" d="M 18.113281 12.277344 C 18.082031 12.277344 18.0625 12.296875 18.058594 12.328125 C 18.058594 12.355469 18.082031 12.378906 18.109375 12.378906 C 18.207031 12.382812 18.289062 12.320312 18.351562 12.222656 C 18.40625 12.132812 18.441406 12.007812 18.445312 11.871094 C 18.445312 11.734375 18.414062 11.609375 18.363281 11.519531 C 18.304688 11.417969 18.21875 11.355469 18.125 11.355469 C 18.097656 11.355469 18.074219 11.375 18.074219 11.40625 C 18.074219 11.433594 18.09375 11.457031 18.125 11.457031 C 18.179688 11.460938 18.234375 11.503906 18.273438 11.570312 C 18.320312 11.648438 18.34375 11.753906 18.34375 11.871094 C 18.34375 11.988281 18.3125 12.09375 18.265625 12.167969 C 18.222656 12.234375 18.167969 12.277344 18.113281 12.277344 " fill-opacity="1" fill-rule="evenodd"/><path fill="#ffffff" d="M 18.140625 10.433594 C 18.109375 10.433594 18.089844 10.457031 18.085938 10.484375 C 18.085938 10.511719 18.109375 10.535156 18.136719 10.535156 C 18.195312 10.539062 18.25 10.582031 18.289062 10.648438 C 18.332031 10.726562 18.359375 10.832031 18.355469 10.949219 C 18.355469 11.066406 18.324219 11.171875 18.28125 11.246094 C 18.238281 11.3125 18.183594 11.355469 18.125 11.355469 C 18.097656 11.355469 18.074219 11.375 18.074219 11.40625 C 18.074219 11.433594 18.09375 11.457031 18.125 11.457031 C 18.21875 11.460938 18.304688 11.398438 18.363281 11.300781 C 18.421875 11.210938 18.457031 11.085938 18.457031 10.949219 C 18.460938 10.8125 18.429688 10.6875 18.375 10.597656 C 18.316406 10.496094 18.234375 10.433594 18.140625 10.433594 " fill-opacity="1" fill-rule="evenodd"/><path fill="#ffffff" d="M 16.824219 8.464844 C 16.804688 8.484375 16.769531 8.488281 16.75 8.464844 C 16.726562 8.445312 16.726562 8.410156 16.746094 8.386719 C 16.871094 8.257812 16.933594 8.085938 16.929688 7.914062 C 16.929688 7.746094 16.863281 7.578125 16.738281 7.449219 C 16.734375 7.445312 16.734375 7.445312 16.730469 7.441406 C 16.605469 7.316406 16.4375 7.253906 16.273438 7.257812 C 16.109375 7.261719 15.945312 7.324219 15.820312 7.457031 C 15.800781 7.476562 15.769531 7.480469 15.746094 7.464844 C 15.722656 7.445312 15.714844 7.410156 15.734375 7.386719 C 15.734375 7.386719 15.738281 7.382812 15.738281 7.382812 C 15.886719 7.230469 16.078125 7.148438 16.269531 7.148438 C 16.464844 7.144531 16.660156 7.21875 16.808594 7.367188 C 16.960938 7.515625 17.035156 7.714844 17.039062 7.914062 C 17.042969 8.109375 16.96875 8.308594 16.824219 8.464844 " fill-opacity="1" fill-rule="evenodd"/><path fill="#ffffff" d="M 16.859375 9.933594 C 16.828125 9.933594 16.800781 9.910156 16.800781 9.882812 C 16.800781 9.851562 16.820312 9.824219 16.851562 9.824219 C 17.03125 9.8125 17.1875 9.726562 17.300781 9.601562 C 17.410156 9.472656 17.472656 9.304688 17.464844 9.121094 C 17.453125 8.9375 17.371094 8.773438 17.246094 8.660156 C 17.125 8.546875 16.957031 8.480469 16.777344 8.492188 C 16.75 8.496094 16.722656 8.472656 16.722656 8.441406 C 16.71875 8.410156 16.742188 8.382812 16.773438 8.382812 C 16.980469 8.371094 17.175781 8.445312 17.320312 8.578125 C 17.464844 8.710938 17.558594 8.898438 17.570312 9.113281 C 17.582031 9.328125 17.507812 9.527344 17.378906 9.675781 C 17.25 9.824219 17.066406 9.921875 16.859375 9.933594 " fill-opacity="1" fill-rule="evenodd"/><path fill="#ffffff" d="M 15.195312 8.070312 C 15.214844 8.089844 15.21875 8.125 15.199219 8.148438 C 15.179688 8.171875 15.144531 8.171875 15.121094 8.152344 C 15.015625 8.054688 14.960938 7.921875 14.953125 7.789062 C 14.945312 7.652344 14.988281 7.515625 15.082031 7.410156 C 15.179688 7.300781 15.308594 7.242188 15.4375 7.234375 C 15.570312 7.226562 15.703125 7.273438 15.808594 7.371094 C 15.832031 7.390625 15.832031 7.425781 15.8125 7.445312 C 15.792969 7.46875 15.757812 7.472656 15.738281 7.453125 C 15.652344 7.375 15.546875 7.339844 15.445312 7.34375 C 15.339844 7.351562 15.238281 7.398438 15.164062 7.484375 C 15.089844 7.566406 15.054688 7.675781 15.058594 7.78125 C 15.066406 7.890625 15.109375 7.992188 15.195312 8.070312 " fill-opacity="1" fill-rule="evenodd"/><path fill="#ffffff" d="M 15.4375 7.070312 C 15.445312 7.101562 15.429688 7.128906 15.398438 7.140625 C 15.371094 7.148438 15.339844 7.128906 15.332031 7.101562 C 15.3125 7.023438 15.332031 6.941406 15.382812 6.871094 C 15.429688 6.808594 15.503906 6.753906 15.59375 6.730469 C 15.683594 6.703125 15.773438 6.707031 15.84375 6.738281 C 15.921875 6.769531 15.980469 6.828125 16.003906 6.90625 C 16.011719 6.9375 15.996094 6.96875 15.964844 6.976562 C 15.9375 6.984375 15.90625 6.964844 15.898438 6.9375 C 15.886719 6.894531 15.851562 6.859375 15.804688 6.839844 C 15.753906 6.820312 15.6875 6.816406 15.621094 6.835938 C 15.554688 6.855469 15.5 6.890625 15.46875 6.9375 C 15.4375 6.980469 15.425781 7.027344 15.4375 7.070312 " fill-opacity="1" fill-rule="evenodd"/><path fill="#ffffff" d="M 15.121094 6.863281 C 15.101562 6.886719 15.066406 6.890625 15.046875 6.871094 C 15.023438 6.851562 15.019531 6.816406 15.039062 6.792969 C 15.089844 6.730469 15.167969 6.699219 15.25 6.703125 C 15.328125 6.707031 15.414062 6.742188 15.484375 6.804688 C 15.507812 6.824219 15.511719 6.859375 15.492188 6.882812 C 15.472656 6.902344 15.4375 6.90625 15.417969 6.886719 C 15.363281 6.84375 15.300781 6.816406 15.246094 6.816406 C 15.195312 6.8125 15.148438 6.828125 15.121094 6.863281 " fill-opacity="1" fill-rule="evenodd"/><path fill="#ffffff" d="M 15.710938 9.699219 C 15.734375 9.679688 15.769531 9.6875 15.785156 9.710938 C 15.804688 9.734375 15.796875 9.769531 15.773438 9.789062 C 15.742188 9.808594 15.710938 9.828125 15.679688 9.839844 C 15.566406 9.890625 15.441406 9.890625 15.324219 9.84375 C 15.210938 9.796875 15.101562 9.710938 15.019531 9.585938 C 14.980469 9.535156 14.949219 9.472656 14.921875 9.40625 C 14.835938 9.203125 14.816406 8.976562 14.851562 8.777344 C 14.890625 8.574219 14.984375 8.398438 15.128906 8.292969 C 15.152344 8.277344 15.1875 8.28125 15.203125 8.304688 C 15.21875 8.332031 15.214844 8.367188 15.191406 8.382812 C 15.070312 8.46875 14.992188 8.621094 14.957031 8.796875 C 14.925781 8.976562 14.945312 9.179688 15.019531 9.363281 C 15.046875 9.421875 15.074219 9.476562 15.105469 9.523438 C 15.179688 9.628906 15.269531 9.703125 15.363281 9.742188 C 15.453125 9.777344 15.550781 9.777344 15.636719 9.738281 C 15.664062 9.726562 15.6875 9.714844 15.710938 9.699219 " fill-opacity="1" fill-rule="evenodd"/><path fill="#ffffff" d="M 15.492188 9.878906 C 15.460938 9.875 15.4375 9.851562 15.441406 9.820312 C 15.441406 9.789062 15.46875 9.765625 15.496094 9.769531 C 15.585938 9.773438 15.671875 9.828125 15.730469 9.910156 C 15.789062 9.992188 15.824219 10.097656 15.828125 10.210938 C 15.828125 10.242188 15.804688 10.265625 15.777344 10.269531 C 15.746094 10.269531 15.722656 10.246094 15.722656 10.214844 C 15.71875 10.125 15.6875 10.039062 15.644531 9.976562 C 15.601562 9.917969 15.546875 9.882812 15.492188 9.878906 " fill-opacity="1" fill-rule="evenodd"/><path fill="#ffffff" d="M 15.855469 9.054688 C 15.878906 9.074219 15.882812 9.105469 15.867188 9.132812 C 15.847656 9.15625 15.8125 9.160156 15.789062 9.140625 C 15.789062 9.140625 15.789062 9.140625 15.785156 9.140625 C 15.667969 9.042969 15.601562 8.90625 15.582031 8.761719 C 15.566406 8.617188 15.605469 8.46875 15.699219 8.34375 C 15.699219 8.34375 15.699219 8.34375 15.703125 8.339844 C 15.796875 8.21875 15.929688 8.148438 16.070312 8.132812 C 16.210938 8.117188 16.355469 8.15625 16.476562 8.25 C 16.5 8.269531 16.503906 8.304688 16.484375 8.328125 C 16.46875 8.351562 16.433594 8.355469 16.410156 8.339844 C 16.3125 8.257812 16.195312 8.230469 16.082031 8.242188 C 15.96875 8.253906 15.863281 8.3125 15.785156 8.410156 L 15.785156 8.414062 C 15.707031 8.511719 15.675781 8.632812 15.691406 8.75 C 15.703125 8.863281 15.757812 8.976562 15.855469 9.054688 " fill-opacity="1" fill-rule="evenodd"/><path fill="#ffffff" d="M 15.628906 8.933594 C 15.617188 8.90625 15.632812 8.871094 15.660156 8.859375 C 15.6875 8.847656 15.71875 8.863281 15.730469 8.890625 C 15.761719 8.964844 15.757812 9.046875 15.730469 9.121094 C 15.703125 9.191406 15.648438 9.25 15.574219 9.285156 C 15.546875 9.296875 15.515625 9.28125 15.503906 9.253906 C 15.492188 9.226562 15.503906 9.195312 15.53125 9.183594 C 15.578125 9.164062 15.613281 9.125 15.632812 9.078125 C 15.648438 9.035156 15.648438 8.980469 15.628906 8.933594 " fill-opacity="1" fill-rule="evenodd"/><path fill="#ffffff" d="M 16.105469 9.445312 C 16.097656 9.414062 16.117188 9.386719 16.144531 9.378906 C 16.171875 9.371094 16.203125 9.390625 16.210938 9.417969 C 16.234375 9.53125 16.300781 9.632812 16.386719 9.707031 C 16.472656 9.78125 16.578125 9.828125 16.683594 9.828125 C 16.710938 9.828125 16.734375 9.851562 16.734375 9.882812 C 16.734375 9.914062 16.710938 9.9375 16.679688 9.9375 C 16.550781 9.9375 16.421875 9.882812 16.320312 9.792969 C 16.214844 9.703125 16.136719 9.578125 16.105469 9.445312 " fill-opacity="1" fill-rule="evenodd"/><path fill="#ffffff" d="M 14.949219 11.171875 C 14.976562 11.171875 15 11.195312 15 11.222656 C 15 11.253906 14.976562 11.277344 14.949219 11.277344 C 14.867188 11.277344 14.796875 11.222656 14.746094 11.140625 C 14.703125 11.066406 14.675781 10.960938 14.675781 10.847656 C 14.675781 10.734375 14.703125 10.628906 14.75 10.554688 C 14.800781 10.472656 14.871094 10.421875 14.953125 10.421875 C 14.980469 10.421875 15.003906 10.445312 15.003906 10.472656 C 15.003906 10.5 14.980469 10.523438 14.953125 10.523438 C 14.910156 10.523438 14.867188 10.558594 14.835938 10.609375 C 14.800781 10.667969 14.777344 10.753906 14.777344 10.847656 C 14.777344 10.941406 14.796875 11.027344 14.835938 11.085938 C 14.867188 11.140625 14.90625 11.171875 14.949219 11.171875 " fill-opacity="1" fill-rule="evenodd"/><path fill="#ffffff" d="M 14.953125 9.667969 C 14.980469 9.667969 15.003906 9.691406 15.003906 9.722656 C 15.003906 9.75 14.980469 9.773438 14.953125 9.773438 C 14.910156 9.773438 14.871094 9.804688 14.835938 9.859375 C 14.800781 9.917969 14.777344 10.003906 14.777344 10.097656 C 14.777344 10.191406 14.800781 10.273438 14.835938 10.335938 C 14.867188 10.386719 14.910156 10.421875 14.953125 10.421875 C 14.980469 10.421875 15.003906 10.445312 15.003906 10.472656 C 15.003906 10.5 14.980469 10.523438 14.953125 10.523438 C 14.871094 10.523438 14.800781 10.472656 14.75 10.390625 C 14.703125 10.316406 14.675781 10.210938 14.675781 10.101562 C 14.675781 10.097656 14.675781 10.09375 14.675781 10.09375 C 14.679688 9.980469 14.707031 9.878906 14.75 9.804688 C 14.800781 9.71875 14.875 9.667969 14.953125 9.667969 " fill-opacity="1" fill-rule="evenodd"/><path fill="#ffffff" d="M 17.570312 9.886719 C 17.546875 9.902344 17.515625 9.898438 17.5 9.875 C 17.484375 9.851562 17.488281 9.816406 17.511719 9.800781 C 17.558594 9.769531 17.613281 9.765625 17.664062 9.785156 C 17.714844 9.800781 17.761719 9.835938 17.792969 9.886719 C 17.8125 9.910156 17.804688 9.945312 17.78125 9.960938 C 17.757812 9.976562 17.726562 9.96875 17.710938 9.945312 C 17.691406 9.914062 17.660156 9.890625 17.632812 9.882812 C 17.609375 9.875 17.585938 9.875 17.570312 9.886719 " fill-opacity="1" fill-rule="evenodd"/><path fill="#ffffff" d="M 18.132812 10.007812 C 18.148438 10.03125 18.179688 10.039062 18.203125 10.023438 C 18.226562 10.007812 18.230469 9.976562 18.21875 9.953125 C 18.195312 9.914062 18.164062 9.886719 18.128906 9.859375 C 18.09375 9.835938 18.054688 9.820312 18.015625 9.8125 C 17.929688 9.796875 17.847656 9.816406 17.78125 9.863281 C 17.714844 9.910156 17.667969 9.980469 17.652344 10.066406 C 17.648438 10.09375 17.664062 10.121094 17.691406 10.128906 C 17.71875 10.132812 17.746094 10.113281 17.753906 10.085938 C 17.761719 10.027344 17.796875 9.980469 17.839844 9.949219 C 17.882812 9.917969 17.9375 9.902344 17.996094 9.914062 C 18.023438 9.921875 18.050781 9.929688 18.074219 9.945312 C 18.097656 9.964844 18.117188 9.984375 18.132812 10.007812 " fill-opacity="1" fill-rule="evenodd"/><path fill="#ffffff" d="M 16.929688 8.945312 C 16.929688 8.914062 16.953125 8.894531 16.980469 8.894531 C 17.007812 8.894531 17.03125 8.917969 17.03125 8.945312 C 17.027344 9.058594 16.96875 9.160156 16.875 9.230469 C 16.78125 9.296875 16.660156 9.335938 16.523438 9.332031 C 16.496094 9.332031 16.476562 9.308594 16.476562 9.277344 C 16.476562 9.25 16.5 9.226562 16.527344 9.230469 C 16.640625 9.230469 16.742188 9.199219 16.8125 9.144531 C 16.882812 9.09375 16.925781 9.023438 16.929688 8.945312 " fill-opacity="1" fill-rule="evenodd"/><path fill="#ffffff" d="M 12.296875 10.484375 C 12.324219 10.5 12.355469 10.492188 12.371094 10.46875 C 12.382812 10.445312 12.382812 10.417969 12.367188 10.402344 C 12.238281 10.230469 12.054688 10.125 11.863281 10.097656 C 11.667969 10.070312 11.464844 10.117188 11.292969 10.25 C 11.125 10.378906 11.023438 10.566406 10.996094 10.765625 C 10.96875 10.964844 11.011719 11.175781 11.140625 11.351562 C 11.160156 11.375 11.191406 11.378906 11.214844 11.359375 C 11.238281 11.34375 11.246094 11.308594 11.226562 11.285156 C 11.117188 11.132812 11.078125 10.953125 11.101562 10.78125 C 11.125 10.613281 11.210938 10.449219 11.355469 10.339844 C 11.359375 10.335938 11.359375 10.335938 11.363281 10.332031 C 11.507812 10.222656 11.683594 10.183594 11.847656 10.207031 C 12.015625 10.230469 12.171875 10.320312 12.28125 10.46875 C 12.285156 10.476562 12.289062 10.480469 12.296875 10.484375 " fill-opacity="1" fill-rule="evenodd"/><path fill="#ffffff" d="M 11.59375 13.769531 Z M 12.304688 13.65625 C 12.320312 13.628906 12.3125 13.597656 12.285156 13.582031 C 12.257812 13.566406 12.226562 13.574219 12.210938 13.601562 C 12.148438 13.710938 12.046875 13.785156 11.9375 13.816406 C 11.824219 13.847656 11.703125 13.832031 11.59375 13.769531 C 11.484375 13.707031 11.414062 13.601562 11.382812 13.488281 C 11.355469 13.375 11.367188 13.246094 11.429688 13.136719 C 11.429688 13.136719 11.429688 13.132812 11.433594 13.132812 C 11.445312 13.105469 11.433594 13.074219 11.40625 13.058594 C 11.378906 13.046875 11.347656 13.058594 11.335938 13.082031 C 11.257812 13.21875 11.242188 13.375 11.28125 13.515625 C 11.316406 13.65625 11.40625 13.785156 11.539062 13.863281 C 11.539062 13.863281 11.539062 13.867188 11.542969 13.867188 C 11.675781 13.945312 11.828125 13.960938 11.964844 13.921875 C 12.101562 13.886719 12.226562 13.792969 12.304688 13.65625 " fill-opacity="1" fill-rule="evenodd"/><path fill="#ffffff" d="M 13.699219 13.945312 C 13.707031 13.917969 13.6875 13.886719 13.65625 13.878906 C 13.628906 13.875 13.601562 13.894531 13.59375 13.921875 C 13.554688 14.105469 13.449219 14.253906 13.308594 14.34375 C 13.167969 14.4375 12.992188 14.476562 12.8125 14.4375 C 12.636719 14.394531 12.492188 14.285156 12.402344 14.140625 C 12.3125 13.996094 12.273438 13.816406 12.3125 13.636719 C 12.320312 13.605469 12.300781 13.578125 12.273438 13.570312 C 12.242188 13.5625 12.214844 13.582031 12.207031 13.613281 C 12.164062 13.824219 12.207031 14.03125 12.3125 14.199219 C 12.417969 14.371094 12.585938 14.496094 12.789062 14.542969 C 12.996094 14.589844 13.199219 14.546875 13.367188 14.4375 C 13.53125 14.328125 13.652344 14.15625 13.699219 13.945312 " fill-opacity="1" fill-rule="evenodd"/><path fill="#ffffff" d="M 11.28125 12.238281 C 11.3125 12.234375 11.332031 12.207031 11.328125 12.179688 C 11.324219 12.148438 11.300781 12.125 11.269531 12.128906 C 11.128906 12.144531 11.007812 12.21875 10.925781 12.324219 C 10.84375 12.429688 10.800781 12.566406 10.816406 12.710938 C 10.832031 12.855469 10.90625 12.980469 11.007812 13.0625 C 11.109375 13.148438 11.246094 13.191406 11.386719 13.175781 C 11.414062 13.171875 11.4375 13.144531 11.433594 13.113281 C 11.429688 13.085938 11.402344 13.0625 11.375 13.066406 C 11.261719 13.078125 11.15625 13.042969 11.074219 12.976562 C 10.992188 12.910156 10.9375 12.8125 10.925781 12.699219 C 10.910156 12.585938 10.945312 12.476562 11.011719 12.394531 C 11.074219 12.308594 11.171875 12.253906 11.28125 12.238281 " fill-opacity="1" fill-rule="evenodd"/><path fill="#ffffff" d="M 12.859375 10.433594 C 12.835938 10.417969 12.800781 10.421875 12.785156 10.449219 C 12.769531 10.472656 12.773438 10.507812 12.800781 10.523438 C 12.855469 10.566406 12.894531 10.625 12.90625 10.691406 C 12.917969 10.757812 12.90625 10.828125 12.867188 10.886719 C 12.847656 10.910156 12.855469 10.945312 12.878906 10.960938 C 12.902344 10.980469 12.9375 10.972656 12.953125 10.949219 C 13.011719 10.863281 13.027344 10.765625 13.011719 10.671875 C 12.992188 10.578125 12.941406 10.492188 12.859375 10.433594 " fill-opacity="1" fill-rule="evenodd"/><path fill="#ffffff" d="M 13.796875 11.402344 C 13.8125 11.375 13.804688 11.339844 13.78125 11.324219 C 13.761719 11.3125 13.742188 11.3125 13.722656 11.324219 C 13.671875 11.351562 13.617188 11.355469 13.566406 11.335938 C 13.511719 11.320312 13.46875 11.285156 13.441406 11.230469 C 13.429688 11.207031 13.421875 11.179688 13.417969 11.152344 C 13.414062 11.125 13.417969 11.101562 13.425781 11.074219 C 13.433594 11.042969 13.414062 11.015625 13.386719 11.007812 C 13.359375 10.996094 13.328125 11.015625 13.320312 11.042969 C 13.308594 11.082031 13.308594 11.125 13.3125 11.164062 C 13.316406 11.203125 13.324219 11.242188 13.34375 11.277344 C 13.34375 11.28125 13.347656 11.28125 13.347656 11.285156 C 13.386719 11.363281 13.457031 11.417969 13.53125 11.441406 C 13.609375 11.46875 13.695312 11.460938 13.773438 11.421875 C 13.78125 11.417969 13.792969 11.410156 13.796875 11.402344 " fill-opacity="1" fill-rule="evenodd"/><path fill="#ffffff" d="M 11.660156 12.078125 C 11.671875 12.105469 11.703125 12.117188 11.730469 12.105469 C 11.757812 12.089844 11.769531 12.058594 11.753906 12.03125 C 11.6875 11.878906 11.671875 11.703125 11.707031 11.539062 C 11.738281 11.375 11.820312 11.226562 11.9375 11.128906 C 11.960938 11.109375 11.964844 11.074219 11.945312 11.050781 C 11.925781 11.027344 11.894531 11.023438 11.871094 11.042969 C 11.730469 11.15625 11.636719 11.328125 11.601562 11.515625 C 11.5625 11.703125 11.578125 11.90625 11.660156 12.078125 " fill-opacity="1" fill-rule="evenodd"/><path fill="#ffffff" d="M 12.1875 12.28125 C 12.214844 12.269531 12.230469 12.242188 12.222656 12.210938 C 12.214844 12.183594 12.183594 12.167969 12.15625 12.175781 C 12.082031 12.199219 12 12.195312 11.925781 12.167969 C 11.851562 12.140625 11.789062 12.09375 11.753906 12.027344 C 11.738281 12.003906 11.703125 11.996094 11.679688 12.011719 C 11.652344 12.027344 11.644531 12.058594 11.660156 12.085938 C 11.710938 12.171875 11.792969 12.234375 11.890625 12.269531 C 11.984375 12.304688 12.089844 12.3125 12.1875 12.28125 " fill-opacity="1" fill-rule="evenodd"/><path fill="#ffffff" d="M 11.605469 12.527344 C 11.582031 12.546875 11.582031 12.582031 11.605469 12.605469 C 11.625 12.625 11.660156 12.625 11.679688 12.605469 C 11.75 12.53125 11.796875 12.429688 11.808594 12.328125 C 11.824219 12.226562 11.808594 12.121094 11.757812 12.035156 C 11.742188 12.007812 11.707031 12 11.683594 12.015625 C 11.65625 12.035156 11.648438 12.066406 11.664062 12.09375 C 11.703125 12.15625 11.714844 12.234375 11.703125 12.3125 C 11.691406 12.394531 11.660156 12.46875 11.605469 12.527344 " fill-opacity="1" fill-rule="evenodd"/><path fill="#ffffff" d="M 12.753906 13.128906 C 12.765625 13.101562 12.757812 13.066406 12.730469 13.050781 C 12.707031 13.039062 12.671875 13.046875 12.660156 13.074219 C 12.636719 13.113281 12.625 13.15625 12.617188 13.203125 C 12.613281 13.246094 12.617188 13.292969 12.632812 13.335938 C 12.660156 13.425781 12.71875 13.496094 12.792969 13.535156 C 12.867188 13.574219 12.957031 13.585938 13.042969 13.558594 C 13.070312 13.550781 13.085938 13.519531 13.078125 13.488281 C 13.070312 13.460938 13.039062 13.445312 13.011719 13.453125 C 12.953125 13.472656 12.894531 13.464844 12.84375 13.4375 C 12.792969 13.410156 12.753906 13.363281 12.734375 13.304688 C 12.726562 13.273438 12.722656 13.242188 12.726562 13.214844 C 12.726562 13.183594 12.738281 13.152344 12.753906 13.128906 " fill-opacity="1" fill-rule="evenodd"/><path fill="#ffffff" d="M 12.929688 13.113281 C 12.953125 13.101562 12.964844 13.070312 12.953125 13.042969 C 12.941406 13.015625 12.910156 13.003906 12.882812 13.015625 L 12.878906 13.015625 C 12.828125 13.039062 12.769531 13.039062 12.71875 13.019531 C 12.667969 13 12.621094 12.960938 12.597656 12.902344 L 12.59375 12.902344 L 12.59375 12.898438 C 12.570312 12.839844 12.566406 12.777344 12.585938 12.722656 C 12.605469 12.667969 12.644531 12.621094 12.699219 12.59375 C 12.726562 12.582031 12.738281 12.546875 12.722656 12.519531 C 12.710938 12.492188 12.679688 12.480469 12.652344 12.492188 C 12.570312 12.53125 12.515625 12.601562 12.484375 12.683594 C 12.457031 12.765625 12.460938 12.859375 12.496094 12.945312 L 12.5 12.949219 C 12.539062 13.03125 12.601562 13.09375 12.679688 13.121094 C 12.757812 13.152344 12.84375 13.152344 12.925781 13.117188 L 12.929688 13.113281 " fill-opacity="1" fill-rule="evenodd"/><path fill="#ffffff" d="M 13.253906 10.714844 Z M 12.578125 10.492188 C 12.554688 10.507812 12.546875 10.539062 12.5625 10.566406 C 12.578125 10.589844 12.613281 10.597656 12.636719 10.582031 C 12.742188 10.511719 12.863281 10.492188 12.972656 10.519531 C 13.085938 10.542969 13.1875 10.609375 13.253906 10.714844 L 13.257812 10.71875 C 13.324219 10.824219 13.339844 10.945312 13.316406 11.058594 C 13.292969 11.175781 13.230469 11.28125 13.125 11.347656 L 13.125 11.351562 C 13.097656 11.367188 13.09375 11.402344 13.109375 11.425781 C 13.128906 11.453125 13.160156 11.457031 13.1875 11.441406 C 13.3125 11.355469 13.394531 11.222656 13.421875 11.082031 C 13.453125 10.941406 13.429688 10.789062 13.347656 10.660156 C 13.347656 10.660156 13.347656 10.65625 13.34375 10.652344 C 13.261719 10.523438 13.132812 10.441406 12.996094 10.410156 C 12.855469 10.378906 12.707031 10.40625 12.578125 10.492188 " fill-opacity="1" fill-rule="evenodd"/><path fill="#ffffff" d="M 12.691406 11.46875 C 12.71875 11.460938 12.734375 11.429688 12.726562 11.402344 C 12.71875 11.371094 12.6875 11.355469 12.660156 11.363281 C 12.566406 11.394531 12.46875 11.378906 12.386719 11.332031 C 12.304688 11.289062 12.242188 11.210938 12.214844 11.113281 C 12.207031 11.085938 12.175781 11.070312 12.148438 11.078125 C 12.117188 11.085938 12.101562 11.117188 12.109375 11.144531 C 12.148438 11.273438 12.230469 11.371094 12.335938 11.429688 C 12.441406 11.488281 12.566406 11.507812 12.691406 11.46875 " fill-opacity="1" fill-rule="evenodd"/><path fill="#ffffff" d="M 12.964844 11.972656 C 12.992188 11.957031 13 11.925781 12.984375 11.898438 C 12.972656 11.871094 12.9375 11.859375 12.914062 11.875 L 12.910156 11.878906 C 12.859375 11.90625 12.800781 11.910156 12.75 11.894531 C 12.695312 11.875 12.648438 11.839844 12.621094 11.785156 L 12.617188 11.78125 C 12.589844 11.722656 12.582031 11.660156 12.597656 11.605469 C 12.613281 11.546875 12.648438 11.5 12.699219 11.46875 C 12.726562 11.453125 12.734375 11.421875 12.722656 11.394531 C 12.707031 11.367188 12.671875 11.359375 12.648438 11.371094 C 12.570312 11.417969 12.515625 11.492188 12.496094 11.574219 C 12.472656 11.660156 12.480469 11.75 12.523438 11.832031 L 12.523438 11.835938 L 12.527344 11.835938 C 12.570312 11.917969 12.640625 11.972656 12.71875 12 C 12.796875 12.023438 12.882812 12.015625 12.960938 11.972656 L 12.964844 11.972656 " fill-opacity="1" fill-rule="evenodd"/><path fill="#ffffff" d="M 11.320312 8.238281 C 11.339844 8.25 11.367188 8.246094 11.382812 8.226562 C 11.398438 8.203125 11.394531 8.171875 11.375 8.152344 C 11.371094 8.148438 11.363281 8.144531 11.359375 8.144531 C 11.226562 8.085938 11.085938 8.089844 10.960938 8.140625 C 10.835938 8.1875 10.730469 8.289062 10.675781 8.421875 C 10.671875 8.421875 10.671875 8.425781 10.671875 8.429688 C 10.617188 8.5625 10.617188 8.707031 10.667969 8.835938 C 10.714844 8.960938 10.8125 9.070312 10.941406 9.128906 C 10.964844 9.140625 10.992188 9.136719 11.003906 9.117188 C 11.023438 9.09375 11.019531 9.058594 10.996094 9.042969 C 10.992188 9.039062 10.992188 9.039062 10.984375 9.035156 C 10.878906 8.988281 10.800781 8.902344 10.761719 8.796875 C 10.722656 8.695312 10.71875 8.574219 10.765625 8.464844 C 10.8125 8.355469 10.898438 8.277344 11 8.234375 C 11.097656 8.195312 11.214844 8.195312 11.320312 8.238281 " fill-opacity="1" fill-rule="evenodd"/><path fill="#ffffff" d="M 10.941406 9.136719 C 10.964844 9.148438 10.996094 9.136719 11.007812 9.109375 C 11.015625 9.082031 11.003906 9.050781 10.980469 9.039062 C 10.902344 9.007812 10.820312 9.007812 10.75 9.035156 C 10.675781 9.066406 10.617188 9.125 10.582031 9.203125 C 10.550781 9.28125 10.550781 9.363281 10.578125 9.4375 C 10.609375 9.511719 10.664062 9.574219 10.738281 9.609375 C 10.765625 9.621094 10.796875 9.609375 10.808594 9.582031 C 10.816406 9.554688 10.804688 9.523438 10.78125 9.511719 C 10.730469 9.492188 10.691406 9.449219 10.675781 9.398438 C 10.65625 9.351562 10.65625 9.296875 10.675781 9.242188 C 10.699219 9.191406 10.738281 9.152344 10.785156 9.132812 C 10.835938 9.113281 10.890625 9.113281 10.941406 9.136719 " fill-opacity="1" fill-rule="evenodd"/><path fill="#ffffff" d="M 10.742188 12.277344 C 10.769531 12.277344 10.792969 12.296875 10.792969 12.328125 C 10.792969 12.355469 10.769531 12.378906 10.742188 12.378906 C 10.648438 12.382812 10.5625 12.320312 10.5 12.222656 C 10.445312 12.132812 10.410156 12.007812 10.40625 11.871094 C 10.40625 11.734375 10.4375 11.609375 10.492188 11.519531 C 10.546875 11.417969 10.632812 11.355469 10.726562 11.355469 C 10.753906 11.355469 10.777344 11.375 10.777344 11.40625 C 10.78125 11.433594 10.757812 11.457031 10.730469 11.457031 C 10.671875 11.460938 10.617188 11.503906 10.578125 11.570312 C 10.535156 11.648438 10.507812 11.753906 10.507812 11.871094 C 10.511719 11.988281 10.539062 12.09375 10.585938 12.167969 C 10.628906 12.234375 10.683594 12.277344 10.742188 12.277344 " fill-opacity="1" fill-rule="evenodd"/><path fill="#ffffff" d="M 10.714844 10.433594 C 10.742188 10.433594 10.765625 10.457031 10.765625 10.484375 C 10.765625 10.511719 10.742188 10.535156 10.714844 10.535156 C 10.65625 10.539062 10.605469 10.582031 10.566406 10.648438 C 10.519531 10.726562 10.492188 10.832031 10.496094 10.949219 C 10.496094 11.066406 10.527344 11.171875 10.574219 11.246094 C 10.617188 11.3125 10.667969 11.355469 10.726562 11.355469 C 10.753906 11.355469 10.777344 11.375 10.777344 11.40625 C 10.78125 11.433594 10.757812 11.457031 10.730469 11.457031 C 10.632812 11.460938 10.546875 11.398438 10.488281 11.300781 C 10.433594 11.210938 10.394531 11.085938 10.394531 10.949219 C 10.390625 10.8125 10.425781 10.6875 10.476562 10.597656 C 10.535156 10.496094 10.617188 10.433594 10.714844 10.433594 " fill-opacity="1" fill-rule="evenodd"/><path fill="#ffffff" d="M 12.027344 8.464844 C 12.046875 8.484375 12.082031 8.488281 12.105469 8.464844 C 12.125 8.445312 12.125 8.410156 12.105469 8.386719 C 11.980469 8.257812 11.917969 8.085938 11.921875 7.914062 C 11.921875 7.746094 11.988281 7.578125 12.113281 7.449219 C 12.117188 7.445312 12.117188 7.445312 12.121094 7.441406 C 12.25 7.316406 12.414062 7.253906 12.578125 7.257812 C 12.746094 7.261719 12.910156 7.324219 13.035156 7.457031 C 13.050781 7.476562 13.085938 7.480469 13.109375 7.464844 C 13.132812 7.445312 13.136719 7.410156 13.117188 7.386719 C 13.117188 7.386719 13.117188 7.382812 13.113281 7.382812 C 12.96875 7.230469 12.773438 7.148438 12.582031 7.148438 C 12.386719 7.144531 12.195312 7.21875 12.042969 7.367188 C 11.894531 7.515625 11.816406 7.714844 11.8125 7.914062 C 11.8125 8.109375 11.882812 8.308594 12.027344 8.464844 " fill-opacity="1" fill-rule="evenodd"/><path fill="#ffffff" d="M 11.996094 9.933594 C 12.023438 9.933594 12.050781 9.910156 12.050781 9.882812 C 12.054688 9.851562 12.03125 9.824219 12 9.824219 C 11.824219 9.8125 11.664062 9.726562 11.554688 9.601562 C 11.441406 9.472656 11.378906 9.304688 11.390625 9.121094 C 11.398438 8.9375 11.480469 8.773438 11.605469 8.660156 C 11.730469 8.546875 11.894531 8.480469 12.074219 8.492188 C 12.105469 8.496094 12.128906 8.472656 12.132812 8.441406 C 12.132812 8.410156 12.109375 8.382812 12.082031 8.382812 C 11.871094 8.371094 11.679688 8.445312 11.535156 8.578125 C 11.390625 8.710938 11.292969 8.898438 11.28125 9.113281 C 11.269531 9.328125 11.34375 9.527344 11.472656 9.675781 C 11.601562 9.824219 11.785156 9.921875 11.996094 9.933594 " fill-opacity="1" fill-rule="evenodd"/><path fill="#ffffff" d="M 13.660156 8.070312 C 13.636719 8.089844 13.636719 8.125 13.65625 8.148438 C 13.675781 8.171875 13.707031 8.171875 13.730469 8.152344 C 13.835938 8.054688 13.894531 7.921875 13.898438 7.789062 C 13.90625 7.652344 13.863281 7.515625 13.769531 7.410156 C 13.675781 7.300781 13.546875 7.242188 13.414062 7.234375 C 13.285156 7.226562 13.148438 7.273438 13.042969 7.371094 C 13.023438 7.390625 13.019531 7.425781 13.039062 7.445312 C 13.058594 7.46875 13.09375 7.472656 13.117188 7.453125 C 13.199219 7.375 13.304688 7.339844 13.410156 7.34375 C 13.511719 7.351562 13.613281 7.398438 13.6875 7.484375 C 13.765625 7.566406 13.796875 7.675781 13.792969 7.78125 C 13.785156 7.890625 13.742188 7.992188 13.660156 8.070312 " fill-opacity="1" fill-rule="evenodd"/><path fill="#ffffff" d="M 13.417969 7.070312 C 13.40625 7.101562 13.425781 7.128906 13.453125 7.140625 C 13.480469 7.148438 13.511719 7.128906 13.519531 7.101562 C 13.542969 7.023438 13.519531 6.941406 13.472656 6.871094 C 13.425781 6.808594 13.351562 6.753906 13.261719 6.730469 C 13.171875 6.703125 13.082031 6.707031 13.007812 6.738281 C 12.929688 6.769531 12.871094 6.828125 12.847656 6.90625 C 12.839844 6.9375 12.859375 6.96875 12.886719 6.976562 C 12.914062 6.984375 12.945312 6.964844 12.953125 6.9375 C 12.964844 6.894531 13 6.859375 13.046875 6.839844 C 13.097656 6.820312 13.164062 6.816406 13.230469 6.835938 C 13.296875 6.855469 13.351562 6.890625 13.386719 6.9375 C 13.414062 6.980469 13.429688 7.027344 13.417969 7.070312 " fill-opacity="1" fill-rule="evenodd"/><path fill="#ffffff" d="M 13.730469 6.863281 C 13.75 6.886719 13.785156 6.890625 13.808594 6.871094 C 13.828125 6.851562 13.832031 6.816406 13.8125 6.792969 C 13.761719 6.730469 13.683594 6.699219 13.601562 6.703125 C 13.523438 6.707031 13.4375 6.742188 13.367188 6.804688 C 13.34375 6.824219 13.34375 6.859375 13.359375 6.882812 C 13.378906 6.902344 13.414062 6.90625 13.4375 6.886719 C 13.488281 6.84375 13.550781 6.816406 13.605469 6.816406 C 13.65625 6.8125 13.703125 6.828125 13.730469 6.863281 " fill-opacity="1" fill-rule="evenodd"/><path fill="#ffffff" d="M 13.140625 9.699219 C 13.117188 9.679688 13.085938 9.6875 13.066406 9.710938 C 13.050781 9.734375 13.054688 9.769531 13.078125 9.789062 C 13.109375 9.808594 13.140625 9.828125 13.171875 9.839844 C 13.289062 9.890625 13.410156 9.890625 13.527344 9.84375 C 13.644531 9.796875 13.75 9.710938 13.835938 9.585938 C 13.871094 9.535156 13.902344 9.472656 13.929688 9.40625 C 14.015625 9.203125 14.035156 8.976562 14 8.777344 C 13.964844 8.574219 13.867188 8.398438 13.722656 8.292969 C 13.699219 8.277344 13.667969 8.28125 13.648438 8.304688 C 13.632812 8.332031 13.636719 8.367188 13.664062 8.382812 C 13.78125 8.46875 13.863281 8.621094 13.894531 8.796875 C 13.925781 8.976562 13.90625 9.179688 13.832031 9.363281 C 13.808594 9.421875 13.777344 9.476562 13.746094 9.523438 C 13.675781 9.628906 13.585938 9.703125 13.492188 9.742188 C 13.398438 9.777344 13.304688 9.777344 13.214844 9.738281 C 13.191406 9.726562 13.164062 9.714844 13.140625 9.699219 " fill-opacity="1" fill-rule="evenodd"/><path fill="#ffffff" d="M 13.363281 9.878906 C 13.390625 9.875 13.414062 9.851562 13.414062 9.820312 C 13.410156 9.789062 13.386719 9.765625 13.355469 9.769531 C 13.265625 9.773438 13.183594 9.828125 13.121094 9.910156 C 13.066406 9.992188 13.027344 10.097656 13.023438 10.210938 C 13.023438 10.242188 13.046875 10.265625 13.074219 10.269531 C 13.105469 10.269531 13.128906 10.246094 13.132812 10.214844 C 13.132812 10.125 13.164062 10.039062 13.207031 9.976562 C 13.25 9.917969 13.304688 9.882812 13.363281 9.878906 " fill-opacity="1" fill-rule="evenodd"/><path fill="#ffffff" d="M 12.996094 9.054688 C 12.972656 9.074219 12.96875 9.105469 12.988281 9.132812 C 13.003906 9.15625 13.039062 9.160156 13.0625 9.140625 C 13.0625 9.140625 13.066406 9.140625 13.066406 9.140625 C 13.183594 9.042969 13.253906 8.90625 13.269531 8.761719 C 13.285156 8.617188 13.25 8.46875 13.152344 8.34375 C 13.152344 8.34375 13.152344 8.34375 13.152344 8.339844 C 13.054688 8.21875 12.921875 8.148438 12.785156 8.132812 C 12.640625 8.117188 12.496094 8.15625 12.375 8.25 C 12.351562 8.269531 12.347656 8.304688 12.367188 8.328125 C 12.386719 8.351562 12.417969 8.355469 12.441406 8.339844 C 12.539062 8.257812 12.65625 8.230469 12.769531 8.242188 C 12.882812 8.253906 12.992188 8.3125 13.066406 8.410156 L 13.070312 8.410156 L 13.070312 8.414062 C 13.144531 8.511719 13.175781 8.632812 13.164062 8.75 C 13.148438 8.863281 13.09375 8.976562 13 9.054688 L 12.996094 9.054688 " fill-opacity="1" fill-rule="evenodd"/><path fill="#ffffff" d="M 13.222656 8.933594 C 13.234375 8.90625 13.222656 8.871094 13.195312 8.859375 C 13.167969 8.847656 13.136719 8.863281 13.125 8.890625 C 13.09375 8.964844 13.09375 9.046875 13.121094 9.121094 C 13.148438 9.191406 13.203125 9.25 13.28125 9.285156 C 13.308594 9.296875 13.339844 9.28125 13.351562 9.253906 C 13.363281 9.226562 13.347656 9.195312 13.320312 9.183594 C 13.273438 9.164062 13.238281 9.125 13.222656 9.078125 C 13.203125 9.035156 13.203125 8.980469 13.222656 8.933594 " fill-opacity="1" fill-rule="evenodd"/><path fill="#ffffff" d="M 12.746094 9.445312 C 12.753906 9.414062 12.738281 9.386719 12.707031 9.378906 C 12.679688 9.371094 12.648438 9.390625 12.644531 9.417969 C 12.617188 9.53125 12.550781 9.632812 12.464844 9.707031 C 12.378906 9.78125 12.273438 9.828125 12.171875 9.828125 C 12.140625 9.828125 12.117188 9.851562 12.117188 9.882812 C 12.117188 9.914062 12.140625 9.9375 12.171875 9.9375 C 12.300781 9.9375 12.429688 9.882812 12.535156 9.792969 C 12.636719 9.703125 12.71875 9.578125 12.746094 9.445312 " fill-opacity="1" fill-rule="evenodd"/><path fill="#ffffff" d="M 13.902344 11.171875 C 13.875 11.171875 13.851562 11.195312 13.851562 11.222656 C 13.851562 11.253906 13.875 11.277344 13.902344 11.277344 C 13.984375 11.277344 14.054688 11.222656 14.105469 11.140625 C 14.148438 11.066406 14.179688 10.960938 14.179688 10.847656 C 14.175781 10.734375 14.148438 10.628906 14.105469 10.554688 C 14.054688 10.472656 13.980469 10.421875 13.902344 10.421875 C 13.871094 10.421875 13.851562 10.445312 13.851562 10.472656 C 13.851562 10.5 13.871094 10.523438 13.902344 10.523438 C 13.945312 10.523438 13.984375 10.558594 14.015625 10.609375 C 14.054688 10.667969 14.078125 10.753906 14.078125 10.847656 C 14.078125 10.941406 14.054688 11.027344 14.019531 11.085938 C 13.988281 11.140625 13.945312 11.171875 13.902344 11.171875 " fill-opacity="1" fill-rule="evenodd"/><path fill="#ffffff" d="M 13.898438 9.667969 C 13.871094 9.667969 13.847656 9.691406 13.847656 9.722656 C 13.847656 9.75 13.871094 9.773438 13.898438 9.773438 C 13.941406 9.773438 13.984375 9.804688 14.015625 9.859375 C 14.050781 9.917969 14.074219 10.003906 14.074219 10.097656 C 14.074219 10.191406 14.050781 10.273438 14.015625 10.335938 C 13.984375 10.386719 13.945312 10.421875 13.902344 10.421875 C 13.871094 10.421875 13.851562 10.445312 13.851562 10.472656 C 13.851562 10.5 13.871094 10.523438 13.902344 10.523438 C 13.980469 10.523438 14.054688 10.472656 14.101562 10.390625 C 14.148438 10.316406 14.175781 10.210938 14.175781 10.101562 C 14.175781 10.097656 14.175781 10.09375 14.175781 10.09375 C 14.175781 9.980469 14.148438 9.878906 14.101562 9.804688 C 14.050781 9.71875 13.980469 9.667969 13.898438 9.667969 " fill-opacity="1" fill-rule="evenodd"/><path fill="#ffffff" d="M 11.285156 9.886719 C 11.308594 9.902344 11.339844 9.898438 11.355469 9.875 C 11.371094 9.851562 11.363281 9.816406 11.339844 9.800781 C 11.296875 9.769531 11.242188 9.765625 11.1875 9.785156 C 11.140625 9.800781 11.09375 9.835938 11.058594 9.886719 C 11.042969 9.910156 11.046875 9.945312 11.070312 9.960938 C 11.09375 9.976562 11.125 9.96875 11.140625 9.945312 C 11.164062 9.914062 11.191406 9.890625 11.21875 9.882812 C 11.242188 9.875 11.265625 9.875 11.285156 9.886719 " fill-opacity="1" fill-rule="evenodd"/><path fill="#ffffff" d="M 10.722656 10.007812 C 10.707031 10.03125 10.675781 10.039062 10.652344 10.023438 C 10.628906 10.007812 10.621094 9.976562 10.636719 9.953125 C 10.660156 9.914062 10.6875 9.886719 10.722656 9.859375 C 10.757812 9.835938 10.796875 9.820312 10.839844 9.8125 C 10.921875 9.796875 11.003906 9.816406 11.070312 9.863281 C 11.136719 9.910156 11.183594 9.980469 11.199219 10.066406 C 11.207031 10.09375 11.1875 10.121094 11.160156 10.128906 C 11.132812 10.132812 11.105469 10.113281 11.101562 10.085938 C 11.089844 10.027344 11.058594 9.980469 11.011719 9.949219 C 10.96875 9.917969 10.914062 9.902344 10.859375 9.914062 C 10.828125 9.921875 10.804688 9.929688 10.78125 9.945312 C 10.757812 9.964844 10.734375 9.984375 10.722656 10.007812 " fill-opacity="1" fill-rule="evenodd"/><path fill="#ffffff" d="M 11.921875 8.945312 C 11.921875 8.914062 11.898438 8.894531 11.871094 8.894531 C 11.84375 8.894531 11.820312 8.917969 11.820312 8.945312 C 11.824219 9.058594 11.886719 9.160156 11.980469 9.230469 C 12.070312 9.296875 12.195312 9.335938 12.328125 9.332031 C 12.355469 9.332031 12.378906 9.308594 12.375 9.277344 C 12.375 9.25 12.351562 9.226562 12.324219 9.230469 C 12.214844 9.230469 12.113281 9.199219 12.039062 9.144531 C 11.96875 9.09375 11.925781 9.023438 11.921875 8.945312 " fill-opacity="1" fill-rule="evenodd"/><path fill="#ffffff" d="M 14.019531 12.378906 C 14.050781 12.429688 14.113281 12.449219 14.164062 12.417969 C 14.210938 12.390625 14.230469 12.324219 14.199219 12.273438 C 14.074219 12.054688 14.109375 12.109375 13.984375 11.886719 C 13.953125 11.835938 13.890625 11.820312 13.84375 11.847656 C 13.792969 11.878906 13.777344 11.941406 13.804688 11.992188 C 13.929688 12.214844 13.898438 12.160156 14.019531 12.378906 " fill-opacity="1" fill-rule="evenodd"/><path fill="#ffffff" d="M 14.445312 12.378906 C 14.472656 12.429688 14.539062 12.449219 14.585938 12.417969 C 14.636719 12.390625 14.652344 12.324219 14.625 12.273438 C 14.5 12.054688 14.53125 12.109375 14.40625 11.886719 C 14.378906 11.835938 14.316406 11.820312 14.265625 11.847656 C 14.214844 11.878906 14.199219 11.941406 14.226562 11.992188 C 14.351562 12.214844 14.320312 12.160156 14.445312 12.378906 " fill-opacity="1" fill-rule="evenodd"/><path fill="#ffffff" d="M 14.871094 12.378906 C 14.898438 12.429688 14.960938 12.449219 15.011719 12.417969 C 15.058594 12.390625 15.078125 12.324219 15.046875 12.273438 C 14.925781 12.054688 14.957031 12.109375 14.832031 11.886719 C 14.804688 11.835938 14.738281 11.820312 14.691406 11.847656 C 14.640625 11.878906 14.625 11.941406 14.652344 11.992188 C 14.777344 12.214844 14.746094 12.160156 14.871094 12.378906 " fill-opacity="1" fill-rule="evenodd"/><path fill="#ffffff" d="M 13.992188 16.121094 C 13.996094 16.179688 13.957031 16.230469 13.898438 16.238281 C 13.84375 16.242188 13.792969 16.199219 13.785156 16.144531 L 13.410156 12.59375 C 13.40625 12.570312 13.40625 12.546875 13.40625 12.527344 C 13.40625 12.382812 13.457031 12.253906 13.539062 12.15625 C 13.625 12.058594 13.746094 11.992188 13.886719 11.976562 C 13.90625 11.972656 13.929688 11.972656 13.949219 11.972656 C 14.007812 11.972656 14.050781 12.019531 14.050781 12.078125 C 14.050781 12.136719 14.007812 12.183594 13.949219 12.183594 C 13.933594 12.183594 13.921875 12.183594 13.90625 12.1875 C 13.820312 12.195312 13.746094 12.234375 13.695312 12.296875 C 13.640625 12.355469 13.613281 12.4375 13.613281 12.527344 C 13.613281 12.542969 13.613281 12.558594 13.613281 12.570312 L 13.992188 16.121094 " fill-opacity="1" fill-rule="evenodd"/><path fill="#ffffff" d="M 15.066406 16.144531 C 15.0625 16.199219 15.011719 16.242188 14.953125 16.238281 C 14.898438 16.230469 14.855469 16.179688 14.863281 16.121094 L 15.238281 12.570312 C 15.242188 12.558594 15.242188 12.542969 15.242188 12.527344 C 15.242188 12.4375 15.210938 12.355469 15.15625 12.296875 C 15.105469 12.234375 15.03125 12.195312 14.945312 12.1875 C 14.933594 12.183594 14.917969 12.183594 14.902344 12.183594 C 14.847656 12.183594 14.800781 12.136719 14.800781 12.078125 C 14.800781 12.019531 14.847656 11.972656 14.902344 11.972656 C 14.921875 11.972656 14.945312 11.972656 14.964844 11.976562 C 15.105469 11.992188 15.226562 12.058594 15.3125 12.15625 C 15.398438 12.253906 15.449219 12.382812 15.449219 12.527344 C 15.449219 12.546875 15.445312 12.570312 15.445312 12.59375 L 15.066406 16.144531 " fill-opacity="1" fill-rule="evenodd"/><path fill="#b0bec5" d="M 13.398438 16.554688 C 14.085938 16.554688 14.769531 16.554688 15.453125 16.554688 C 15.542969 16.554688 15.617188 16.648438 15.617188 16.765625 C 15.617188 16.878906 15.542969 16.972656 15.453125 16.972656 C 14.769531 16.972656 14.085938 16.972656 13.398438 16.972656 C 13.308594 16.972656 13.234375 16.878906 13.234375 16.765625 C 13.234375 16.648438 13.308594 16.554688 13.398438 16.554688 " fill-opacity="1" fill-rule="evenodd"/><path fill="#8e9a9f" d="M 15.589844 16.878906 C 15.5625 16.933594 15.511719 16.972656 15.453125 16.972656 C 14.769531 16.972656 14.085938 16.972656 13.398438 16.972656 C 13.34375 16.972656 13.292969 16.933594 13.261719 16.878906 C 13.292969 16.820312 13.34375 16.785156 13.398438 16.785156 C 14.085938 16.785156 14.769531 16.785156 15.453125 16.785156 C 15.511719 16.785156 15.5625 16.820312 15.589844 16.878906 " fill-opacity="1" fill-rule="evenodd"/><path fill="#b0bec5" d="M 13.492188 16.972656 C 14.117188 16.972656 14.738281 16.972656 15.359375 16.972656 C 15.449219 16.972656 15.523438 17.066406 15.523438 17.179688 C 15.523438 17.292969 15.449219 17.386719 15.359375 17.386719 C 14.738281 17.386719 14.117188 17.386719 13.492188 17.386719 C 13.402344 17.386719 13.328125 17.292969 13.328125 17.179688 C 13.328125 17.066406 13.402344 16.972656 13.492188 16.972656 " fill-opacity="1" fill-rule="evenodd"/><path fill="#8e9a9f" d="M 15.496094 17.292969 C 15.46875 17.351562 15.417969 17.386719 15.359375 17.386719 C 14.738281 17.386719 14.117188 17.386719 13.492188 17.386719 C 13.4375 17.386719 13.386719 17.351562 13.355469 17.292969 C 13.386719 17.238281 13.4375 17.199219 13.492188 17.199219 C 14.117188 17.199219 14.738281 17.199219 15.359375 17.199219 C 15.417969 17.199219 15.46875 17.238281 15.496094 17.292969 " fill-opacity="1" fill-rule="evenodd"/><path fill="#b0bec5" d="M 13.34375 16.140625 L 15.507812 16.140625 C 15.621094 16.140625 15.710938 16.234375 15.710938 16.347656 C 15.710938 16.460938 15.621094 16.554688 15.507812 16.554688 L 13.34375 16.554688 C 13.230469 16.554688 13.140625 16.460938 13.140625 16.347656 C 13.140625 16.234375 13.230469 16.140625 13.34375 16.140625 " fill-opacity="1" fill-rule="evenodd"/><path fill="#8e9a9f" d="M 15.683594 16.460938 C 15.65625 16.519531 15.605469 16.554688 15.546875 16.554688 L 13.304688 16.554688 C 13.246094 16.554688 13.195312 16.519531 13.167969 16.460938 C 13.195312 16.40625 13.246094 16.367188 13.304688 16.367188 L 15.546875 16.367188 C 15.605469 16.367188 15.65625 16.40625 15.683594 16.460938 " fill-opacity="1" fill-rule="evenodd"/><path fill="#b0bec5" d="M 15.351562 17.386719 C 15.285156 17.59375 15.128906 17.738281 14.945312 17.738281 L 13.957031 17.738281 C 13.773438 17.738281 13.613281 17.59375 13.550781 17.386719 L 15.351562 17.386719 " fill-opacity="1" fill-rule="evenodd"/><path fill="#96c4f6" d="M 18.335938 15.382812 C 18.335938 15.386719 18.335938 15.390625 18.335938 15.394531 C 18.335938 15.664062 16.558594 15.882812 14.367188 15.882812 C 12.175781 15.882812 10.398438 15.664062 10.398438 15.394531 C 10.398438 15.390625 10.398438 15.386719 10.402344 15.382812 L 10.519531 15.382812 C 10.519531 15.386719 10.519531 15.390625 10.519531 15.394531 C 10.519531 15.617188 12.242188 15.800781 14.367188 15.800781 C 16.492188 15.800781 18.21875 15.617188 18.21875 15.394531 C 18.21875 15.390625 18.214844 15.386719 18.214844 15.382812 L 18.335938 15.382812 " fill-opacity="1" fill-rule="evenodd"/><g clip-path="url(#0e73f796ed)"><path fill="#508add" d="M 18.898438 18.460938 C 18.785156 18.03125 19.167969 18.046875 18.875 16.761719 C 18.757812 16.246094 18.570312 15.789062 18.335938 15.390625 C 18.335938 15.394531 18.335938 15.394531 18.335938 15.394531 C 18.335938 15.664062 16.558594 15.882812 14.367188 15.882812 C 12.175781 15.882812 10.398438 15.664062 10.398438 15.394531 C 10.398438 15.394531 10.398438 15.394531 10.398438 15.390625 C 9.582031 16.726562 9.476562 18.660156 10.78125 21.089844 C 11.042969 21.574219 11.265625 24.515625 11.210938 25.972656 C 12.183594 26.074219 13.1875 26.125 14.210938 26.125 C 14.832031 26.125 15.445312 26.105469 16.046875 26.070312 C 16.140625 25.222656 16.265625 23.867188 17.050781 23.867188 C 17.367188 23.859375 18.105469 23.917969 18.359375 23.789062 C 19.246094 23.335938 18.40625 22.691406 18.648438 22.390625 C 18.753906 22.261719 18.847656 22.382812 18.941406 22.175781 C 19.039062 21.96875 18.980469 21.773438 18.824219 21.761719 C 19.40625 21.417969 19.0625 21.464844 19.003906 21.070312 C 18.96875 20.851562 18.988281 20.859375 19.160156 20.824219 C 20.039062 20.734375 20.042969 20.554688 19.847656 20.199219 C 19.613281 19.78125 19.011719 18.890625 18.898438 18.460938 " fill-opacity="1" fill-rule="evenodd"/></g><g clip-path="url(#b696cf1eeb)"><path fill="#5b99e9" d="M 18.898438 18.460938 C 18.785156 18.03125 19.167969 18.046875 18.875 16.761719 C 18.757812 16.246094 18.570312 15.789062 18.335938 15.390625 C 18.335938 15.394531 18.335938 15.394531 18.335938 15.394531 C 18.335938 15.664062 16.558594 15.882812 14.367188 15.882812 C 14.285156 15.882812 14.207031 15.882812 14.125 15.878906 C 14 16.304688 14.023438 16.792969 14.273438 17.34375 C 15.804688 20.761719 17.644531 20.3125 14.472656 22.601562 C 13.347656 23.414062 13.335938 24.84375 13.824219 26.125 C 13.953125 26.125 14.082031 26.125 14.210938 26.125 C 14.832031 26.125 15.445312 26.105469 16.046875 26.070312 C 16.140625 25.222656 16.265625 23.867188 17.050781 23.867188 C 17.367188 23.859375 18.105469 23.917969 18.359375 23.789062 C 19.246094 23.335938 18.40625 22.691406 18.648438 22.390625 C 18.753906 22.261719 18.847656 22.382812 18.941406 22.175781 C 19.039062 21.96875 18.980469 21.773438 18.824219 21.761719 C 19.40625 21.417969 19.0625 21.464844 19.003906 21.070312 C 18.96875 20.851562 18.988281 20.859375 19.160156 20.824219 C 20.039062 20.734375 20.042969 20.554688 19.847656 20.199219 C 19.613281 19.78125 19.011719 18.890625 18.898438 18.460938 " fill-opacity="1" fill-rule="evenodd"/></g></svg>