<svg xmlns="http://www.w3.org/2000/svg" xmlns:xlink="http://www.w3.org/1999/xlink" width="40" zoomAndPan="magnify" viewBox="0 0 30 30.000001" height="40" preserveAspectRatio="xMidYMid meet" version="1.0"><defs><clipPath id="2627b33443"><path d="M 5 3 L 25.082031 3 L 25.082031 26.128906 L 5 26.128906 Z M 5 3 " clip-rule="nonzero"/></clipPath></defs><g clip-path="url(#2627b33443)"><path fill="#cc2b31" d="M 23.578125 4.726562 C 22.683594 3.867188 21.484375 3.386719 20.25 3.394531 C 18.972656 3.398438 17.777344 3.898438 16.875 4.808594 L 15.152344 6.542969 L 13.476562 4.851562 C 11.605469 2.96875 8.5625 2.910156 6.675781 4.777344 C 4.769531 6.65625 4.757812 9.75 6.640625 11.648438 L 15.753906 20.824219 C 16.792969 21.875 16.84375 23.578125 15.824219 24.648438 C 14.78125 25.738281 13.046875 25.75 11.988281 24.683594 L 9.730469 22.410156 C 9.636719 22.316406 9.625 22.164062 9.707031 22.054688 C 10.042969 21.613281 10.226562 21.050781 10.183594 20.449219 C 10.101562 19.253906 9.132812 18.292969 7.949219 18.230469 C 6.574219 18.160156 5.433594 19.273438 5.453125 20.648438 C 5.46875 21.917969 6.5 22.96875 7.761719 23 C 8.167969 23.007812 8.550781 22.914062 8.890625 22.742188 C 8.992188 22.691406 9.117188 22.710938 9.199219 22.792969 L 11.53125 25.144531 C 12.179688 25.796875 13.03125 26.125 13.886719 26.125 C 14.738281 26.125 15.59375 25.796875 16.242188 25.144531 C 17.539062 23.835938 17.539062 21.707031 16.242188 20.398438 L 7.097656 11.1875 C 5.476562 9.554688 5.476562 6.902344 7.097656 5.269531 C 8.71875 3.636719 11.355469 3.636719 12.976562 5.269531 L 14.914062 7.222656 C 14.980469 7.289062 15.066406 7.320312 15.152344 7.316406 C 15.238281 7.320312 15.324219 7.289062 15.390625 7.222656 L 17.292969 5.308594 C 18.082031 4.511719 19.144531 4.046875 20.261719 4.042969 C 21.375 4.042969 22.421875 4.476562 23.207031 5.269531 C 23.992188 6.0625 24.425781 7.113281 24.425781 8.234375 C 24.421875 9.359375 23.957031 10.433594 23.167969 11.226562 L 22.554688 11.847656 C 22.503906 11.898438 22.433594 11.925781 22.363281 11.925781 L 20.53125 11.925781 C 20.429688 11.925781 20.335938 11.867188 20.289062 11.777344 L 19.40625 9.996094 C 19.304688 9.792969 19.023438 9.792969 18.925781 9.996094 L 17.402344 13.054688 C 17.304688 13.257812 17.019531 13.257812 16.921875 13.054688 L 16.402344 12.007812 C 16.304688 11.808594 16.019531 11.808594 15.921875 12.007812 L 15.402344 13.054688 C 15.304688 13.253906 15.019531 13.253906 14.921875 13.054688 L 13.402344 9.992188 C 13.300781 9.792969 13.019531 9.792969 12.921875 9.992188 L 12.035156 11.777344 C 11.988281 11.867188 11.894531 11.925781 11.792969 11.925781 L 10.171875 11.925781 C 9.996094 11.925781 9.84375 12.0625 9.835938 12.242188 C 9.832031 12.425781 9.976562 12.574219 10.160156 12.574219 L 12.195312 12.574219 C 12.296875 12.574219 12.390625 12.519531 12.433594 12.425781 L 12.921875 11.445312 C 13.019531 11.246094 13.300781 11.246094 13.402344 11.445312 L 14.921875 14.507812 C 15.019531 14.707031 15.304688 14.707031 15.402344 14.507812 L 15.921875 13.460938 C 16.019531 13.261719 16.304688 13.261719 16.402344 13.460938 L 16.921875 14.507812 C 17.019531 14.710938 17.304688 14.710938 17.402344 14.507812 L 18.921875 11.445312 C 19.023438 11.246094 19.304688 11.246094 19.402344 11.445312 L 19.890625 12.425781 C 19.9375 12.519531 20.027344 12.578125 20.128906 12.578125 L 22.605469 12.578125 C 22.605469 12.578125 22.605469 12.578125 22.609375 12.578125 C 22.628906 12.578125 22.648438 12.574219 22.667969 12.570312 C 22.667969 12.570312 22.667969 12.570312 22.671875 12.570312 C 22.6875 12.566406 22.707031 12.5625 22.726562 12.554688 C 22.726562 12.554688 22.730469 12.554688 22.730469 12.550781 C 22.75 12.546875 22.765625 12.535156 22.78125 12.527344 C 22.78125 12.523438 22.785156 12.523438 22.785156 12.523438 C 22.804688 12.511719 22.820312 12.496094 22.835938 12.484375 C 22.835938 12.484375 22.835938 12.484375 22.835938 12.480469 L 23.617188 11.695312 C 24.539062 10.765625 25.078125 9.503906 25.070312 8.1875 C 25.058594 6.871094 24.527344 5.636719 23.578125 4.726562 Z M 6.097656 20.613281 C 6.097656 19.65625 6.871094 18.878906 7.820312 18.878906 C 8.769531 18.878906 9.542969 19.65625 9.542969 20.613281 C 9.542969 21.570312 8.769531 22.351562 7.820312 22.351562 C 6.871094 22.351562 6.097656 21.570312 6.097656 20.613281 Z M 6.097656 20.613281 " fill-opacity="1" fill-rule="nonzero"/></g></svg>