<svg xmlns="http://www.w3.org/2000/svg" xmlns:xlink="http://www.w3.org/1999/xlink" width="40" zoomAndPan="magnify" viewBox="0 0 30 30.000001" height="40" preserveAspectRatio="xMidYMid meet" version="1.0"><defs><clipPath id="1980506d17"><path d="M 5.332031 2.902344 L 24.929688 2.902344 L 24.929688 26.128906 L 5.332031 26.128906 Z M 5.332031 2.902344 " clip-rule="nonzero"/></clipPath><clipPath id="9f415a1d0c"><path d="M 5.332031 4 L 24.929688 4 L 24.929688 26 L 5.332031 26 Z M 5.332031 4 " clip-rule="nonzero"/></clipPath></defs><g clip-path="url(#1980506d17)"><path fill="#c78767" d="M 24.902344 20.90625 C 24.929688 21.089844 24.785156 21.289062 24.652344 21.421875 C 24.519531 21.550781 24.347656 21.636719 24.179688 21.71875 C 23.144531 22.226562 22.140625 22.71875 21.050781 23.097656 C 18.808594 23.875 15.765625 25.027344 13.78125 25.894531 C 13.539062 26 13.289062 26.109375 13.023438 26.113281 C 12.707031 26.121094 12.386719 25.96875 12.199219 25.714844 C 12.097656 25.578125 12.03125 25.417969 11.96875 25.257812 C 11.636719 24.417969 11.363281 23.78125 11.054688 22.933594 C 10.726562 22.035156 10.078125 20.496094 9.859375 19.789062 C 9.738281 19.398438 9.617188 19.007812 9.476562 18.625 C 9.148438 17.730469 7.183594 11.769531 6.238281 9.820312 C 5.964844 9.253906 5.332031 7.785156 5.335938 7.460938 C 5.382812 7.136719 5.515625 6.980469 5.707031 6.914062 C 6.902344 6.496094 8.085938 6.085938 9.265625 5.683594 C 9.648438 5.429688 9.984375 5.285156 10.433594 5.285156 C 12.703125 4.515625 14.964844 3.761719 17.273438 3 C 17.558594 2.90625 17.867188 3.046875 17.984375 3.320312 C 20.382812 9.019531 22.835938 14.765625 24.886719 20.589844 C 24.921875 20.695312 24.925781 20.804688 24.902344 20.90625 " fill-opacity="1" fill-rule="nonzero"/></g><path fill="#ece6e3" d="M 23.652344 20.296875 C 20.398438 21.972656 16.988281 23.355469 13.480469 24.425781 C 11.136719 19.144531 9.128906 13.722656 7.128906 8.304688 C 7.007812 7.980469 6.84375 7.703125 6.800781 7.363281 C 9.734375 6.222656 12.910156 5.125 15.9375 4.246094 C 16.246094 4.15625 16.855469 3.933594 17.164062 3.851562 C 17.585938 4.269531 17.757812 4.855469 18.035156 5.445312 C 19.410156 8.371094 20.582031 11.382812 21.753906 14.394531 C 22.535156 16.40625 23.148438 18.199219 23.652344 20.296875 " fill-opacity="1" fill-rule="nonzero"/><g clip-path="url(#9f415a1d0c)"><path fill="#ac6e52" d="M 22.359375 18.941406 C 22.339844 18.949219 22.328125 18.964844 22.316406 18.980469 C 22.300781 19.003906 22.292969 19.027344 22.289062 19.054688 C 22.289062 19.066406 22.289062 19.082031 22.292969 19.089844 C 22.300781 19.101562 22.308594 19.113281 22.320312 19.117188 C 22.339844 19.132812 22.367188 19.136719 22.390625 19.140625 C 22.410156 19.140625 22.433594 19.140625 22.453125 19.128906 C 22.484375 19.109375 22.5 19.070312 22.492188 19.035156 C 22.484375 18.988281 22.414062 18.921875 22.359375 18.941406 Z M 21.644531 19.234375 C 21.542969 19.210938 21.449219 19.160156 21.347656 19.160156 C 21.113281 19.160156 20.980469 19.414062 20.855469 19.609375 C 20.832031 19.640625 20.808594 19.675781 20.769531 19.6875 C 20.660156 19.71875 20.613281 19.554688 20.539062 19.46875 C 20.460938 19.382812 20.316406 19.378906 20.214844 19.4375 C 20.109375 19.492188 20.042969 19.597656 19.996094 19.703125 C 19.953125 19.800781 19.921875 19.902344 19.859375 19.984375 C 19.796875 20.066406 19.691406 20.128906 19.589844 20.101562 C 19.484375 20.078125 19.425781 19.972656 19.359375 19.890625 C 19.183594 19.667969 18.875 19.539062 18.601562 19.617188 C 18.257812 19.714844 18.089844 20.132812 17.945312 20.453125 C 18.078125 20.269531 18.214844 20.085938 18.402344 19.960938 C 18.589844 19.839844 18.847656 19.789062 19.042969 19.898438 C 19.210938 19.992188 19.300781 20.171875 19.4375 20.308594 C 19.480469 20.355469 19.535156 20.394531 19.597656 20.410156 C 19.734375 20.4375 19.863281 20.320312 19.929688 20.195312 C 19.992188 20.070312 20.023438 19.925781 20.109375 19.820312 C 20.140625 19.78125 20.179688 19.75 20.222656 19.734375 C 20.367188 19.695312 20.480469 19.851562 20.539062 19.984375 C 20.597656 20.121094 20.683594 20.285156 20.832031 20.277344 C 20.886719 20.074219 20.949219 19.871094 21.023438 19.671875 C 21.042969 19.628906 21.058594 19.582031 21.097656 19.550781 C 21.152344 19.5 21.234375 19.503906 21.308594 19.5 C 21.648438 19.484375 21.980469 19.332031 22.210938 19.089844 C 22.089844 19.242188 21.835938 19.28125 21.644531 19.234375 Z M 18.480469 17.027344 C 17.828125 17.074219 17.226562 17.382812 16.640625 17.671875 C 15.558594 18.207031 14.449219 18.683594 13.316406 19.105469 C 15.164062 18.542969 16.78125 17.933594 18.480469 17.027344 Z M 17.675781 15.253906 C 17.261719 15.40625 16.847656 15.550781 16.425781 15.683594 C 16.09375 15.792969 15.753906 15.894531 15.425781 16.015625 C 14.785156 16.246094 14.175781 16.546875 13.570312 16.847656 C 13.167969 17.042969 12.769531 17.242188 12.367188 17.441406 L 12.289062 17.585938 C 12.960938 17.269531 13.632812 16.953125 14.300781 16.636719 C 14.816406 16.394531 15.335938 16.152344 15.878906 15.976562 C 16.222656 15.867188 16.574219 15.785156 16.921875 15.695312 C 17.957031 15.417969 18.964844 15.035156 19.921875 14.554688 C 20.191406 14.417969 20.382812 14.316406 20.566406 14.078125 C 19.617188 14.507812 18.65625 14.898438 17.675781 15.253906 Z M 19.570312 11.523438 C 18.265625 12.191406 16.917969 12.769531 15.597656 13.402344 C 14.421875 13.964844 13.269531 14.566406 12.117188 15.167969 C 11.953125 15.253906 11.789062 15.339844 11.625 15.425781 C 12.265625 15.144531 12.894531 14.894531 13.535156 14.609375 C 13.96875 14.417969 14.402344 14.226562 14.835938 14.035156 C 15.023438 13.953125 15.214844 13.867188 15.40625 13.785156 C 16.476562 13.308594 17.554688 12.832031 18.570312 12.246094 C 18.953125 12.023438 19.207031 11.777344 19.570312 11.523438 Z M 18.796875 9.855469 C 16.351562 10.917969 13.660156 11.519531 11.496094 13.066406 C 11.492188 13.089844 11.554688 13.054688 11.546875 13.078125 C 11.546875 13.039062 11.449219 13.011719 11.480469 13.039062 C 11.507812 13.066406 11.554688 13.046875 11.589844 13.027344 C 11.949219 12.828125 12.316406 12.644531 12.691406 12.472656 C 14.601562 11.597656 16.6875 11.097656 18.527344 10.082031 C 18.636719 10.023438 18.691406 9.917969 18.796875 9.855469 Z M 18.152344 8.359375 C 18.144531 8.359375 18.140625 8.363281 18.132812 8.363281 C 16.78125 8.792969 15.421875 9.230469 14.191406 9.925781 C 15.210938 9.566406 16.191406 9.226562 17.210938 8.867188 C 17.464844 8.777344 17.71875 8.6875 17.945312 8.539062 C 18.066406 8.460938 18.011719 8.390625 18.152344 8.359375 Z M 13.796875 7.992188 C 15.203125 7.542969 16.609375 7.097656 18.011719 6.648438 C 16.667969 7.382812 15.328125 7.820312 13.796875 7.992188 Z M 14.265625 24.929688 C 14.054688 25 13.609375 25.230469 13.386719 25.25 C 12.75 25.3125 12.492188 24.636719 12.203125 24.078125 C 11.921875 23.542969 11.75 22.960938 11.523438 22.402344 C 9.785156 18.066406 8.171875 13.1875 6.335938 8.640625 C 6.164062 8.207031 5.894531 7.828125 5.628906 7.441406 C 8.210938 13.191406 9.527344 18.757812 12.339844 24.917969 C 12.824219 25.984375 14.296875 25.183594 14.996094 24.875 C 15.941406 24.457031 17.316406 24.070312 18.265625 23.667969 C 20.566406 22.691406 22.75 22.050781 24.636719 21.054688 C 24.359375 20.925781 15.820312 24.425781 14.265625 24.929688 Z M 9.402344 5.410156 C 9.410156 5.371094 9.40625 5.332031 9.398438 5.292969 C 9.386719 5.207031 9.367188 5.007812 9.367188 4.855469 C 9.449219 4.84375 9.683594 5.058594 9.78125 5.078125 C 9.882812 5.097656 9.988281 5.097656 10.085938 5.121094 C 10.199219 5.148438 10.304688 5.207031 10.40625 5.265625 C 10.414062 5.273438 10.425781 5.277344 10.433594 5.285156 C 10.046875 5.417969 9.65625 5.550781 9.265625 5.683594 C 9.289062 5.625 9.316406 5.570312 9.347656 5.519531 C 9.371094 5.484375 9.394531 5.449219 9.402344 5.410156 " fill-opacity="1" fill-rule="nonzero"/></g><path fill="#f5b03b" d="M 11.597656 4.144531 C 11.582031 4.054688 11.625 3.964844 11.695312 3.90625 C 11.761719 3.847656 11.851562 3.816406 11.941406 3.796875 C 12.089844 3.765625 12.269531 3.773438 12.375 3.871094 C 12.136719 3.953125 11.902344 4.039062 11.664062 4.121094 C 11.640625 4.128906 11.617188 4.136719 11.597656 4.144531 Z M 14.308594 3.683594 C 14.265625 3.589844 14.222656 3.492188 14.179688 3.394531 C 13.75 3.449219 13.335938 3.558594 12.925781 3.6875 C 12.808594 3.53125 12.621094 3.417969 12.425781 3.375 C 12.136719 3.3125 11.828125 3.386719 11.5625 3.519531 C 11.355469 3.625 11.160156 3.765625 11.035156 3.964844 C 10.960938 4.082031 10.917969 4.21875 10.914062 4.355469 C 10.871094 4.367188 10.832031 4.378906 10.792969 4.390625 C 10.3125 4.53125 9.847656 4.714844 9.367188 4.855469 C 9.445312 5.019531 9.527344 5.183594 9.605469 5.351562 C 9.859375 5.367188 10.082031 5.546875 10.207031 5.761719 C 10.335938 5.980469 10.386719 6.230469 10.425781 6.480469 C 11.953125 5.96875 13.605469 5.363281 15.132812 4.851562 C 15.226562 3.871094 14.460938 3.710938 14.308594 3.683594 " fill-opacity="1" fill-rule="nonzero"/><path fill="#be3821" d="M 13.703125 10.179688 C 13.828125 9.917969 13.902344 9.625 13.847656 9.34375 C 13.796875 9.097656 13.652344 8.878906 13.5 8.679688 C 13.113281 8.179688 12.617188 7.730469 12 7.566406 C 11.34375 7.390625 10.601562 7.585938 10.117188 8.058594 C 9.964844 8.210938 9.835938 8.382812 9.710938 8.558594 C 9.625 8.675781 9.539062 8.792969 9.46875 8.921875 C 9.125 9.578125 9.355469 10.519531 9.929688 10.996094 C 9.996094 11.050781 10.078125 11.089844 10.160156 11.125 C 10.742188 11.382812 11.390625 11.542969 12.015625 11.4375 C 12.738281 11.316406 13.390625 10.832031 13.703125 10.179688 Z M 13.695312 10.609375 C 13.304688 11.179688 12.65625 11.546875 11.980469 11.707031 C 11.417969 11.839844 10.800781 11.839844 10.289062 11.582031 C 9.710938 11.285156 9.332031 10.6875 9.195312 10.058594 C 9.121094 9.699219 9.117188 9.320312 9.214844 8.964844 C 9.488281 7.984375 10.601562 7.253906 11.613281 7.324219 C 12.230469 7.367188 12.8125 7.65625 13.289062 8.046875 C 13.5 8.222656 13.691406 8.417969 13.828125 8.652344 C 14.175781 9.25 14.085938 10.039062 13.695312 10.609375 Z M 12.996094 9.371094 C 12.933594 9.164062 12.804688 8.945312 12.6875 8.761719 C 12.378906 8.882812 12.089844 8.996094 11.808594 9.109375 C 11.660156 8.789062 11.515625 8.472656 11.375 8.152344 C 11.125 8.234375 10.859375 8.34375 10.609375 8.425781 C 10.78125 8.71875 10.949219 9.046875 11.105469 9.386719 C 10.820312 9.496094 10.527344 9.613281 10.214844 9.734375 C 10.351562 9.980469 10.359375 10.265625 10.496094 10.507812 C 10.808594 10.390625 11.117188 10.261719 11.425781 10.128906 C 11.558594 10.464844 11.679688 10.796875 11.78125 11.105469 C 12.109375 10.898438 12.304688 10.863281 12.574219 10.777344 C 12.429688 10.453125 12.28125 10.128906 12.132812 9.808594 C 12.425781 9.667969 12.710938 9.523438 12.996094 9.371094 Z M 14.042969 3.785156 C 12.757812 4.214844 11.46875 4.636719 10.171875 5.039062 C 11.464844 4.511719 12.6875 4.132812 14.042969 3.785156 " fill-opacity="1" fill-rule="nonzero"/></svg>