<svg xmlns="http://www.w3.org/2000/svg" xmlns:xlink="http://www.w3.org/1999/xlink" width="40" zoomAndPan="magnify" viewBox="0 0 30 30.000001" height="40" preserveAspectRatio="xMidYMid meet" version="1.0"><defs><clipPath id="bb4593d0af"><path d="M 3.386719 11 L 26 11 L 26 22 L 3.386719 22 Z M 3.386719 11 " clip-rule="nonzero"/></clipPath><clipPath id="6cc3a35e0f"><path d="M 11 5.289062 L 20 5.289062 L 20 13 L 11 13 Z M 11 5.289062 " clip-rule="nonzero"/></clipPath></defs><path fill="#72e8d2" d="M 22.613281 13.433594 C 21.019531 14.984375 18.25 15.746094 16.859375 16.046875 C 18.6875 15.21875 20.730469 13.777344 22.421875 11.289062 C 22.421875 11.289062 23.035156 11.972656 22.613281 13.433594 Z M 22.613281 13.433594 " fill-opacity="1" fill-rule="nonzero"/><g clip-path="url(#bb4593d0af)"><path fill="#72e8d2" d="M 3.386719 19.082031 C 3.386719 19.082031 5.15625 14.40625 8.992188 13.863281 C 12.824219 13.320312 13.488281 14.878906 17.800781 13.355469 C 17.800781 13.355469 18.539062 15.640625 13.929688 16.21875 C 13.929688 16.21875 13.453125 17.125 14.890625 17.125 C 16.328125 17.125 21.414062 16.492188 24.953125 11.289062 C 24.953125 11.289062 26.613281 13.136719 22.59375 17.234375 C 18.578125 21.332031 13.488281 23.433594 3.386719 19.082031 Z M 3.386719 19.082031 " fill-opacity="1" fill-rule="nonzero"/></g><g clip-path="url(#6cc3a35e0f)"><path fill="#e24065" d="M 18.945312 6.007812 C 18.210938 5.289062 17.027344 5.289062 16.296875 6.007812 L 15.308594 6.976562 L 14.324219 6.007812 C 13.59375 5.289062 12.40625 5.289062 11.675781 6.007812 C 11.3125 6.367188 11.128906 6.839844 11.128906 7.308594 C 11.128906 7.78125 11.3125 8.253906 11.675781 8.613281 L 15.308594 12.183594 L 15.3125 12.183594 L 18.945312 8.613281 C 19.675781 7.894531 19.675781 6.726562 18.945312 6.007812 Z M 16.648438 9.3125 L 15.804688 9.3125 L 15.804688 10.144531 L 14.8125 10.144531 L 14.8125 9.3125 L 13.96875 9.3125 L 13.96875 8.339844 L 14.8125 8.339844 L 14.8125 7.511719 L 15.804688 7.511719 L 15.804688 8.339844 L 16.648438 8.339844 Z M 16.648438 9.3125 " fill-opacity="1" fill-rule="nonzero"/></g></svg>