<svg width="120" height="120" viewBox="0 0 120 120" fill="none" xmlns="http://www.w3.org/2000/svg">
<circle r="6" transform="matrix(-1 0 0 1 6 6)" fill="#2B2B2B" fill-opacity="0.7"/>
<circle r="6" transform="matrix(-1 0 0 1 42 6)" fill="#2B2B2B" fill-opacity="0.7"/>
<circle r="6" transform="matrix(-1 0 0 1 78 6)" fill="#2B2B2B" fill-opacity="0.7"/>
<circle r="6" transform="matrix(-1 0 0 1 114 6)" fill="#2B2B2B" fill-opacity="0.7"/>
<circle r="6" transform="matrix(-1 0 0 1 6 42)" fill="#2B2B2B" fill-opacity="0.7"/>
<circle r="6" transform="matrix(-1 0 0 1 42 42)" fill="#2B2B2B" fill-opacity="0.7"/>
<circle r="6" transform="matrix(-1 0 0 1 78 42)" fill="#2B2B2B" fill-opacity="0.7"/>
<circle r="6" transform="matrix(-1 0 0 1 114 42)" fill="#2B2B2B" fill-opacity="0.7"/>
<circle r="6" transform="matrix(-1 0 0 1 6 78)" fill="#2B2B2B" fill-opacity="0.7"/>
<circle r="6" transform="matrix(-1 0 0 1 42 78)" fill="#2B2B2B" fill-opacity="0.7"/>
<circle r="6" transform="matrix(-1 0 0 1 78 78)" fill="#2B2B2B" fill-opacity="0.7"/>
<circle r="6" transform="matrix(-1 0 0 1 114 78)" fill="#2B2B2B" fill-opacity="0.7"/>
<circle r="6" transform="matrix(-1 0 0 1 6 114)" fill="#2B2B2B" fill-opacity="0.7"/>
<circle r="6" transform="matrix(-1 0 0 1 42 114)" fill="#2B2B2B" fill-opacity="0.7"/>
<circle r="6" transform="matrix(-1 0 0 1 78 114)" fill="#2B2B2B" fill-opacity="0.7"/>
<circle r="6" transform="matrix(-1 0 0 1 114 114)" fill="#2B2B2B" fill-opacity="0.7"/>
</svg>
